<svg width="24" height="24" viewBox="0 0 24 24" fill="none" xmlns="http://www.w3.org/2000/svg">
<path d="M22.4432 3.69318L20.3977 1.64773L10.7045 11.3409L12.75 13.3864L22.4432 3.69318ZM23.3636 9.02273V0.727272H15.0682L23.3636 9.02273ZM11.7273 3.67045V0.727272C10.1136 0.727272 8.60606 1.0303 7.20454 1.63636C5.79545 2.23485 4.56061 3.06818 3.5 4.13636C2.43182 5.20455 1.59848 6.44318 1 7.85227C0.393939 9.25379 0.0909081 10.7576 0.0909081 12.3636C0.0909081 13.9697 0.390151 15.4773 0.988636 16.8864C1.58712 18.2879 2.42045 19.5227 3.48864 20.5909C4.55682 21.6591 5.79545 22.4962 7.20454 23.1023C8.60606 23.7008 10.1136 24 11.7273 24C13.3333 24 14.8409 23.7008 16.25 23.1023C17.6515 22.4962 18.8864 21.6591 19.9545 20.5909C21.0227 19.5227 21.8598 18.2879 22.4659 16.8864C23.0644 15.4773 23.3636 13.9697 23.3636 12.3636H20.4205C20.4205 13.5606 20.197 14.6856 19.75 15.7386C19.303 16.7917 18.6818 17.7159 17.8864 18.5114C17.0833 19.3068 16.1553 19.9318 15.1023 20.3864C14.0492 20.8333 12.9242 21.0568 11.7273 21.0568C10.5227 21.0568 9.39394 20.8333 8.34091 20.3864C7.28788 19.9318 6.36364 19.3068 5.56818 18.5114C4.77273 17.7159 4.15151 16.7955 3.70454 15.75C3.25757 14.697 3.03409 13.5682 3.03409 12.3636C3.03409 11.1591 3.26136 10.0341 3.71591 8.98864C4.16288 7.93561 4.78409 7.01136 5.57954 6.21591C6.375 5.42045 7.29924 4.79924 8.35227 4.35227C9.39773 3.89773 10.5227 3.67045 11.7273 3.67045Z" fill="#1F2147"/>
</svg>
