<svg width="508" height="498" viewBox="0 0 508 498" fill="none" xmlns="http://www.w3.org/2000/svg">
<path d="M102.209 241H104.6V252.75H104.748L112.889 241H115.123V257H112.709V245.266H112.561L104.436 257H102.209V241ZM126.59 249.992V252.016H120.09V249.992H126.59ZM120.746 245V257H118.457V245H120.746ZM128.223 245V257H125.941V245H128.223ZM129.859 247.016V245H139.984V247.016H136.07V257H133.789V247.016H129.859ZM147.068 257.242C145.886 257.242 144.868 256.99 144.014 256.484C143.165 255.974 142.508 255.258 142.045 254.336C141.587 253.409 141.357 252.323 141.357 251.078C141.357 249.849 141.587 248.766 142.045 247.828C142.508 246.891 143.154 246.159 143.982 245.633C144.816 245.107 145.79 244.844 146.904 244.844C147.581 244.844 148.238 244.956 148.873 245.18C149.508 245.404 150.079 245.755 150.584 246.234C151.089 246.714 151.488 247.336 151.779 248.102C152.071 248.862 152.217 249.786 152.217 250.875V251.703H142.678V249.953H149.928C149.928 249.339 149.803 248.794 149.553 248.32C149.303 247.841 148.951 247.464 148.498 247.187C148.05 246.911 147.524 246.773 146.92 246.773C146.264 246.773 145.691 246.935 145.201 247.258C144.717 247.576 144.342 247.992 144.076 248.508C143.816 249.018 143.686 249.573 143.686 250.172V251.539C143.686 252.341 143.826 253.023 144.107 253.586C144.394 254.148 144.792 254.578 145.303 254.875C145.813 255.167 146.41 255.312 147.092 255.312C147.535 255.312 147.938 255.25 148.303 255.125C148.667 254.995 148.982 254.802 149.248 254.547C149.514 254.292 149.717 253.977 149.857 253.602L152.068 254C151.891 254.651 151.574 255.221 151.115 255.711C150.662 256.195 150.092 256.573 149.404 256.844C148.722 257.109 147.943 257.242 147.068 257.242ZM162.48 245V247.016H157.113V257H154.809V245H162.48ZM164.949 261.5V245H167.23V246.945H167.426C167.561 246.695 167.757 246.406 168.012 246.078C168.267 245.75 168.621 245.464 169.074 245.219C169.527 244.969 170.126 244.844 170.871 244.844C171.84 244.844 172.704 245.089 173.465 245.578C174.225 246.068 174.822 246.773 175.254 247.695C175.691 248.617 175.91 249.727 175.91 251.023C175.91 252.32 175.694 253.432 175.262 254.359C174.829 255.281 174.236 255.992 173.48 256.492C172.725 256.987 171.863 257.234 170.895 257.234C170.165 257.234 169.569 257.112 169.105 256.867C168.647 256.622 168.288 256.336 168.027 256.008C167.767 255.68 167.566 255.388 167.426 255.133H167.285V261.5H164.949ZM167.238 251C167.238 251.844 167.361 252.583 167.605 253.219C167.85 253.854 168.204 254.352 168.668 254.711C169.132 255.065 169.699 255.242 170.371 255.242C171.069 255.242 171.652 255.057 172.121 254.687C172.59 254.312 172.944 253.805 173.184 253.164C173.428 252.523 173.551 251.802 173.551 251C173.551 250.208 173.431 249.497 173.191 248.867C172.957 248.237 172.603 247.74 172.129 247.375C171.66 247.01 171.074 246.828 170.371 246.828C169.694 246.828 169.121 247.003 168.652 247.352C168.189 247.701 167.837 248.187 167.598 248.812C167.358 249.437 167.238 250.167 167.238 251ZM182.02 257.266C181.259 257.266 180.572 257.125 179.957 256.844C179.342 256.557 178.855 256.143 178.496 255.602C178.142 255.06 177.965 254.396 177.965 253.609C177.965 252.932 178.095 252.375 178.355 251.937C178.616 251.5 178.967 251.154 179.41 250.898C179.853 250.643 180.348 250.451 180.895 250.32C181.441 250.19 181.999 250.091 182.566 250.023C183.285 249.94 183.868 249.872 184.316 249.82C184.764 249.763 185.09 249.672 185.293 249.547C185.496 249.422 185.598 249.219 185.598 248.937V248.883C185.598 248.201 185.405 247.672 185.02 247.297C184.639 246.922 184.072 246.734 183.316 246.734C182.53 246.734 181.91 246.909 181.457 247.258C181.009 247.602 180.699 247.984 180.527 248.406L178.332 247.906C178.592 247.177 178.973 246.589 179.473 246.141C179.978 245.687 180.559 245.359 181.215 245.156C181.871 244.948 182.561 244.844 183.285 244.844C183.764 244.844 184.272 244.901 184.809 245.016C185.35 245.125 185.855 245.328 186.324 245.625C186.798 245.922 187.186 246.346 187.488 246.898C187.79 247.445 187.941 248.156 187.941 249.031V257H185.66V255.359H185.566C185.415 255.661 185.189 255.958 184.887 256.25C184.585 256.542 184.197 256.784 183.723 256.977C183.249 257.169 182.681 257.266 182.02 257.266ZM182.527 255.391C183.173 255.391 183.725 255.263 184.184 255.008C184.647 254.753 184.999 254.419 185.238 254.008C185.483 253.591 185.605 253.146 185.605 252.672V251.125C185.522 251.208 185.361 251.286 185.121 251.359C184.887 251.427 184.618 251.487 184.316 251.539C184.014 251.586 183.72 251.63 183.434 251.672C183.147 251.708 182.908 251.74 182.715 251.766C182.262 251.823 181.848 251.919 181.473 252.055C181.103 252.19 180.806 252.385 180.582 252.641C180.363 252.891 180.254 253.224 180.254 253.641C180.254 254.219 180.467 254.656 180.895 254.953C181.322 255.245 181.866 255.391 182.527 255.391ZM200.842 245V255.086H202.6V260.867H200.295V257H191.053V245H193.342V254.984H198.561V245H200.842ZM207.479 253.727L212.768 245H215.283V257H212.994V248.266L207.729 257H205.189V245H207.479V253.727ZM223.479 257.242C222.354 257.242 221.372 256.984 220.533 256.469C219.695 255.953 219.044 255.232 218.58 254.305C218.117 253.378 217.885 252.294 217.885 251.055C217.885 249.81 218.117 248.721 218.58 247.789C219.044 246.857 219.695 246.133 220.533 245.617C221.372 245.102 222.354 244.844 223.479 244.844C224.604 244.844 225.585 245.102 226.424 245.617C227.262 246.133 227.913 246.857 228.377 247.789C228.84 248.721 229.072 249.81 229.072 251.055C229.072 252.294 228.84 253.378 228.377 254.305C227.913 255.232 227.262 255.953 226.424 256.469C225.585 256.984 224.604 257.242 223.479 257.242ZM223.486 255.281C224.215 255.281 224.82 255.089 225.299 254.703C225.778 254.318 226.132 253.805 226.361 253.164C226.596 252.523 226.713 251.818 226.713 251.047C226.713 250.281 226.596 249.578 226.361 248.937C226.132 248.292 225.778 247.773 225.299 247.383C224.82 246.992 224.215 246.797 223.486 246.797C222.752 246.797 222.143 246.992 221.658 247.383C221.179 247.773 220.822 248.292 220.588 248.937C220.359 249.578 220.244 250.281 220.244 251.047C220.244 251.818 220.359 252.523 220.588 253.164C220.822 253.805 221.179 254.318 221.658 254.703C222.143 255.089 222.752 255.281 223.486 255.281ZM239.813 249.992V252.016H233.313V249.992H239.813ZM233.969 245V257H231.68V245H233.969ZM241.445 245V257H239.164V245H241.445ZM252.703 249.992V252.016H246.203V249.992H252.703ZM246.859 245V257H244.57V245H246.859ZM254.336 245V257H252.055V245H254.336ZM260.953 257.266C260.193 257.266 259.505 257.125 258.891 256.844C258.276 256.557 257.789 256.143 257.43 255.602C257.076 255.06 256.898 254.396 256.898 253.609C256.898 252.932 257.029 252.375 257.289 251.937C257.549 251.5 257.901 251.154 258.344 250.898C258.786 250.643 259.281 250.451 259.828 250.32C260.375 250.19 260.932 250.091 261.5 250.023C262.219 249.94 262.802 249.872 263.25 249.82C263.698 249.763 264.023 249.672 264.227 249.547C264.43 249.422 264.531 249.219 264.531 248.937V248.883C264.531 248.201 264.339 247.672 263.953 247.297C263.573 246.922 263.005 246.734 262.25 246.734C261.464 246.734 260.844 246.909 260.391 247.258C259.943 247.602 259.633 247.984 259.461 248.406L257.266 247.906C257.526 247.177 257.906 246.589 258.406 246.141C258.911 245.687 259.492 245.359 260.148 245.156C260.805 244.948 261.495 244.844 262.219 244.844C262.698 244.844 263.206 244.901 263.742 245.016C264.284 245.125 264.789 245.328 265.258 245.625C265.732 245.922 266.12 246.346 266.422 246.898C266.724 247.445 266.875 248.156 266.875 249.031V257H264.594V255.359H264.5C264.349 255.661 264.122 255.958 263.82 256.25C263.518 256.542 263.13 256.784 262.656 256.977C262.182 257.169 261.615 257.266 260.953 257.266ZM261.461 255.391C262.107 255.391 262.659 255.263 263.117 255.008C263.581 254.753 263.932 254.419 264.172 254.008C264.417 253.591 264.539 253.146 264.539 252.672V251.125C264.456 251.208 264.294 251.286 264.055 251.359C263.82 251.427 263.552 251.487 263.25 251.539C262.948 251.586 262.654 251.63 262.367 251.672C262.081 251.708 261.841 251.74 261.648 251.766C261.195 251.823 260.781 251.919 260.406 252.055C260.036 252.19 259.74 252.385 259.516 252.641C259.297 252.891 259.187 253.224 259.187 253.641C259.187 254.219 259.401 254.656 259.828 254.953C260.255 255.245 260.799 255.391 261.461 255.391ZM277.143 257V246.992H274.268C273.585 246.992 273.054 247.151 272.674 247.469C272.294 247.786 272.104 248.203 272.104 248.719C272.104 249.229 272.278 249.641 272.627 249.953C272.981 250.26 273.476 250.414 274.111 250.414H277.822V252.305H274.111C273.226 252.305 272.46 252.159 271.814 251.867C271.174 251.57 270.679 251.151 270.33 250.609C269.986 250.068 269.814 249.427 269.814 248.688C269.814 247.932 269.992 247.281 270.346 246.734C270.705 246.182 271.218 245.755 271.885 245.453C272.557 245.151 273.351 245 274.268 245H279.338V257H277.143ZM269.268 257L272.65 250.937H275.041L271.658 257H269.268ZM288.27 257V245H298.059V257H295.77V247.016H290.543V257H288.27ZM300.236 257L300.229 254.977H300.658C300.992 254.977 301.27 254.906 301.494 254.766C301.723 254.62 301.911 254.375 302.057 254.031C302.202 253.687 302.314 253.214 302.393 252.609C302.471 252 302.528 251.234 302.564 250.312L302.775 245H311.15V257H308.861V247.016H304.939L304.752 251.094C304.705 252.083 304.604 252.948 304.447 253.687C304.296 254.427 304.075 255.044 303.783 255.539C303.492 256.029 303.117 256.396 302.658 256.641C302.2 256.88 301.643 257 300.986 257H300.236ZM317.758 257.266C316.997 257.266 316.31 257.125 315.695 256.844C315.081 256.557 314.594 256.143 314.234 255.602C313.88 255.06 313.703 254.396 313.703 253.609C313.703 252.932 313.833 252.375 314.094 251.937C314.354 251.5 314.706 251.154 315.148 250.898C315.591 250.643 316.086 250.451 316.633 250.32C317.18 250.19 317.737 250.091 318.305 250.023C319.023 249.94 319.607 249.872 320.055 249.82C320.503 249.763 320.828 249.672 321.031 249.547C321.234 249.422 321.336 249.219 321.336 248.937V248.883C321.336 248.201 321.143 247.672 320.758 247.297C320.378 246.922 319.81 246.734 319.055 246.734C318.268 246.734 317.648 246.909 317.195 247.258C316.747 247.602 316.438 247.984 316.266 248.406L314.07 247.906C314.331 247.177 314.711 246.589 315.211 246.141C315.716 245.687 316.297 245.359 316.953 245.156C317.609 244.948 318.299 244.844 319.023 244.844C319.503 244.844 320.01 244.901 320.547 245.016C321.089 245.125 321.594 245.328 322.062 245.625C322.536 245.922 322.924 246.346 323.227 246.898C323.529 247.445 323.68 248.156 323.68 249.031V257H321.398V255.359H321.305C321.154 255.661 320.927 255.958 320.625 256.25C320.323 256.542 319.935 256.784 319.461 256.977C318.987 257.169 318.419 257.266 317.758 257.266ZM318.266 255.391C318.911 255.391 319.464 255.263 319.922 255.008C320.385 254.753 320.737 254.419 320.977 254.008C321.221 253.591 321.344 253.146 321.344 252.672V251.125C321.26 251.208 321.099 251.286 320.859 251.359C320.625 251.427 320.357 251.487 320.055 251.539C319.753 251.586 319.458 251.63 319.172 251.672C318.885 251.708 318.646 251.74 318.453 251.766C318 251.823 317.586 251.919 317.211 252.055C316.841 252.19 316.544 252.385 316.32 252.641C316.102 252.891 315.992 253.224 315.992 253.641C315.992 254.219 316.206 254.656 316.633 254.953C317.06 255.245 317.604 255.391 318.266 255.391ZM325.303 247.016V245H335.428V247.016H331.514V257H329.232V247.016H325.303ZM342.504 261.086V241H344.84V261.086H342.504ZM342.504 257.242C341.655 257.242 340.882 257.096 340.184 256.805C339.486 256.508 338.884 256.086 338.379 255.539C337.874 254.992 337.483 254.339 337.207 253.578C336.936 252.818 336.801 251.977 336.801 251.055C336.801 250.122 336.936 249.276 337.207 248.516C337.483 247.755 337.874 247.102 338.379 246.555C338.884 246.008 339.486 245.586 340.184 245.289C340.882 244.992 341.655 244.844 342.504 244.844H343.082V257.242H342.504ZM342.504 255.273H342.832V246.812H342.504C341.941 246.812 341.452 246.927 341.035 247.156C340.618 247.38 340.272 247.69 339.996 248.086C339.72 248.477 339.512 248.927 339.371 249.438C339.236 249.948 339.168 250.487 339.168 251.055C339.168 251.815 339.29 252.516 339.535 253.156C339.78 253.792 340.15 254.305 340.645 254.695C341.139 255.081 341.759 255.273 342.504 255.273ZM344.84 257.242H344.254V244.844H344.84C345.689 244.844 346.462 244.992 347.16 245.289C347.858 245.586 348.457 246.008 348.957 246.555C349.462 247.102 349.85 247.755 350.121 248.516C350.397 249.276 350.535 250.122 350.535 251.055C350.535 251.977 350.397 252.818 350.121 253.578C349.85 254.339 349.462 254.992 348.957 255.539C348.457 256.086 347.858 256.508 347.16 256.805C346.462 257.096 345.689 257.242 344.84 257.242ZM344.84 255.273C345.402 255.273 345.892 255.164 346.309 254.945C346.725 254.721 347.072 254.414 347.348 254.023C347.624 253.628 347.829 253.177 347.965 252.672C348.1 252.161 348.168 251.622 348.168 251.055C348.168 250.299 348.046 249.602 347.801 248.961C347.561 248.315 347.194 247.797 346.699 247.406C346.204 247.01 345.585 246.812 344.84 246.812H344.504V255.273H344.84ZM358.186 257.242C357.061 257.242 356.079 256.984 355.24 256.469C354.402 255.953 353.751 255.232 353.287 254.305C352.824 253.378 352.592 252.294 352.592 251.055C352.592 249.81 352.824 248.721 353.287 247.789C353.751 246.857 354.402 246.133 355.24 245.617C356.079 245.102 357.061 244.844 358.186 244.844C359.311 244.844 360.292 245.102 361.131 245.617C361.969 246.133 362.62 246.857 363.084 247.789C363.548 248.721 363.779 249.81 363.779 251.055C363.779 252.294 363.548 253.378 363.084 254.305C362.62 255.232 361.969 255.953 361.131 256.469C360.292 256.984 359.311 257.242 358.186 257.242ZM358.193 255.281C358.923 255.281 359.527 255.089 360.006 254.703C360.485 254.318 360.839 253.805 361.068 253.164C361.303 252.523 361.42 251.818 361.42 251.047C361.42 250.281 361.303 249.578 361.068 248.937C360.839 248.292 360.485 247.773 360.006 247.383C359.527 246.992 358.923 246.797 358.193 246.797C357.459 246.797 356.85 246.992 356.365 247.383C355.886 247.773 355.529 248.292 355.295 248.937C355.066 249.578 354.951 250.281 354.951 251.047C354.951 251.818 355.066 252.523 355.295 253.164C355.529 253.805 355.886 254.318 356.365 254.703C356.85 255.089 357.459 255.281 358.193 255.281ZM366.387 261.5V245H368.668V246.945H368.863C368.999 246.695 369.194 246.406 369.449 246.078C369.704 245.75 370.059 245.464 370.512 245.219C370.965 244.969 371.564 244.844 372.309 244.844C373.277 244.844 374.142 245.089 374.902 245.578C375.663 246.068 376.259 246.773 376.691 247.695C377.129 248.617 377.348 249.727 377.348 251.023C377.348 252.32 377.132 253.432 376.699 254.359C376.267 255.281 375.673 255.992 374.918 256.492C374.163 256.987 373.301 257.234 372.332 257.234C371.603 257.234 371.007 257.112 370.543 256.867C370.085 256.622 369.725 256.336 369.465 256.008C369.204 255.68 369.004 255.388 368.863 255.133H368.723V261.5H366.387ZM368.676 251C368.676 251.844 368.798 252.583 369.043 253.219C369.288 253.854 369.642 254.352 370.105 254.711C370.569 255.065 371.137 255.242 371.809 255.242C372.507 255.242 373.09 255.057 373.559 254.687C374.027 254.312 374.382 253.805 374.621 253.164C374.866 252.523 374.988 251.802 374.988 251C374.988 250.208 374.868 249.497 374.629 248.867C374.395 248.237 374.04 247.74 373.566 247.375C373.098 247.01 372.512 246.828 371.809 246.828C371.132 246.828 370.559 247.003 370.09 247.352C369.626 247.701 369.275 248.187 369.035 248.812C368.796 249.437 368.676 250.167 368.676 251ZM386.699 254.109L390.574 245H392.59L387.566 257H385.832L380.91 245H382.902L386.699 254.109ZM382.254 245V257H379.965V245H382.254ZM391.207 257V245H393.48V257H391.207ZM400.086 257.266C399.326 257.266 398.638 257.125 398.023 256.844C397.409 256.557 396.922 256.143 396.563 255.602C396.208 255.06 396.031 254.396 396.031 253.609C396.031 252.932 396.161 252.375 396.422 251.937C396.682 251.5 397.034 251.154 397.477 250.898C397.919 250.643 398.414 250.451 398.961 250.32C399.508 250.19 400.065 250.091 400.633 250.023C401.352 249.94 401.935 249.872 402.383 249.82C402.831 249.763 403.156 249.672 403.359 249.547C403.563 249.422 403.664 249.219 403.664 248.937V248.883C403.664 248.201 403.471 247.672 403.086 247.297C402.706 246.922 402.138 246.734 401.383 246.734C400.596 246.734 399.977 246.909 399.523 247.258C399.076 247.602 398.766 247.984 398.594 248.406L396.398 247.906C396.659 247.177 397.039 246.589 397.539 246.141C398.044 245.687 398.625 245.359 399.281 245.156C399.938 244.948 400.628 244.844 401.352 244.844C401.831 244.844 402.339 244.901 402.875 245.016C403.417 245.125 403.922 245.328 404.391 245.625C404.865 245.922 405.253 246.346 405.555 246.898C405.857 247.445 406.008 248.156 406.008 249.031V257H403.727V255.359H403.633C403.482 255.661 403.255 255.958 402.953 256.25C402.651 256.542 402.263 256.784 401.789 256.977C401.315 257.169 400.747 257.266 400.086 257.266ZM400.594 255.391C401.24 255.391 401.792 255.263 402.25 255.008C402.714 254.753 403.065 254.419 403.305 254.008C403.549 253.591 403.672 253.146 403.672 252.672V251.125C403.589 251.208 403.427 251.286 403.188 251.359C402.953 251.427 402.685 251.487 402.383 251.539C402.081 251.586 401.786 251.63 401.5 251.672C401.214 251.708 400.974 251.74 400.781 251.766C400.328 251.823 399.914 251.919 399.539 252.055C399.169 252.19 398.872 252.385 398.648 252.641C398.43 252.891 398.32 253.224 398.32 253.641C398.32 254.219 398.534 254.656 398.961 254.953C399.388 255.245 399.932 255.391 400.594 255.391Z" fill="#1F2147"/>
<path d="M39.6076 29.9091H41.9599V38.8324H42.0813L48.2369 29.9091H50.3654V43H47.994V34.0831H47.8853L41.7106 43H39.6076V29.9091ZM64.1547 34.326H61.764C61.6958 33.9339 61.5701 33.5866 61.3869 33.2841C61.2037 32.9773 60.9757 32.7173 60.7029 32.5043C60.4302 32.2912 60.1191 32.1314 59.7697 32.0249C59.4245 31.9141 59.0517 31.8587 58.6511 31.8587C57.9395 31.8587 57.3088 32.0376 56.7591 32.3956C56.2093 32.7493 55.7789 33.2692 55.4679 33.9553C55.1568 34.6371 55.0012 35.4702 55.0012 36.4545C55.0012 37.456 55.1568 38.2997 55.4679 38.9858C55.7832 39.6676 56.2136 40.1832 56.7591 40.5327C57.3088 40.8778 57.9373 41.0504 58.6447 41.0504C59.0368 41.0504 59.4032 40.9993 59.7441 40.897C60.0893 40.7905 60.3983 40.6349 60.671 40.4304C60.948 40.2259 61.1802 39.9744 61.3677 39.6761C61.5595 39.3778 61.6916 39.0369 61.764 38.6534L64.1547 38.6662C64.0652 39.2884 63.8713 39.8722 63.573 40.4176C63.2789 40.9631 62.8933 41.4446 62.416 41.8622C61.9387 42.2756 61.3805 42.5994 60.7413 42.8338C60.1021 43.0639 59.3926 43.179 58.6127 43.179C57.4622 43.179 56.4352 42.9126 55.5318 42.38C54.6284 41.8473 53.9167 41.0781 53.3968 40.0724C52.877 39.0668 52.617 37.8608 52.617 36.4545C52.617 35.044 52.8791 33.8381 53.4032 32.8366C53.9274 31.831 54.6412 31.0618 55.5446 30.5291C56.448 29.9964 57.4707 29.7301 58.6127 29.7301C59.3414 29.7301 60.019 29.8324 60.6454 30.0369C61.2718 30.2415 61.8301 30.5419 62.3201 30.9382C62.8102 31.3303 63.2129 31.8118 63.5282 32.3828C63.8478 32.9496 64.0566 33.5973 64.1547 34.326ZM71.5231 29.9091V43H69.1516V32.2166H69.0749L66.0131 34.1726V31.9993L69.2667 29.9091H71.5231Z" fill="#1F2147"/>
<path d="M137.438 454.909H139.79V463.832H139.911L146.067 454.909H148.195V468H145.824V459.083H145.715L139.541 468H137.438V454.909ZM161.985 459.326H159.594C159.526 458.934 159.4 458.587 159.217 458.284C159.034 457.977 158.806 457.717 158.533 457.504C158.26 457.291 157.949 457.131 157.6 457.025C157.255 456.914 156.882 456.859 156.481 456.859C155.77 456.859 155.139 457.038 154.589 457.396C154.039 457.749 153.609 458.269 153.298 458.955C152.987 459.637 152.831 460.47 152.831 461.455C152.831 462.456 152.987 463.3 153.298 463.986C153.613 464.668 154.044 465.183 154.589 465.533C155.139 465.878 155.767 466.05 156.475 466.05C156.867 466.05 157.233 465.999 157.574 465.897C157.919 465.79 158.228 465.635 158.501 465.43C158.778 465.226 159.01 464.974 159.198 464.676C159.39 464.378 159.522 464.037 159.594 463.653L161.985 463.666C161.895 464.288 161.701 464.872 161.403 465.418C161.109 465.963 160.723 466.445 160.246 466.862C159.769 467.276 159.211 467.599 158.571 467.834C157.932 468.064 157.223 468.179 156.443 468.179C155.292 468.179 154.265 467.913 153.362 467.38C152.458 466.847 151.747 466.078 151.227 465.072C150.707 464.067 150.447 462.861 150.447 461.455C150.447 460.044 150.709 458.838 151.233 457.837C151.757 456.831 152.471 456.062 153.375 455.529C154.278 454.996 155.301 454.73 156.443 454.73C157.172 454.73 157.849 454.832 158.475 455.037C159.102 455.241 159.66 455.542 160.15 455.938C160.64 456.33 161.043 456.812 161.358 457.383C161.678 457.95 161.887 458.597 161.985 459.326ZM163.792 465.571V463.685L169.347 454.909H170.919V457.594H169.96L166.221 463.519V463.621H173.975V465.571H163.792ZM170.037 468V464.996L170.063 464.152V454.909H172.3V468H170.037Z" fill="#1F2147"/>
<path d="M11 10H100" stroke="#1F2147" stroke-width="2"/>
<path d="M110 435H199" stroke="#1F2147" stroke-width="2"/>
<path d="M236.342 29.9091H238.694V38.8324H238.816L244.971 29.9091H247.1V43H244.728V34.0831H244.62L238.445 43H236.342V29.9091ZM260.889 34.326H258.498C258.43 33.9339 258.305 33.5866 258.121 33.2841C257.938 32.9773 257.71 32.7173 257.437 32.5043C257.165 32.2912 256.854 32.1314 256.504 32.0249C256.159 31.9141 255.786 31.8587 255.385 31.8587C254.674 31.8587 254.043 32.0376 253.493 32.3956C252.944 32.7493 252.513 33.2692 252.202 33.9553C251.891 34.6371 251.736 35.4702 251.736 36.4545C251.736 37.456 251.891 38.2997 252.202 38.9858C252.518 39.6676 252.948 40.1832 253.493 40.5327C254.043 40.8778 254.672 41.0504 255.379 41.0504C255.771 41.0504 256.138 40.9993 256.479 40.897C256.824 40.7905 257.133 40.6349 257.405 40.4304C257.682 40.2259 257.915 39.9744 258.102 39.6761C258.294 39.3778 258.426 39.0369 258.498 38.6534L260.889 38.6662C260.8 39.2884 260.606 39.8722 260.307 40.4176C260.013 40.9631 259.628 41.4446 259.15 41.8622C258.673 42.2756 258.115 42.5994 257.476 42.8338C256.836 43.0639 256.127 43.179 255.347 43.179C254.197 43.179 253.17 42.9126 252.266 42.38C251.363 41.8473 250.651 41.0781 250.131 40.0724C249.611 39.0668 249.351 37.8608 249.351 36.4545C249.351 35.044 249.613 33.8381 250.138 32.8366C250.662 31.831 251.376 31.0618 252.279 30.5291C253.182 29.9964 254.205 29.7301 255.347 29.7301C256.076 29.7301 256.753 29.8324 257.38 30.0369C258.006 30.2415 258.564 30.5419 259.055 30.9382C259.545 31.3303 259.947 31.8118 260.263 32.3828C260.582 32.9496 260.791 33.5973 260.889 34.326ZM262.933 43V41.2869L267.478 36.8317C267.912 36.3928 268.275 36.0028 268.564 35.6619C268.854 35.321 269.071 34.9908 269.216 34.6712C269.361 34.3516 269.434 34.0107 269.434 33.6484C269.434 33.2351 269.34 32.8814 269.152 32.5874C268.965 32.2891 268.707 32.0589 268.379 31.897C268.051 31.7351 267.678 31.6541 267.26 31.6541C266.83 31.6541 266.453 31.7436 266.129 31.9226C265.805 32.0973 265.554 32.3466 265.375 32.6705C265.2 32.9943 265.113 33.38 265.113 33.8274H262.856C262.856 32.9964 263.046 32.2741 263.425 31.6605C263.804 31.0469 264.326 30.5717 264.991 30.2351C265.66 29.8984 266.427 29.7301 267.292 29.7301C268.17 29.7301 268.941 29.8942 269.606 30.2223C270.271 30.5504 270.787 31 271.153 31.571C271.524 32.142 271.709 32.794 271.709 33.527C271.709 34.017 271.615 34.4986 271.428 34.9716C271.24 35.4446 270.91 35.9687 270.437 36.544C269.968 37.1193 269.31 37.8161 268.462 38.6342L266.206 40.929V41.0185H271.907V43H262.933Z" fill="#1F2147"/>
<path d="M335.737 454.909H338.089V463.832H338.21L344.366 454.909H346.494V468H344.123V459.083H344.014L337.839 468H335.737V454.909ZM360.284 459.326H357.893C357.825 458.934 357.699 458.587 357.516 458.284C357.333 457.977 357.105 457.717 356.832 457.504C356.559 457.291 356.248 457.131 355.899 457.025C355.553 456.914 355.181 456.859 354.78 456.859C354.068 456.859 353.438 457.038 352.888 457.396C352.338 457.749 351.908 458.269 351.597 458.955C351.286 459.637 351.13 460.47 351.13 461.455C351.13 462.456 351.286 463.3 351.597 463.986C351.912 464.668 352.343 465.183 352.888 465.533C353.438 465.878 354.066 466.05 354.774 466.05C355.166 466.05 355.532 465.999 355.873 465.897C356.218 465.79 356.527 465.635 356.8 465.43C357.077 465.226 357.309 464.974 357.497 464.676C357.688 464.378 357.82 464.037 357.893 463.653L360.284 463.666C360.194 464.288 360 464.872 359.702 465.418C359.408 465.963 359.022 466.445 358.545 466.862C358.068 467.276 357.509 467.599 356.87 467.834C356.231 468.064 355.521 468.179 354.742 468.179C353.591 468.179 352.564 467.913 351.661 467.38C350.757 466.847 350.046 466.078 349.526 465.072C349.006 464.067 348.746 462.861 348.746 461.455C348.746 460.044 349.008 458.838 349.532 457.837C350.056 456.831 350.77 456.062 351.673 455.529C352.577 454.996 353.6 454.73 354.742 454.73C355.47 454.73 356.148 454.832 356.774 455.037C357.401 455.241 357.959 455.542 358.449 455.938C358.939 456.33 359.342 456.812 359.657 457.383C359.977 457.95 360.186 458.597 360.284 459.326ZM366.879 468.179C366.026 468.179 365.263 468.019 364.59 467.7C363.917 467.376 363.382 466.933 362.986 466.37C362.594 465.808 362.385 465.164 362.359 464.44H364.661C364.703 464.977 364.935 465.415 365.357 465.756C365.779 466.093 366.286 466.261 366.879 466.261C367.343 466.261 367.756 466.155 368.119 465.942C368.481 465.729 368.766 465.433 368.975 465.053C369.184 464.674 369.286 464.241 369.282 463.756C369.286 463.261 369.182 462.822 368.969 462.439C368.756 462.055 368.464 461.755 368.093 461.538C367.722 461.316 367.296 461.205 366.815 461.205C366.423 461.201 366.037 461.273 365.658 461.423C365.278 461.572 364.978 461.768 364.756 462.011L362.615 461.659L363.299 454.909H370.893V456.891H365.261L364.884 460.362H364.961C365.204 460.076 365.547 459.839 365.99 459.652C366.433 459.46 366.919 459.364 367.447 459.364C368.24 459.364 368.947 459.552 369.57 459.927C370.192 460.298 370.682 460.809 371.04 461.461C371.398 462.113 371.577 462.859 371.577 463.698C371.577 464.563 371.376 465.335 370.976 466.012C370.58 466.685 370.028 467.216 369.32 467.604C368.617 467.987 367.803 468.179 366.879 468.179Z" fill="#1F2147"/>
<path d="M434.57 29.9091H436.922V38.8324H437.043L443.199 29.9091H445.327V43H442.956V34.0831H442.847L436.672 43H434.57V29.9091ZM459.117 34.326H456.726C456.658 33.9339 456.532 33.5866 456.349 33.2841C456.166 32.9773 455.938 32.7173 455.665 32.5043C455.392 32.2912 455.081 32.1314 454.732 32.0249C454.386 31.9141 454.014 31.8587 453.613 31.8587C452.901 31.8587 452.271 32.0376 451.721 32.3956C451.171 32.7493 450.741 33.2692 450.43 33.9553C450.119 34.6371 449.963 35.4702 449.963 36.4545C449.963 37.456 450.119 38.2997 450.43 38.9858C450.745 39.6676 451.176 40.1832 451.721 40.5327C452.271 40.8778 452.899 41.0504 453.607 41.0504C453.999 41.0504 454.365 40.9993 454.706 40.897C455.051 40.7905 455.36 40.6349 455.633 40.4304C455.91 40.2259 456.142 39.9744 456.33 39.6761C456.521 39.3778 456.653 39.0369 456.726 38.6534L459.117 38.6662C459.027 39.2884 458.833 39.8722 458.535 40.4176C458.241 40.9631 457.855 41.4446 457.378 41.8622C456.901 42.2756 456.342 42.5994 455.703 42.8338C455.064 43.0639 454.354 43.179 453.575 43.179C452.424 43.179 451.397 42.9126 450.494 42.38C449.59 41.8473 448.879 41.0781 448.359 40.0724C447.839 39.0668 447.579 37.8608 447.579 36.4545C447.579 35.044 447.841 33.8381 448.365 32.8366C448.889 31.831 449.603 31.0618 450.506 30.5291C451.41 29.9964 452.433 29.7301 453.575 29.7301C454.303 29.7301 454.981 29.8324 455.607 30.0369C456.234 30.2415 456.792 30.5419 457.282 30.9382C457.772 31.3303 458.175 31.8118 458.49 32.3828C458.81 32.9496 459.019 33.5973 459.117 34.326ZM465.859 43.179C464.938 43.179 464.12 43.0213 463.404 42.706C462.692 42.3906 462.13 41.9517 461.717 41.3892C461.303 40.8267 461.084 40.1768 461.058 39.4396H463.462C463.483 39.7933 463.6 40.1023 463.813 40.3665C464.026 40.6264 464.31 40.8288 464.663 40.9737C465.017 41.1186 465.413 41.1911 465.852 41.1911C466.321 41.1911 466.736 41.1101 467.099 40.9482C467.461 40.782 467.744 40.5518 467.949 40.2578C468.153 39.9638 468.253 39.625 468.249 39.2415C468.253 38.8452 468.151 38.4957 467.942 38.1932C467.734 37.8906 467.431 37.6541 467.035 37.4837C466.643 37.3132 466.17 37.228 465.616 37.228H464.459V35.3999H465.616C466.072 35.3999 466.47 35.321 466.811 35.1634C467.156 35.0057 467.427 34.7841 467.623 34.4986C467.819 34.2088 467.915 33.8743 467.91 33.495C467.915 33.1243 467.832 32.8026 467.661 32.5298C467.495 32.2528 467.258 32.0376 466.952 31.8842C466.649 31.7308 466.293 31.6541 465.884 31.6541C465.484 31.6541 465.113 31.7266 464.772 31.8714C464.431 32.0163 464.156 32.223 463.947 32.4915C463.739 32.7557 463.628 33.071 463.615 33.4375H461.333C461.35 32.7045 461.561 32.0611 461.966 31.5071C462.375 30.9489 462.92 30.5142 463.602 30.2031C464.284 29.8878 465.049 29.7301 465.897 29.7301C466.771 29.7301 467.529 29.8942 468.172 30.2223C468.82 30.5462 469.321 30.983 469.675 31.5327C470.028 32.0824 470.205 32.6896 470.205 33.3544C470.209 34.0916 469.992 34.7095 469.553 35.2081C469.119 35.7067 468.547 36.0327 467.84 36.1861V36.2884C468.761 36.4162 469.466 36.7571 469.956 37.3111C470.45 37.8608 470.695 38.5447 470.691 39.3629C470.691 40.0959 470.482 40.7521 470.065 41.3317C469.651 41.907 469.08 42.3587 468.351 42.6868C467.627 43.0149 466.796 43.179 465.859 43.179Z" fill="#1F2147"/>
<path d="M209 10H298" stroke="#1F2147" stroke-width="2"/>
<path d="M308 435H397" stroke="#1F2147" stroke-width="2"/>
<path d="M407 10H496" stroke="#1F2147" stroke-width="2"/>
<path d="M507 224V203C507 200.791 505.209 199 503 199H5C2.79086 199 1 200.791 1 203V224M507 274V295C507 297.209 505.209 299 503 299H4.99999C2.79085 299 1 297.209 1 295V274" stroke="#1F2147" stroke-width="2"/>
<path d="M5 1H106C107.657 1 109 2.34315 109 4V69C109 70.6569 107.657 72 106 72H5C3.34315 72 2 70.6569 2 69V4C2 2.34315 3.34315 1 5 1Z" stroke="#1F2147" stroke-width="2"/>
<path d="M104 426H205C206.657 426 208 427.343 208 429V494C208 495.657 206.657 497 205 497H104C102.343 497 101 495.657 101 494V429C101 427.343 102.343 426 104 426Z" stroke="#1F2147" stroke-width="2"/>
<rect x="200" y="1" width="107" height="71" rx="3" stroke="#1F2147" stroke-width="2"/>
<rect x="299" y="426" width="107" height="71" rx="3" stroke="#1F2147" stroke-width="2"/>
<rect x="399" y="1" width="107" height="71" rx="3" stroke="#1F2147" stroke-width="2"/>
<path d="M56.7071 76.2929C56.3166 75.9024 55.6834 75.9024 55.2929 76.2929L48.9289 82.6569C48.5384 83.0474 48.5384 83.6805 48.9289 84.0711C49.3195 84.4616 49.9526 84.4616 50.3431 84.0711L56 78.4142L61.6569 84.0711C62.0474 84.4616 62.6805 84.4616 63.0711 84.0711C63.4616 83.6805 63.4616 83.0474 63.0711 82.6569L56.7071 76.2929ZM55.2929 115.707C55.6834 116.098 56.3166 116.098 56.7071 115.707L63.0711 109.343C63.4616 108.953 63.4616 108.319 63.0711 107.929C62.6805 107.538 62.0474 107.538 61.6569 107.929L56 113.586L50.3431 107.929C49.9526 107.538 49.3195 107.538 48.9289 107.929C48.5384 108.319 48.5384 108.953 48.9289 109.343L55.2929 115.707ZM56 77H55V115H56H57V77H56Z" fill="#1F2147"/>
<path d="M56.7071 156.293C56.3166 155.902 55.6834 155.902 55.2929 156.293L48.9289 162.657C48.5384 163.047 48.5384 163.681 48.9289 164.071C49.3195 164.462 49.9526 164.462 50.3431 164.071L56 158.414L61.6569 164.071C62.0474 164.462 62.6805 164.462 63.0711 164.071C63.4616 163.681 63.4616 163.047 63.0711 162.657L56.7071 156.293ZM55.2929 195.707C55.6834 196.098 56.3166 196.098 56.7071 195.707L63.0711 189.343C63.4616 188.953 63.4616 188.319 63.0711 187.929C62.6805 187.538 62.0474 187.538 61.6569 187.929L56 193.586L50.3431 187.929C49.9526 187.538 49.3195 187.538 48.9289 187.929C48.5384 188.319 48.5384 188.953 48.9289 189.343L55.2929 195.707ZM56 157H55V195H56H57V157H56Z" fill="#1F2147"/>
<circle cx="56" cy="136" r="17" stroke="#1F2147" stroke-width="2"/>
<path d="M155.707 302.293C155.317 301.902 154.683 301.902 154.293 302.293L147.929 308.657C147.538 309.047 147.538 309.681 147.929 310.071C148.319 310.462 148.953 310.462 149.343 310.071L155 304.414L160.657 310.071C161.047 310.462 161.681 310.462 162.071 310.071C162.462 309.681 162.462 309.047 162.071 308.657L155.707 302.293ZM154.293 341.707C154.683 342.098 155.317 342.098 155.707 341.707L162.071 335.343C162.462 334.953 162.462 334.319 162.071 333.929C161.681 333.538 161.047 333.538 160.657 333.929L155 339.586L149.343 333.929C148.953 333.538 148.319 333.538 147.929 333.929C147.538 334.319 147.538 334.953 147.929 335.343L154.293 341.707ZM155 303H154V341H155H156V303H155Z" fill="#1F2147"/>
<path d="M155.707 382.293C155.317 381.902 154.683 381.902 154.293 382.293L147.929 388.657C147.538 389.047 147.538 389.681 147.929 390.071C148.319 390.462 148.953 390.462 149.343 390.071L155 384.414L160.657 390.071C161.047 390.462 161.681 390.462 162.071 390.071C162.462 389.681 162.462 389.047 162.071 388.657L155.707 382.293ZM154.293 421.707C154.683 422.098 155.317 422.098 155.707 421.707L162.071 415.343C162.462 414.953 162.462 414.319 162.071 413.929C161.681 413.538 161.047 413.538 160.657 413.929L155 419.586L149.343 413.929C148.953 413.538 148.319 413.538 147.929 413.929C147.538 414.319 147.538 414.953 147.929 415.343L154.293 421.707ZM155 383H154V421H155H156V383H155Z" fill="#1F2147"/>
<circle cx="155" cy="362" r="17" stroke="#1F2147" stroke-width="2"/>
<path d="M254.707 76.2929C254.317 75.9024 253.683 75.9024 253.293 76.2929L246.929 82.6569C246.538 83.0474 246.538 83.6805 246.929 84.0711C247.319 84.4616 247.953 84.4616 248.343 84.0711L254 78.4142L259.657 84.0711C260.047 84.4616 260.681 84.4616 261.071 84.0711C261.462 83.6805 261.462 83.0474 261.071 82.6569L254.707 76.2929ZM253.293 115.707C253.683 116.098 254.317 116.098 254.707 115.707L261.071 109.343C261.462 108.953 261.462 108.319 261.071 107.929C260.681 107.538 260.047 107.538 259.657 107.929L254 113.586L248.343 107.929C247.953 107.538 247.319 107.538 246.929 107.929C246.538 108.319 246.538 108.953 246.929 109.343L253.293 115.707ZM254 77H253V115H254H255V77H254Z" fill="#1F2147"/>
<path d="M254.707 156.293C254.317 155.902 253.683 155.902 253.293 156.293L246.929 162.657C246.538 163.047 246.538 163.681 246.929 164.071C247.319 164.462 247.953 164.462 248.343 164.071L254 158.414L259.657 164.071C260.047 164.462 260.681 164.462 261.071 164.071C261.462 163.681 261.462 163.047 261.071 162.657L254.707 156.293ZM253.293 195.707C253.683 196.098 254.317 196.098 254.707 195.707L261.071 189.343C261.462 188.953 261.462 188.319 261.071 187.929C260.681 187.538 260.047 187.538 259.657 187.929L254 193.586L248.343 187.929C247.953 187.538 247.319 187.538 246.929 187.929C246.538 188.319 246.538 188.953 246.929 189.343L253.293 195.707ZM254 157H253V195H254H255V157H254Z" fill="#1F2147"/>
<circle cx="254" cy="136" r="17" stroke="#1F2147" stroke-width="2"/>
<path d="M353.707 302.293C353.317 301.902 352.683 301.902 352.293 302.293L345.929 308.657C345.538 309.047 345.538 309.681 345.929 310.071C346.319 310.462 346.953 310.462 347.343 310.071L353 304.414L358.657 310.071C359.047 310.462 359.681 310.462 360.071 310.071C360.462 309.681 360.462 309.047 360.071 308.657L353.707 302.293ZM352.293 341.707C352.683 342.098 353.317 342.098 353.707 341.707L360.071 335.343C360.462 334.953 360.462 334.319 360.071 333.929C359.681 333.538 359.047 333.538 358.657 333.929L353 339.586L347.343 333.929C346.953 333.538 346.319 333.538 345.929 333.929C345.538 334.319 345.538 334.953 345.929 335.343L352.293 341.707ZM353 303H352V341H353H354V303H353Z" fill="#1F2147"/>
<path d="M353.707 382.293C353.317 381.902 352.683 381.902 352.293 382.293L345.929 388.657C345.538 389.047 345.538 389.681 345.929 390.071C346.319 390.462 346.953 390.462 347.343 390.071L353 384.414L358.657 390.071C359.047 390.462 359.681 390.462 360.071 390.071C360.462 389.681 360.462 389.047 360.071 388.657L353.707 382.293ZM352.293 421.707C352.683 422.098 353.317 422.098 353.707 421.707L360.071 415.343C360.462 414.953 360.462 414.319 360.071 413.929C359.681 413.538 359.047 413.538 358.657 413.929L353 419.586L347.343 413.929C346.953 413.538 346.319 413.538 345.929 413.929C345.538 414.319 345.538 414.953 345.929 415.343L352.293 421.707ZM353 383H352V421H353H354V383H353Z" fill="#1F2147"/>
<circle cx="353" cy="362" r="17" stroke="#1F2147" stroke-width="2"/>
<path d="M452.707 76.2929C452.317 75.9024 451.683 75.9024 451.293 76.2929L444.929 82.6569C444.538 83.0474 444.538 83.6805 444.929 84.0711C445.319 84.4616 445.953 84.4616 446.343 84.0711L452 78.4142L457.657 84.0711C458.047 84.4616 458.681 84.4616 459.071 84.0711C459.462 83.6805 459.462 83.0474 459.071 82.6569L452.707 76.2929ZM451.293 115.707C451.683 116.098 452.317 116.098 452.707 115.707L459.071 109.343C459.462 108.953 459.462 108.319 459.071 107.929C458.681 107.538 458.047 107.538 457.657 107.929L452 113.586L446.343 107.929C445.953 107.538 445.319 107.538 444.929 107.929C444.538 108.319 444.538 108.953 444.929 109.343L451.293 115.707ZM452 77H451V115H452H453V77H452Z" fill="#1F2147"/>
<path d="M452.707 156.293C452.317 155.902 451.683 155.902 451.293 156.293L444.929 162.657C444.538 163.047 444.538 163.681 444.929 164.071C445.319 164.462 445.953 164.462 446.343 164.071L452 158.414L457.657 164.071C458.047 164.462 458.681 164.462 459.071 164.071C459.462 163.681 459.462 163.047 459.071 162.657L452.707 156.293ZM451.293 195.707C451.683 196.098 452.317 196.098 452.707 195.707L459.071 189.343C459.462 188.953 459.462 188.319 459.071 187.929C458.681 187.538 458.047 187.538 457.657 187.929L452 193.586L446.343 187.929C445.953 187.538 445.319 187.538 444.929 187.929C444.538 188.319 444.538 188.953 444.929 189.343L451.293 195.707ZM452 157H451V195H452H453V157H452Z" fill="#1F2147"/>
<circle cx="452" cy="136" r="17" stroke="#1F2147" stroke-width="2"/>
</svg>
