<svg width="20" height="20" viewBox="0 0 20 20" fill="none" xmlns="http://www.w3.org/2000/svg">
<path d="M18 0C19.1046 2.57702e-07 20 0.895431 20 2V18C20 19.1046 19.1046 20 18 20H2C0.895431 20 1.61067e-08 19.1046 0 18V2C2.57706e-07 0.895431 0.895431 1.61064e-08 2 0H18ZM16.3545 4.45312C15.9145 4.11935 15.2869 4.20551 14.9531 4.64551L8.8584 12.6787L5.49512 8.91699L5.42383 8.84375C5.04955 8.50192 4.46901 8.49277 4.08301 8.83789C3.6973 9.183 3.64264 9.75998 3.94043 10.1699L4.00488 10.25L8.17676 14.917C8.37584 15.1396 8.66452 15.261 8.96289 15.249C9.26116 15.2369 9.53826 15.0923 9.71875 14.8545L16.5469 5.85449C16.8806 5.41449 16.7945 4.78691 16.3545 4.45312Z" fill="#1F2147"/>
</svg>
