<svg width="25" height="25" viewBox="0 0 25 25" fill="none" xmlns="http://www.w3.org/2000/svg">
<path d="M6.10227 12.3636C6.10227 11.1439 6.40152 10.0303 7 9.02273C7.59849 8.01515 8.39773 7.21591 9.39773 6.625C10.4053 6.02651 11.5189 5.72727 12.7386 5.72727C13.7992 5.72727 14.7803 5.95833 15.6818 6.42045C16.5833 6.875 17.3295 7.5 17.9205 8.29545C18.5114 9.09091 18.8712 9.98485 19 10.9773H16.0455C15.9091 10.2727 15.5227 9.69697 14.8864 9.25C14.2576 8.79545 13.5417 8.56818 12.7386 8.56818C12.0417 8.56818 11.4053 8.73864 10.8295 9.07955C10.2538 9.42045 9.79545 9.87879 9.45455 10.4545C9.11364 11.0227 8.94318 11.6591 8.94318 12.3636C8.94318 13.0606 9.11364 13.697 9.45455 14.2727C9.79545 14.8485 10.2538 15.3068 10.8295 15.6477C11.4053 15.9886 12.0417 16.1591 12.7386 16.1591C13.5417 16.1591 14.2273 15.9356 14.7955 15.4886C15.3636 15.0341 15.7197 14.4545 15.8636 13.75H18.8182C18.6894 14.7424 18.3447 15.6364 17.7841 16.4318C17.2235 17.2273 16.5076 17.8561 15.6364 18.3182C14.7652 18.7727 13.7992 19 12.7386 19C11.5189 19 10.4053 18.7045 9.39773 18.1136C8.39773 17.5152 7.59849 16.7121 7 15.7045C6.40152 14.697 6.10227 13.5833 6.10227 12.3636ZM12.6364 24.3636C10.9848 24.3636 9.43182 24.053 7.97727 23.4318C6.5303 22.8106 5.25379 21.9508 4.14773 20.8523C3.04924 19.7462 2.18561 18.4697 1.55682 17.0227C0.935606 15.5758 0.628788 14.0227 0.636364 12.3636C0.643939 10.7045 0.958333 9.15151 1.57955 7.70454C2.20833 6.25757 3.07197 4.98485 4.17045 3.88636C5.26894 2.7803 6.54167 1.91667 7.98864 1.29545C9.43561 0.674242 10.9848 0.363636 12.6364 0.363636C14.2955 0.363636 15.8485 0.674242 17.2955 1.29545C18.75 1.91667 20.0227 2.7803 21.1136 3.88636C22.2121 4.98485 23.072 6.25757 23.6932 7.70454C24.3144 9.15151 24.6288 10.7045 24.6364 12.3636C24.6439 14.0227 24.3371 15.5758 23.7159 17.0227C23.0947 18.4697 22.2348 19.7462 21.1364 20.8523C20.0379 21.9508 18.7614 22.8106 17.3068 23.4318C15.8523 24.053 14.2955 24.3636 12.6364 24.3636ZM12.6364 21.3409C13.8788 21.3409 15.0455 21.1098 16.1364 20.6477C17.2273 20.1856 18.1818 19.5455 19 18.7273C19.8258 17.9015 20.4697 16.947 20.9318 15.8636C21.3939 14.7727 21.6212 13.6098 21.6136 12.375C21.6136 11.1326 21.3788 9.96591 20.9091 8.875C20.447 7.78409 19.803 6.82955 18.9773 6.01136C18.1591 5.18561 17.2083 4.54167 16.125 4.07954C15.0417 3.61742 13.8788 3.38636 12.6364 3.38636C11.4015 3.38636 10.2424 3.61742 9.15909 4.07954C8.07576 4.54167 7.12121 5.18561 6.29545 6.01136C5.47727 6.83712 4.83333 7.79545 4.36364 8.88636C3.89394 9.9697 3.65909 11.1326 3.65909 12.375C3.65152 13.6023 3.87879 14.7614 4.34091 15.8523C4.81061 16.9356 5.45455 17.8902 6.27273 18.7159C7.09849 19.5341 8.05303 20.178 9.13636 20.6477C10.2273 21.1098 11.3939 21.3409 12.6364 21.3409Z" fill="#1F2147"/>
</svg>
