<svg width="25" height="25" viewBox="0 0 25 25" fill="none" xmlns="http://www.w3.org/2000/svg">
<path d="M0.632 24.128V0.703999H24.056V24.128H0.632ZM2.072 6.176H6.104V2.144H2.072V6.176ZM7.576 6.176H11.608V2.144H7.576V6.176ZM13.048 6.176H17.08V2.144H13.048V6.176ZM18.552 6.176H22.616V2.144H18.552V6.176ZM2.072 11.68H6.104V7.648H2.072V11.68ZM7.576 11.68H11.608V7.648H7.576V11.68ZM13.048 11.68H17.08V7.648H13.048V11.68ZM18.552 11.68H22.616V7.648H18.552V11.68ZM2.072 17.152H6.104V13.12H2.072V17.152ZM7.576 17.152H11.608V13.12H7.576V17.152ZM13.048 17.152H17.08V13.12H13.048V17.152ZM18.552 17.152H22.616V13.12H18.552V17.152ZM2.072 22.688H6.104V18.592H2.072V22.688ZM7.576 22.688H11.608V18.592H7.576V22.688ZM13.048 22.688H17.08V18.592H13.048V22.688ZM18.552 22.688H22.616V18.592H18.552V22.688Z" fill="#1F2147"/>
</svg>
