<svg width="72" height="93" viewBox="0 0 72 93" fill="none" xmlns="http://www.w3.org/2000/svg">
<path d="M51.6936 15.2212C50.268 15.3049 48.9784 15.3851 47.5946 15.4652C47.5946 13.827 47.5946 12.1331 47.5946 10.3834C33.0984 10.3834 18.7032 10.3834 4.23838 10.3834C4.23838 32.9904 4.23838 55.6218 4.23838 78.3194C18.6266 78.3194 33.0426 78.3194 47.5598 78.3194C47.5598 73.9939 47.5598 69.6858 47.5598 65.6008C49.0167 65.1651 50.3203 64.7712 51.6622 64.3704C51.6692 64.5098 51.6936 64.8096 51.6936 65.1128C51.6971 73.1748 51.6483 81.2368 51.725 89.2988C51.7459 91.418 50.3029 92.8854 48.1279 92.8749C33.2866 92.8122 18.4418 92.8157 3.60053 92.8714C1.48483 92.8819 0 91.4145 0 89.2395C0.0209131 60.7071 0.0174275 32.1713 0.00348551 3.63541C0 1.33846 1.443 -0.00694406 3.66327 2.69567e-05C18.5046 0.0557951 33.3493 0.027911 48.1906 0.027911C50.5956 0.027911 51.6901 1.11888 51.6936 3.52736C51.6971 7.12441 51.6936 10.718 51.6936 14.315C51.6936 14.6043 51.6936 14.8901 51.6936 15.2212ZM29.9893 85.6076C29.9684 83.3176 28.0862 81.4843 25.7963 81.5261C23.5795 81.5644 21.7182 83.478 21.7426 85.6913C21.767 87.9255 23.6352 89.7624 25.8764 89.7554C28.2013 89.7449 30.0102 87.922 29.9893 85.6076ZM25.7823 6.16938C26.6781 6.16938 27.5739 6.15544 28.4696 6.17286C29.1319 6.18681 29.5188 5.90099 29.5745 5.23526C29.6303 4.5521 29.2434 4.16172 28.6125 4.15127C26.7652 4.11293 24.9179 4.11293 23.0706 4.1443C22.4397 4.15475 22.0493 4.53816 22.0877 5.21783C22.126 5.89402 22.5338 6.17286 23.1821 6.16938C24.0465 6.16589 24.9144 6.16589 25.7823 6.16938Z" fill="white"/>
<path d="M59.2257 42.5198C56.0958 42.5198 52.9693 42.5232 49.8393 42.5163C47.9188 42.5128 46.6465 41.3138 46.6396 39.3933C46.6152 33.0461 46.6152 26.699 46.6396 20.3554C46.6465 18.5987 47.9083 17.3265 49.6685 17.3195C56.0714 17.2916 62.4742 17.2882 68.8736 17.323C70.8255 17.3335 71.9862 18.6963 71.9897 20.8469C72.0001 25.8033 71.9932 30.7562 71.9932 35.7126C71.9932 36.8732 72.0106 38.0304 71.9897 39.1911C71.9513 41.2998 70.7035 42.5198 68.6087 42.5232C65.4857 42.5232 62.3557 42.5198 59.2257 42.5198Z" fill="white"/>
<path d="M41.0453 65.3917C41.0453 67.3575 41.1046 69.1839 41.0279 71.0033C40.9652 72.4359 39.6337 73.6523 38.1733 73.6558C31.6205 73.6767 25.0712 73.6802 18.5185 73.6523C16.8907 73.6454 15.6673 72.2721 15.6569 70.5398C15.6394 66.7998 15.6499 63.0599 15.6499 59.3164C15.6499 56.7371 15.6429 54.1544 15.6534 51.5751C15.6604 49.5709 16.8907 48.3162 18.8949 48.2848C20.5401 48.2604 22.1817 48.2813 23.9384 48.2813C23.9384 48.7135 23.9384 49.0551 23.9384 49.3932C23.9384 52.8717 23.9315 56.3537 23.9419 59.8323C23.9524 63.384 25.9635 65.3882 29.4874 65.3882C32.9938 65.3882 36.5037 65.3882 40.0101 65.3882C40.3238 65.3917 40.641 65.3917 41.0453 65.3917Z" fill="white"/>
<path d="M44.5762 27.6645C44.5762 28.0688 44.5762 28.3825 44.5762 28.6962C44.5762 32.1748 44.5692 35.6533 44.5797 39.1353C44.5867 42.6069 46.6117 44.6598 50.0763 44.6773C53.9243 44.6947 57.7758 44.6808 61.6552 44.6808C61.6552 46.779 61.7842 48.7449 61.6099 50.6863C61.4914 52.0456 60.3307 52.8752 58.9574 53.0181C58.6995 53.046 58.4381 53.0599 58.1767 53.0599C52.0596 53.0634 45.946 53.0669 39.8289 53.053C39.3131 53.053 38.7728 53.0076 38.2918 52.8438C37.058 52.4221 36.3434 51.3555 36.3399 49.9543C36.3295 43.548 36.326 37.1381 36.3399 30.7318C36.3434 28.9995 37.4379 27.7726 39.1388 27.6854C40.9025 27.5948 42.6696 27.6645 44.5762 27.6645Z" fill="white"/>
<path d="M51.2962 55.0188C51.2962 56.9184 51.3694 58.7134 51.2718 60.498C51.1882 62.0421 49.7521 63.2342 48.1035 63.2481C45.1791 63.276 42.2513 63.2586 39.327 63.2586C36.0262 63.2586 32.7219 63.2655 29.4212 63.2551C27.0789 63.2481 25.9008 62.07 25.9008 59.7312C25.8938 53.5863 25.8938 47.4448 25.9008 41.2998C25.9043 39.0133 27.0894 37.8422 29.3933 37.8352C30.8711 37.8318 32.349 37.8387 33.8234 37.8457C33.8791 37.8457 33.9314 37.8736 34.0883 37.9154C34.1057 38.1838 34.1371 38.4905 34.1371 38.7938C34.1405 41.258 34.2416 43.7258 34.1196 46.183C33.7432 53.7745 35.6881 55.343 43.0181 55.0327C45.7368 54.9212 48.4625 55.0188 51.2962 55.0188Z" fill="white"/>
<path d="M22.7848 85.6425C22.7813 83.9415 24.1685 82.5508 25.8764 82.5473C27.5669 82.5439 28.9995 83.9659 28.9925 85.639C28.9855 87.2946 27.5181 88.7759 25.8834 88.7794C24.2487 88.7794 22.7918 87.3051 22.7848 85.6425Z" fill="white"/>
</svg>
