<svg width="98" height="98" viewBox="0 0 98 98" fill="none" xmlns="http://www.w3.org/2000/svg">
<path d="M55.2391 57.7978C50.4307 59.6926 49.1709 63.6962 49.704 66.8815C50.3051 70.4538 53.6261 73.6289 57.3886 74.1314C60.669 74.5695 64.2175 72.858 65.9052 68.5692C66.1056 68.7423 66.2958 68.8884 66.4621 69.0548C67.3994 69.9954 68.3366 70.936 69.2671 71.8868C71.1517 73.819 71.1483 76.1655 69.2365 78.1011C67.7084 79.6496 66.1565 81.1743 64.625 82.7193C64.3296 83.0182 64.0308 83.3306 63.8066 83.6837C62.7404 85.3613 63.6369 87.2086 65.6166 87.4089C66.761 87.5244 67.8544 87.7587 68.7441 88.5431C70.9853 90.5194 70.5167 93.4975 68.4962 95.3958C67.216 96.6013 65.637 97.1616 63.8881 96.5469C62.1156 95.9255 61.2327 94.5468 61.0085 92.7131C60.8591 91.494 60.5773 90.2987 59.2291 89.898C57.9421 89.5143 57.0389 90.3021 56.1967 91.1477C54.6822 92.6724 53.1643 94.1869 51.6362 95.698C49.6259 97.6879 47.4119 97.6675 45.3982 95.6572C43.9176 94.1801 42.4404 92.6995 40.9497 91.2326C40.6101 90.8964 40.2502 90.567 39.8495 90.3123C38.1957 89.2494 36.396 90.1731 36.1141 92.1256C35.9783 93.0561 35.7813 94.0544 35.3093 94.8422C33.8695 97.2532 30.7386 97.5045 28.511 95.4467C27.1255 94.1699 26.4803 92.5807 27.0338 90.7096C27.5907 88.8249 29.0237 87.8911 30.8948 87.616C32.0867 87.4395 33.2311 87.2221 33.6658 85.9148C34.1038 84.5938 33.3635 83.6328 32.5112 82.7635C30.9865 81.2116 29.4312 79.6869 27.8963 78.1452C25.8793 76.118 25.886 73.8734 27.9133 71.8427C29.3701 70.3825 30.8337 68.9291 32.2905 67.4689C32.5689 67.1905 32.8576 66.9086 33.0851 66.5928C34.3789 64.8066 33.5775 62.9458 31.3974 62.6164C30.8133 62.5281 30.2123 62.4602 29.6621 62.2598C28.0695 61.6859 27.0712 60.5314 26.864 58.8471C26.6433 57.0167 27.4141 55.5022 28.8268 54.402C31.737 52.137 35.3331 53.5768 36.0122 57.2171C36.1209 57.7944 36.1922 58.3988 36.4129 58.9353C36.9359 60.1918 38.318 60.6808 39.5099 60.0322C40.0227 59.7537 40.4913 59.3666 40.9123 58.9557C42.5084 57.3937 44.067 55.7976 45.6494 54.222C47.4492 52.429 49.8466 52.463 51.6498 54.2763C52.8077 55.4411 53.9895 56.5719 55.2391 57.7978Z" fill="#2065AB"/>
<path d="M39.3944 55.2781C36.8102 50.7244 33.9442 49.0333 30.2326 49.8041C26.5482 50.5682 23.4377 53.8621 23.0811 57.3767C22.6804 61.343 24.5209 64.2871 28.5449 66.0087C28.4023 66.1887 28.2835 66.3687 28.1374 66.5181C27.1663 67.5029 26.1917 68.4911 25.2069 69.4622C23.3969 71.245 21.0029 71.2552 19.1828 69.4656C17.6513 67.9579 16.1639 66.4094 14.6426 64.8983C14.2657 64.5214 13.8582 64.1581 13.41 63.8762C11.9226 62.9424 10.2791 63.6113 9.84441 65.3126C9.72556 65.7744 9.73235 66.2634 9.62708 66.7286C9.23657 68.4299 8.245 69.6524 6.54033 70.1007C4.66586 70.593 3.06305 69.9003 1.80662 68.5318C0.539994 67.1531 0.0340234 65.4858 0.757323 63.6792C1.47383 61.8965 2.96118 61.1324 4.81527 60.9626C5.85438 60.8675 6.74068 60.4668 7.16515 59.4311C7.6066 58.3479 7.2059 57.4174 6.46222 56.65C4.85263 54.9861 3.19549 53.3629 1.55873 51.7227C-0.533071 49.6241 -0.519488 47.3693 1.59947 45.3013C3.09701 43.8411 4.59115 42.381 6.08529 40.9174C6.32639 40.6797 6.57089 40.4386 6.77124 40.1703C8.10578 38.3502 7.33154 36.4791 5.10391 36.109C4.5504 36.0173 3.97312 35.9867 3.44678 35.8033C1.89491 35.2634 0.845613 34.1971 0.560368 32.5536C0.244561 30.7301 0.937299 29.202 2.31259 28.0338C3.64713 26.903 5.21597 26.4921 6.89349 27.1407C8.61175 27.8029 9.42334 29.202 9.6916 30.9746C9.76971 31.5009 9.8512 32.0476 10.0617 32.523C10.5881 33.7081 11.8887 34.1802 13.0398 33.5893C13.5798 33.3108 14.0789 32.9067 14.517 32.4789C16.1368 30.9032 17.7192 29.2902 19.322 27.6942C20.9011 26.1254 23.3596 26.105 24.9454 27.6705C26.555 29.2563 28.1408 30.8693 29.7504 32.4551C30.09 32.7913 30.4534 33.1173 30.8541 33.372C32.3652 34.3262 33.951 33.7149 34.44 32.0035C34.5181 31.7352 34.5724 31.4534 34.5928 31.1715C34.7252 29.202 35.6829 27.7723 37.5302 27.1136C39.4182 26.4412 41.0584 27.1645 42.3691 28.5194C43.6901 29.8879 44.2504 31.5688 43.5407 33.4229C42.8411 35.2532 41.3232 36.041 39.4454 36.2108C38.3282 36.3127 37.4045 36.7066 36.9834 37.8238C36.5556 38.958 37.0615 39.8749 37.8222 40.6525C39.4827 42.347 41.1806 44.0075 42.8581 45.685C44.7598 47.5867 44.7564 49.889 42.8547 51.8008C41.7205 52.9316 40.5897 54.076 39.3944 55.2781Z" fill="#2065AB"/>
<path d="M42.1348 39.2195C46.4542 37.5997 47.9144 33.8066 47.636 30.9236C47.2658 27.1102 44.3556 23.9079 40.5218 23.0352C36.8612 22.1999 34.0359 23.8468 31.3295 28.3972C29.9644 27.0592 28.5042 25.8028 27.2579 24.3596C26.0355 22.9469 26.3648 20.6446 27.8216 19.2048C29.4278 17.6156 31.0748 16.0671 32.6946 14.4915C33.0138 14.1791 33.3296 13.8395 33.5605 13.4591C34.603 11.7613 33.6929 9.95471 31.703 9.76115C30.4669 9.6389 29.3056 9.35026 28.3921 8.44359C26.2901 6.3484 26.915 2.80321 29.6689 1.13928C32.5859 -0.619729 35.8255 0.921952 36.3246 4.30754C36.3654 4.58599 36.4129 4.86444 36.4707 5.1429C36.6608 6.06994 37.0581 6.85437 38.0056 7.21432C38.9971 7.59125 39.8664 7.25507 40.5694 6.57931C42.3623 4.85765 44.1078 3.08846 45.8702 1.33284C47.6529 -0.443148 50.0028 -0.446544 51.789 1.33624C53.2899 2.83038 54.7875 4.33131 56.2918 5.82205C56.5906 6.12088 56.8962 6.42311 57.2324 6.67439C57.9897 7.23809 58.8081 7.57427 59.7555 7.1498C60.7403 6.70835 61.1511 5.88657 61.236 4.86445C61.45 2.35836 62.8388 0.69104 64.9748 0.38542C66.9511 0.103571 69.0701 1.34642 70.0345 3.35672C70.8902 5.14629 70.5608 7.05132 69.1278 8.39605C68.34 9.13293 67.3858 9.54382 66.3025 9.58457C65.1446 9.62871 64.153 10.0022 63.7048 11.1263C63.2395 12.291 63.7421 13.2622 64.5775 14.0976C66.2108 15.7377 67.8408 17.3881 69.4674 19.0384C71.3486 20.9468 71.3452 23.1711 69.4572 25.0761C67.9461 26.6008 66.418 28.1119 64.9035 29.6298C64.6454 29.8879 64.3805 30.1528 64.1666 30.4448C62.8932 32.1902 63.6368 34.0341 65.7694 34.428C66.1565 34.4994 66.5606 34.496 66.9409 34.5877C68.6286 35.0019 69.8443 35.9629 70.2688 37.7084C70.7102 39.5285 70.065 41.0668 68.778 42.313C67.4469 43.6034 65.8169 44.0822 64.024 43.4235C62.2548 42.7749 61.4058 41.3758 61.2021 39.5455C61.1681 39.2365 61.1138 38.9274 61.0425 38.6286C60.6452 37.0258 59.039 36.3093 57.6093 37.1243C57.1747 37.3722 56.7774 37.7084 56.4174 38.0615C54.8248 39.6236 53.256 41.2128 51.6667 42.7816C49.8025 44.6222 47.5545 44.6595 45.6698 42.8496C44.5288 41.7561 43.4286 40.6151 42.3148 39.4911C42.2605 39.4368 42.2265 39.3553 42.1348 39.2195Z" fill="#2065AB"/>
<path d="M57.9082 41.875C59.8234 46.6427 63.7931 47.8889 66.924 47.3218C70.7646 46.6291 73.9294 43.1756 74.269 39.3621C74.5475 36.2414 72.7104 32.4721 68.503 31.1783C70.0107 29.7555 71.3554 28.2681 72.9277 27.0728C74.3539 25.9896 76.5204 26.3835 77.8244 27.6671C79.4136 29.2325 80.9791 30.8251 82.5717 32.3906C82.9724 32.7845 83.4003 33.1682 83.8791 33.4535C85.2136 34.2447 86.6262 33.7421 87.1967 32.2955C87.3393 31.9322 87.431 31.5349 87.4616 31.1477C87.6178 29.1374 88.623 27.752 90.5144 27.0898C92.1546 26.5193 94.243 27.2766 95.5028 28.7979C96.6675 30.2037 97.1395 31.7861 96.4196 33.518C95.6997 35.2566 94.2328 36.0207 92.4228 36.2006C91.3192 36.3093 90.3514 36.71 89.9337 37.8068C89.5126 38.9173 90.0084 39.8477 90.7895 40.6321C92.3821 42.2349 93.9917 43.8242 95.5843 45.4236C97.6795 47.529 97.6761 49.7362 95.5707 51.8518C94.1173 53.3119 92.6503 54.7653 91.1969 56.2289C90.8811 56.5481 90.5619 56.8809 90.3141 57.2544C89.2478 58.8708 89.9609 60.5891 91.8557 61C92.3515 61.1053 92.8643 61.129 93.3533 61.2479C95.0783 61.6757 96.277 62.6843 96.6709 64.4739C97.0784 66.3178 96.3551 67.8255 95.0512 69.0276C93.7166 70.2603 92.1036 70.6949 90.348 70.026C88.6162 69.3672 87.8114 67.9647 87.5567 66.1955C87.5091 65.8627 87.4956 65.5164 87.4073 65.1938C86.9353 63.4857 85.3324 62.8507 83.8349 63.7879C83.4104 64.0562 83.0199 64.3958 82.66 64.7489C81.1285 66.2532 79.6208 67.7847 78.0961 69.2925C76.2352 71.133 73.9838 71.1364 72.1127 69.2925C70.6016 67.8051 69.1176 66.294 67.6065 64.8066C67.2262 64.4331 66.8187 64.0698 66.3705 63.7879C64.7778 62.7828 62.9917 63.6453 62.7268 65.5164C62.6555 66.0189 62.6181 66.5317 62.4823 67.0173C61.562 70.2772 57.9387 71.2654 55.2459 69.0072C53.728 67.7338 53.0726 65.7133 53.6159 63.9951C54.1593 62.2802 55.7349 61.1426 57.8063 60.9524C58.8794 60.854 59.7962 60.4668 60.2207 59.3938C60.6486 58.3105 60.2377 57.3835 59.494 56.616C57.8403 54.9148 56.1424 53.2576 54.4649 51.5767C52.4444 49.5528 52.4512 47.3014 54.4818 45.2775C55.616 44.1705 56.7299 43.0533 57.9082 41.875Z" fill="#2065AB"/>
</svg>
