<svg width="295" height="31" viewBox="0 0 295 31" fill="none" xmlns="http://www.w3.org/2000/svg">
<path d="M54.8428 24.4795H59.3249V6.72355H68.0017V24.4795H72.4838V3.03444H54.8428V24.4795Z" fill="white"/>
<path d="M88.5619 9.10248C87.5735 8.49337 86.4932 8.18307 85.3095 8.18307C84.4131 8.18307 83.6546 8.33248 83.0569 8.64278C82.4478 8.94158 81.9652 9.32084 81.5859 9.76905C81.2066 10.2173 80.9308 10.6655 80.7355 11.0907H80.5401V8.40143H76.1384V30.5246H80.5975V21.9167H80.7355C80.9423 22.3649 81.2296 22.8016 81.6204 23.2383C81.9996 23.675 82.4938 24.0313 83.1029 24.3186C83.712 24.6059 84.4361 24.7438 85.3095 24.7438C86.5277 24.7438 87.631 24.4335 88.6193 23.7899C89.6077 23.1579 90.3892 22.227 90.9638 20.9973C91.5384 19.7676 91.8258 18.2505 91.8258 16.4577C91.8258 14.6189 91.5269 13.0789 90.9408 11.8492C90.3547 10.6195 89.5502 9.71158 88.5619 9.10248ZM86.8725 18.9171C86.6081 19.6296 86.2289 20.1928 85.7232 20.595C85.2175 20.9973 84.6084 21.1926 83.8844 21.1926C83.1604 21.1926 82.5513 20.9973 82.0456 20.6065C81.5399 20.2158 81.1607 19.6641 80.8964 18.9516C80.632 18.239 80.4941 17.4001 80.4941 16.4462C80.4941 15.4923 80.632 14.6534 80.8964 13.9523C81.1607 13.2513 81.5399 12.6996 82.0456 12.3204C82.5513 11.9411 83.1604 11.7458 83.8844 11.7458C84.6199 11.7458 85.2405 11.9411 85.7347 12.3434C86.2404 12.7456 86.6196 13.2973 86.8725 13.9983C87.1253 14.6993 87.2632 15.5153 87.2632 16.4462C87.2747 17.3771 87.1368 18.2046 86.8725 18.9171Z" fill="white"/>
<path d="M105.686 9.2289C104.502 8.53934 103.1 8.18307 101.468 8.18307C99.8361 8.18307 98.434 8.52785 97.2502 9.2289C96.0665 9.92994 95.1586 10.8953 94.515 12.1365C93.8714 13.3777 93.5496 14.8373 93.5496 16.5037C93.5496 18.1471 93.8714 19.5952 94.515 20.8479C95.1586 22.1005 96.0665 23.0659 97.2502 23.7555C98.434 24.445 99.8361 24.8013 101.468 24.8013C103.1 24.8013 104.502 24.4565 105.686 23.7555C106.869 23.0544 107.777 22.089 108.421 20.8479C109.065 19.6067 109.386 18.1586 109.386 16.5037C109.386 14.8373 109.065 13.3892 108.421 12.1365C107.777 10.8953 106.869 9.91845 105.686 9.2289ZM104.468 18.9746C104.215 19.7101 103.835 20.2847 103.341 20.7099C102.847 21.1352 102.226 21.342 101.491 21.342C100.744 21.342 100.112 21.1352 99.6062 20.7099C99.1005 20.2847 98.7213 19.7101 98.4684 18.9746C98.2156 18.239 98.0892 17.4116 98.0892 16.4692C98.0892 15.5383 98.2156 14.6993 98.4684 13.9638C98.7213 13.2283 99.1005 12.6537 99.6062 12.2284C100.112 11.8032 100.744 11.5849 101.491 11.5849C102.226 11.5849 102.847 11.8032 103.341 12.2284C103.835 12.6537 104.215 13.2398 104.468 13.9638C104.72 14.6993 104.847 15.5268 104.847 16.4692C104.847 17.4116 104.72 18.239 104.468 18.9746Z" fill="white"/>
<path d="M116.5 16.5267H116.316V3.03444H111.788V24.4795H115.719L125.039 10.9873H125.2V24.4795H129.728V3.03444H125.763L116.5 16.5267Z" fill="white"/>
<path d="M142.565 14.6648H137.06V8.40137H132.797V24.4794H137.06V18.17H142.565V24.4794H146.795V8.40137H142.565V14.6648Z" fill="white"/>
<path d="M167.826 10.4931C167.09 9.75758 166.205 9.18295 165.183 8.78071C164.16 8.37847 163.034 8.1831 161.804 8.1831V3.03444H157.356V8.1831C156.115 8.1831 154.989 8.37847 153.977 8.78071C152.955 9.18295 152.081 9.74608 151.334 10.4931C150.599 11.2286 150.024 12.1021 149.622 13.1249C149.219 14.1362 149.013 15.2625 149.013 16.5037C149.013 17.7219 149.219 18.8482 149.622 19.8595C150.024 20.8709 150.599 21.7558 151.334 22.4913C152.07 23.2268 152.955 23.8015 153.977 24.2037C155 24.6059 156.127 24.8013 157.356 24.8013V29.95H161.804V24.8013C163.045 24.8013 164.171 24.6059 165.183 24.2037C166.205 23.8015 167.079 23.2383 167.826 22.4913C168.561 21.7558 169.136 20.8824 169.538 19.8595C169.941 18.8482 170.147 17.7219 170.147 16.5037C170.147 15.2625 169.941 14.1362 169.538 13.1249C169.148 12.1135 168.573 11.2286 167.826 10.4931ZM155.322 20.6755C154.759 20.2503 154.322 19.6641 154.035 18.9401C153.736 18.2161 153.598 17.4001 153.598 16.5037C153.598 15.8256 153.679 15.1935 153.839 14.6074C154 14.0213 154.242 13.5041 154.564 13.0789C154.885 12.6422 155.276 12.2974 155.747 12.0446C156.218 11.7918 156.747 11.6653 157.345 11.6653V21.3191C156.563 21.3191 155.885 21.1122 155.322 20.6755ZM165.332 18.3885C165.16 18.9746 164.918 19.4803 164.597 19.917C164.275 20.3537 163.884 20.6985 163.413 20.9513C162.942 21.2041 162.413 21.3191 161.815 21.3191V11.6653C162.62 11.6653 163.298 11.8837 163.861 12.3089C164.424 12.7456 164.849 13.3203 165.148 14.0558C165.447 14.7913 165.596 15.5958 165.596 16.5037C165.573 17.1703 165.493 17.8024 165.332 18.3885Z" fill="white"/>
<path d="M183.961 9.2289C182.778 8.53934 181.376 8.18307 179.744 8.18307C178.112 8.18307 176.71 8.52785 175.526 9.2289C174.342 9.92994 173.434 10.8953 172.791 12.1365C172.147 13.3777 171.825 14.8373 171.825 16.5037C171.825 18.1471 172.147 19.5952 172.791 20.8479C173.434 22.1005 174.342 23.0659 175.526 23.7555C176.71 24.445 178.112 24.8013 179.744 24.8013C181.376 24.8013 182.778 24.4565 183.961 23.7555C185.145 23.0544 186.053 22.089 186.697 20.8479C187.34 19.6067 187.662 18.1586 187.662 16.5037C187.662 14.8373 187.34 13.3892 186.697 12.1365C186.053 10.8953 185.145 9.91845 183.961 9.2289ZM182.743 18.9746C182.49 19.7101 182.111 20.2847 181.617 20.7099C181.123 21.1352 180.502 21.342 179.767 21.342C179.02 21.342 178.388 21.1352 177.882 20.7099C177.376 20.2847 176.997 19.7101 176.744 18.9746C176.491 18.239 176.365 17.4116 176.365 16.4692C176.365 15.5383 176.491 14.6993 176.744 13.9638C176.997 13.2283 177.376 12.6537 177.882 12.2284C178.388 11.8032 179.02 11.5849 179.767 11.5849C180.502 11.5849 181.123 11.8032 181.617 12.2284C182.111 12.6537 182.49 13.2398 182.743 13.9638C182.996 14.6993 183.122 15.5268 183.122 16.4692C183.134 17.4116 182.996 18.239 182.743 18.9746Z" fill="white"/>
<path d="M196.891 7.57397C197.718 7.02233 198.683 6.74651 199.787 6.74651C200.396 6.74651 200.97 6.83845 201.499 7.01084C202.028 7.18323 202.487 7.43606 202.901 7.76935C203.303 8.10263 203.637 8.49337 203.901 8.95308C204.154 9.41278 204.326 9.94143 204.418 10.539H209.004C208.854 9.29785 208.521 8.19457 208.004 7.2292C207.487 6.26382 206.809 5.44785 205.993 4.78129C205.165 4.11472 204.223 3.60905 203.154 3.25278C202.085 2.908 200.936 2.72412 199.695 2.72412C197.81 2.72412 196.109 3.16084 194.604 4.02278C193.098 4.88472 191.903 6.1374 191.018 7.78084C190.133 9.42427 189.696 11.4125 189.696 13.7455C189.696 16.0784 190.133 18.0667 190.995 19.7101C191.857 21.3535 193.052 22.6062 194.558 23.4681C196.063 24.3301 197.775 24.7668 199.683 24.7668C201.062 24.7668 202.292 24.5599 203.384 24.1462C204.476 23.7325 205.418 23.1693 206.211 22.4453C207.004 21.7328 207.636 20.9168 208.107 20.0089C208.578 19.101 208.877 18.1471 208.992 17.1702L204.407 17.1473C204.303 17.7219 204.119 18.2276 203.844 18.6758C203.579 19.124 203.234 19.5032 202.832 19.8135C202.43 20.1238 201.97 20.3652 201.442 20.5261C200.913 20.687 200.361 20.7674 199.752 20.7674C198.672 20.7674 197.718 20.5031 196.891 19.9744C196.063 19.4458 195.431 18.6528 194.971 17.6184C194.512 16.5726 194.282 15.297 194.282 13.7684C194.282 12.2859 194.512 11.0102 194.96 9.97591C195.419 8.9186 196.063 8.12561 196.891 7.57397Z" fill="white"/>
<path d="M224.116 10.2173C223.427 9.53919 222.622 9.03352 221.703 8.68875C220.784 8.35546 219.795 8.18307 218.738 8.18307C217.163 8.18307 215.784 8.52785 214.612 9.2289C213.44 9.92994 212.532 10.9068 211.9 12.148C211.268 13.3892 210.934 14.8487 210.934 16.5037C210.934 18.2046 211.256 19.6641 211.9 20.9053C212.543 22.1465 213.463 23.1004 214.646 23.7784C215.842 24.4565 217.255 24.7898 218.91 24.7898C220.232 24.7898 221.404 24.5829 222.427 24.1807C223.438 23.767 224.277 23.2038 224.921 22.4683C225.564 21.7328 225.99 20.8708 226.208 19.871L222.082 19.5952C221.933 19.9974 221.703 20.3422 221.416 20.618C221.128 20.8938 220.772 21.1122 220.358 21.2501C219.945 21.388 219.496 21.457 219.002 21.457C218.255 21.457 217.612 21.2961 217.06 20.9858C216.52 20.6755 216.095 20.2273 215.796 19.6411C215.497 19.055 215.348 18.377 215.348 17.5725V17.584H226.3V16.3543C226.3 14.9867 226.105 13.7914 225.725 12.7686C225.346 11.7458 224.794 10.8953 224.116 10.2173ZM215.359 14.8143C215.382 14.2396 215.52 13.711 215.796 13.2283C216.095 12.7111 216.497 12.2974 217.014 11.9871C217.531 11.6768 218.129 11.5159 218.807 11.5159C219.45 11.5159 220.025 11.6538 220.519 11.9411C221.013 12.2284 221.393 12.6077 221.68 13.1134C221.956 13.6076 222.094 14.1822 222.094 14.8258H215.359V14.8143Z" fill="white"/>
<path d="M241.034 9.10251C240.045 8.4934 238.965 8.18311 237.781 8.18311C236.885 8.18311 236.126 8.33251 235.529 8.64281C234.92 8.94161 234.437 9.32087 234.058 9.76908C233.679 10.2173 233.403 10.6655 233.207 11.0907H233.012V8.40146H228.61V30.5246H233.069V21.9167H233.207C233.414 22.3649 233.702 22.8016 234.092 23.2383C234.472 23.675 234.966 24.0313 235.575 24.3186C236.184 24.6059 236.908 24.7439 237.781 24.7439C239 24.7439 240.103 24.4336 241.091 23.79C242.08 23.1579 242.861 22.227 243.436 20.9973C244.01 19.7676 244.298 18.2506 244.298 16.4577C244.298 14.6189 243.999 13.0789 243.413 11.8492C242.827 10.6195 242.034 9.71161 241.034 9.10251ZM239.356 18.9171C239.092 19.6297 238.712 20.1928 238.207 20.595C237.701 20.9973 237.092 21.1927 236.368 21.1927C235.644 21.1927 235.035 20.9973 234.529 20.6065C234.023 20.2158 233.644 19.6642 233.38 18.9516C233.115 18.2391 232.978 17.4001 232.978 16.4462C232.978 15.4924 233.115 14.6534 233.38 13.9524C233.644 13.2513 234.023 12.6997 234.529 12.3204C235.035 11.9412 235.644 11.7458 236.368 11.7458C237.103 11.7458 237.724 11.9412 238.218 12.3434C238.724 12.7456 239.103 13.2973 239.356 13.9983C239.609 14.6994 239.747 15.5153 239.747 16.4462C239.747 17.3771 239.62 18.2046 239.356 18.9171Z" fill="white"/>
<path d="M258.766 16.7452C258.088 16.3775 257.261 16.1591 256.295 16.0901C257.445 15.8833 258.353 15.4925 258.996 14.9179C259.64 14.3433 259.973 13.6078 259.973 12.7343C259.973 11.3437 259.398 10.2749 258.249 9.51641C257.1 8.75791 255.525 8.39014 253.549 8.39014H246.688V24.4797H254.606C255.951 24.4797 257.088 24.3073 258.019 23.951C258.95 23.5948 259.663 23.1006 260.145 22.4455C260.628 21.7904 260.869 21.009 260.869 20.0895C260.869 19.3885 260.686 18.7449 260.329 18.1588C259.962 17.5842 259.444 17.113 258.766 16.7452ZM250.836 11.8149H253.537C254.227 11.8149 254.778 11.9528 255.169 12.2287C255.571 12.5045 255.767 12.8952 255.767 13.3894C255.767 13.7227 255.686 14.01 255.514 14.2628C255.342 14.5042 255.1 14.6995 254.778 14.826C254.457 14.9524 254.077 15.0213 253.629 15.0213H250.836V11.8149ZM256.054 20.6987C255.698 20.9975 255.215 21.1469 254.595 21.1469H250.836V17.6416H254.595C255.215 17.6416 255.698 17.8025 256.054 18.1358C256.41 18.4691 256.583 18.9173 256.583 19.4919C256.594 19.9976 256.41 20.3998 256.054 20.6987Z" fill="white"/>
<path d="M267.352 18.5952V8.40137H263.088V24.4794H267.524L273.293 14.2511V24.4794H277.546V8.40137H273.144L267.352 18.5952Z" fill="white"/>
<path d="M290.233 20.0436C289.969 20.4459 289.624 20.7562 289.222 20.963C288.819 21.1699 288.36 21.2733 287.842 21.2733C287.153 21.2733 286.544 21.0895 286.027 20.7102C285.509 20.331 285.107 19.7793 284.831 19.0668C284.544 18.3427 284.406 17.4693 284.406 16.4465C284.406 15.4351 284.544 14.5732 284.831 13.8607C285.119 13.1481 285.521 12.608 286.027 12.2287C286.544 11.861 287.141 11.6656 287.831 11.6656C288.647 11.6656 289.314 11.9069 289.819 12.4011C290.325 12.8953 290.635 13.5389 290.762 14.3433H294.968C294.91 13.1021 294.566 12.0219 293.957 11.091C293.336 10.1716 292.508 9.45902 291.451 8.94185C290.394 8.43618 289.164 8.17185 287.762 8.17185C286.13 8.17185 284.728 8.52812 283.556 9.22917C282.372 9.93021 281.464 10.9071 280.832 12.1483C280.188 13.3895 279.878 14.8375 279.878 16.4924C279.878 18.1244 280.188 19.561 280.821 20.8022C281.453 22.0548 282.361 23.0317 283.544 23.7327C284.728 24.4338 286.142 24.7901 287.797 24.7901C289.233 24.7901 290.463 24.5257 291.52 24.0086C292.577 23.4914 293.393 22.7559 293.991 21.825C294.589 20.8941 294.922 19.8138 294.991 18.5841H290.762C290.681 19.1587 290.509 19.6414 290.233 20.0436Z" fill="white"/>
<path d="M35.2703 5.03373L30.2366 0L24.8926 5.34403L29.9263 10.1939L35.2703 5.03373Z" fill="white"/>
<path d="M40.419 10.1821L24.8926 25.4557L30.2366 30.7997L45.6366 15.3997L40.419 10.1821Z" fill="#004F9F"/>
<path d="M15.4 30.8L0 15.4L15.4 0L20.744 5.34403L10.3088 15.4L20.744 25.456L15.4 30.8Z" fill="#004F9F"/>
</svg>
