<svg width="84" height="66" viewBox="0 0 84 66" fill="none" xmlns="http://www.w3.org/2000/svg">
<circle cx="9.2001" cy="6.10195" r="4.44619" fill="white" stroke="#263148" stroke-width="2" stroke-linejoin="round"/>
<circle cx="25.6" cy="6.10195" r="4.44619" fill="white" stroke="#263148" stroke-width="2" stroke-linejoin="round"/>
<circle cx="41.9999" cy="6.10195" r="4.44619" fill="white" stroke="#263148" stroke-width="2" stroke-linejoin="round"/>
<circle cx="58.3998" cy="6.10195" r="4.44619" fill="white" stroke="#263148" stroke-width="2" stroke-linejoin="round"/>
<circle cx="74.8002" cy="6.10195" r="4.44619" fill="white" stroke="#263148" stroke-width="2" stroke-linejoin="round"/>
<path d="M17.4 18.8782C17.4 14.3495 13.7287 10.6782 9.2 10.6782C4.67127 10.6782 1 14.3495 1 18.8782" stroke="#263148" stroke-width="2" stroke-linejoin="round"/>
<path d="M33.7999 18.8782C33.7999 14.3495 30.1286 10.6782 25.5999 10.6782C21.0712 10.6782 17.3999 14.3495 17.3999 18.8782" stroke="#263148" stroke-width="2" stroke-linejoin="round"/>
<path d="M50.1998 18.8782C50.1998 14.3495 46.5285 10.6782 41.9998 10.6782C37.4711 10.6782 33.7998 14.3495 33.7998 18.8782" stroke="#263148" stroke-width="2" stroke-linejoin="round"/>
<path d="M66.6002 18.8782C66.6002 14.3495 62.9289 10.6782 58.4002 10.6782C53.8715 10.6782 50.2002 14.3495 50.2002 18.8782" stroke="#263148" stroke-width="2" stroke-linejoin="round"/>
<path d="M83.0001 18.8782C83.0001 14.3495 79.3288 10.6782 74.8001 10.6782C70.2714 10.6782 66.6001 14.3495 66.6001 18.8782" stroke="#263148" stroke-width="2" stroke-linejoin="round"/>
<circle cx="9.2001" cy="21.5907" r="4.44619" fill="white" stroke="#263148" stroke-width="2" stroke-linejoin="round"/>
<circle cx="25.6" cy="21.5907" r="4.44619" fill="white" stroke="#263148" stroke-width="2" stroke-linejoin="round"/>
<circle cx="41.9999" cy="21.5907" r="4.44619" fill="white" stroke="#263148" stroke-width="2" stroke-linejoin="round"/>
<circle cx="58.3998" cy="21.5907" r="4.44619" fill="white" stroke="#263148" stroke-width="2" stroke-linejoin="round"/>
<circle cx="74.8002" cy="21.5907" r="4.44619" fill="white" stroke="#263148" stroke-width="2" stroke-linejoin="round"/>
<path d="M17.4 34.367C17.4 29.8383 13.7287 26.167 9.2 26.167C4.67127 26.167 1 29.8383 1 34.367" stroke="#263148" stroke-width="2" stroke-linejoin="round"/>
<path d="M33.7999 34.367C33.7999 29.8383 30.1286 26.167 25.5999 26.167C21.0712 26.167 17.3999 29.8383 17.3999 34.367" stroke="#263148" stroke-width="2" stroke-linejoin="round"/>
<path d="M50.1998 34.367C50.1998 29.8383 46.5285 26.167 41.9998 26.167C37.4711 26.167 33.7998 29.8383 33.7998 34.367" stroke="#263148" stroke-width="2" stroke-linejoin="round"/>
<path d="M66.6002 34.367C66.6002 29.8383 62.9289 26.167 58.4002 26.167C53.8715 26.167 50.2002 29.8383 50.2002 34.367" stroke="#263148" stroke-width="2" stroke-linejoin="round"/>
<path d="M83.0001 34.367C83.0001 29.8383 79.3288 26.167 74.8001 26.167C70.2714 26.167 66.6001 29.8383 66.6001 34.367" stroke="#263148" stroke-width="2" stroke-linejoin="round"/>
<circle cx="9.2001" cy="37.0795" r="4.44619" fill="white" stroke="#263148" stroke-width="2" stroke-linejoin="round"/>
<circle cx="25.6" cy="37.0795" r="4.44619" fill="white" stroke="#263148" stroke-width="2" stroke-linejoin="round"/>
<circle cx="41.9999" cy="37.0795" r="4.44619" fill="white" stroke="#263148" stroke-width="2" stroke-linejoin="round"/>
<circle cx="58.3998" cy="37.0795" r="4.44619" fill="white" stroke="#263148" stroke-width="2" stroke-linejoin="round"/>
<circle cx="74.8002" cy="37.0795" r="4.44619" fill="white" stroke="#263148" stroke-width="2" stroke-linejoin="round"/>
<path d="M17.4 49.8558C17.4 45.327 13.7287 41.6558 9.2 41.6558C4.67127 41.6558 1 45.327 1 49.8558" stroke="#263148" stroke-width="2" stroke-linejoin="round"/>
<path d="M33.7999 49.8558C33.7999 45.327 30.1286 41.6558 25.5999 41.6558C21.0712 41.6558 17.3999 45.327 17.3999 49.8558" stroke="#263148" stroke-width="2" stroke-linejoin="round"/>
<path d="M50.1998 49.8558C50.1998 45.327 46.5285 41.6558 41.9998 41.6558C37.4711 41.6558 33.7998 45.327 33.7998 49.8558" stroke="#263148" stroke-width="2" stroke-linejoin="round"/>
<path d="M66.6002 49.8558C66.6002 45.327 62.9289 41.6558 58.4002 41.6558C53.8715 41.6558 50.2002 45.327 50.2002 49.8558" stroke="#263148" stroke-width="2" stroke-linejoin="round"/>
<path d="M83.0001 49.8558C83.0001 45.327 79.3288 41.6558 74.8001 41.6558C70.2714 41.6558 66.6001 45.327 66.6001 49.8558" stroke="#263148" stroke-width="2" stroke-linejoin="round"/>
<circle cx="9.2001" cy="52.5688" r="4.44619" fill="white" stroke="#263148" stroke-width="2" stroke-linejoin="round"/>
<circle cx="25.6" cy="52.5688" r="4.44619" fill="white" stroke="#263148" stroke-width="2" stroke-linejoin="round"/>
<circle cx="41.9999" cy="52.5688" r="4.44619" fill="white" stroke="#263148" stroke-width="2" stroke-linejoin="round"/>
<circle cx="58.3998" cy="52.5688" r="4.44619" fill="white" stroke="#263148" stroke-width="2" stroke-linejoin="round"/>
<circle cx="74.8002" cy="52.5688" r="4.44619" fill="white" stroke="#263148" stroke-width="2" stroke-linejoin="round"/>
<path d="M17.4 65.345C17.4 60.8163 13.7287 57.145 9.2 57.145C4.67127 57.145 1 60.8163 1 65.345" stroke="#263148" stroke-width="2" stroke-linejoin="round"/>
<path d="M33.7999 65.345C33.7999 60.8163 30.1286 57.145 25.5999 57.145C21.0712 57.145 17.3999 60.8163 17.3999 65.345" stroke="#263148" stroke-width="2" stroke-linejoin="round"/>
<path d="M50.1998 65.345C50.1998 60.8163 46.5285 57.145 41.9998 57.145C37.4711 57.145 33.7998 60.8163 33.7998 65.345" stroke="#263148" stroke-width="2" stroke-linejoin="round"/>
<path d="M66.6002 65.345C66.6002 60.8163 62.9289 57.145 58.4002 57.145C53.8715 57.145 50.2002 60.8163 50.2002 65.345" stroke="#263148" stroke-width="2" stroke-linejoin="round"/>
<path d="M83.0001 65.345C83.0001 60.8163 79.3288 57.145 74.8001 57.145C70.2714 57.145 66.6001 60.8163 66.6001 65.345" stroke="#263148" stroke-width="2" stroke-linejoin="round"/>
</svg>
