<svg width="42" height="41" viewBox="0 0 42 41" fill="none" xmlns="http://www.w3.org/2000/svg">
<circle cx="10.9524" cy="5.95238" r="4.95238" stroke="#1F2147" stroke-width="2"/>
<circle cx="30.9524" cy="5.95238" r="4.95238" stroke="#1F2147" stroke-width="2"/>
<path d="M21 40V21C21 15.4772 16.5228 11 11 11V11C5.47715 11 1 15.4772 1 21V40" stroke="#1F2147" stroke-width="2"/>
<path d="M41 40V21C41 15.4772 36.5228 11 31 11V11C25.4772 11 21 15.4772 21 21V40" stroke="#1F2147" stroke-width="2"/>
<circle cx="10.9524" cy="25.9524" r="4.95238" stroke="#1F2147" stroke-width="2"/>
<circle cx="30.9524" cy="25.9524" r="4.95238" stroke="#1F2147" stroke-width="2"/>
<path d="M21 41V41C21 35.4772 16.5228 31 11 31V31C5.47715 31 1 35.4772 1 41V41" stroke="#1F2147" stroke-width="2"/>
<path d="M41 41V41C41 35.4772 36.5228 31 31 31V31C25.4772 31 21 35.4772 21 41V41" stroke="#1F2147" stroke-width="2"/>
</svg>
