<svg width="67" height="83" viewBox="0 0 67 83" fill="none" xmlns="http://www.w3.org/2000/svg">
<path d="M24.4578 73.0004C25.8461 72.975 26.9872 74.0889 26.9999 75.4801C27.0126 76.8861 25.9158 77.9936 24.5064 78C23.1476 78.0042 22.0149 76.8883 22.0001 75.5309C21.9854 74.1863 23.1138 73.0237 24.4578 73.0004Z" stroke="#263148" stroke-width="2" stroke-linecap="round"/>
<rect x="5" y="5" width="38" height="64" rx="1" stroke="#263148" stroke-width="2" stroke-linecap="round"/>
<rect x="1" y="1" width="46" height="81" rx="1" stroke="#263148" stroke-width="2" stroke-linecap="round"/>
<path d="M38.3933 56.9425V57.9425C38.3933 58.4486 38.398 58.9531 38.4028 59.4553C38.4137 60.6079 38.4245 61.7488 38.3772 62.8712L38.3771 62.8729C38.2976 64.6879 36.6665 66.1342 34.8955 66.1389C29.1876 66.1571 23.482 66.1601 17.7727 66.1358C15.7199 66.127 14.297 64.3968 14.2852 62.4315L14.2852 62.4301C14.2741 60.0589 14.2759 57.6864 14.2777 55.316C14.2784 54.4278 14.2791 53.5398 14.2791 52.6522C14.2791 52.0123 14.2786 51.3714 14.2781 50.73C14.2768 49.1239 14.2756 47.5144 14.2821 45.9077L38.3933 56.9425ZM38.3933 56.9425H37.3933M38.3933 56.9425H37.3933M37.3933 56.9425C37.0398 56.9425 36.7695 56.9425 36.5029 56.9395V56.9395H36.4918H36.4739H36.456H36.4381H36.4202H36.4024H36.3845H36.3666H36.3487H36.3308H36.3129H36.295H36.2771H36.2592H36.2413H36.2234H36.2056H36.1877H36.1698H36.1519H36.134H36.1161H36.0982H36.0803H36.0624H36.0445H36.0266H36.0087H35.9908H35.973H35.9551H35.9372H35.9193H35.9014H35.8835H35.8656H35.8477H35.8298H35.8119H35.794H35.7761H35.7582H35.7403H35.7224H35.7046H35.6867H35.6688H35.6509H35.633H35.6151H35.5972H35.5793H35.5614H35.5435H35.5256H35.5077H35.4898H35.4719H35.454H35.4361H35.4182H35.4004H35.3825H35.3646H35.3467H35.3288H35.3109H35.293H35.2751H35.2572H35.2393H35.2214H35.2035H35.1856H35.1677H35.1498H35.1319H35.114H35.0961H35.0782H35.0603H35.0425H35.0246H35.0067H34.9888H34.9709H34.953H34.9351H34.9172H34.8993H34.8814H34.8635H34.8456H34.8277H34.8098H34.7919H34.774H34.7561H34.7382H34.7203H34.7024H34.6845H34.6666H34.6487H34.6308H34.6129H34.595H34.5772H34.5593H34.5414H34.5235H34.5056H34.4877H34.4698H34.4519H34.434H34.4161H34.3982H34.3803H34.3624H34.3445H34.3266H34.3087H34.2908H34.2729H34.255H34.2371H34.2192H34.2013H34.1834H34.1655H34.1476H34.1297H34.1118H34.0939H34.076H34.0581H34.0402H34.0223H34.0044H33.9865H33.9686H33.9507H33.9328H33.9149H33.897H33.8792H33.8613H33.8434H33.8255H33.8076H33.7897H33.7718H33.7539H33.736H33.7181H33.7002H33.6823H33.6644H33.6465H33.6286H33.6107H33.5928H33.5749H33.557H33.5391H33.5212H33.5033H33.4854H33.4675H33.4496H33.4317H33.4138H33.3959H33.378H33.3601H33.3422H33.3243H33.3064H33.2885H33.2706H33.2527H33.2348H33.2169H33.199H33.1811H33.1632H33.1453H33.1274H33.1095H33.0916H33.0737H33.0558H33.0379H33.02H33.0021H32.9842H32.9663H32.9484H32.9305H32.9126H32.8947H32.8768H32.8589H32.841H32.8231H32.8052H32.7873H32.7694H32.7515H32.7336H32.7157H32.6978H32.6799H32.662H32.6441H32.6262H32.6083H32.5904H32.5725H32.5546H32.5367H32.5188H32.5009H32.483H32.4651H32.4472H32.4293H32.4114H32.3935H32.3756H32.3577H32.3398H32.3219H32.304H32.2861H32.2682H32.2503H32.2324H32.2145H32.1966H32.1787H32.1608H32.1429H32.125H32.1071H32.0892H32.0713H32.0534H32.0355H32.0176H31.9997H31.9818H31.9639H31.946H31.9281H31.9102H31.8923H31.8744H31.8565H31.8386H31.8207H31.8028H31.7849H31.767H31.7491H31.7312H31.7133H31.6954H31.6775H31.6596H31.6417H31.6238H31.6059H31.588H31.5701H31.5522H31.5343H31.5164H31.4985H31.4806H31.4627H31.4448H31.4269H31.409H31.3911H31.3732H31.3553H31.3374H31.3195H31.3016H31.2837H31.2659H31.248H31.2301H31.2122H31.1943H31.1764H31.1585H31.1406H31.1227H31.1048H31.0869H31.069H31.0511H31.0332H31.0153H30.9974H30.9795H30.9616H30.9437H30.9258H30.9079H30.89H30.8721H30.8542H30.8363H30.8184H30.8005H30.7826H30.7647H30.7468H30.7289H30.711H30.6931H30.6752H30.6573H30.6394H30.6215H30.6036H30.5857H30.5678H30.5499H30.532H30.5141H30.4962H30.4783H30.4604H30.4425H30.4246H30.4067H30.3888H30.3709H30.353H30.3351H30.3172H30.2993H30.2814H30.2635H30.2456H30.2277H30.2098H30.1919H30.174H30.1561H30.1382H30.1203H30.1024H30.0845H30.0666H30.0487H30.0308H30.0129H29.995H29.9771H29.9592H29.9413H29.9234H29.9055H29.8876H29.8697H29.8518H29.8339H29.816H29.7981H29.7802H29.7623H29.7444H29.7266H29.7087H29.6908H29.6729H29.655H29.6371H29.6192H29.6013H29.5834H29.5655H29.5476H29.5297H29.5118H29.4939H29.476H29.4581H29.4402H29.4223H29.4044H29.3865H29.3686H29.3507H29.3328H29.3149H29.297H29.2791H29.2612H29.2433H29.2254H29.2075H29.1896H29.1717H29.1538H29.1359H29.1181H29.1002H29.0823H29.0644H29.0465H29.0286H29.0107H28.9928H28.9749H28.957H28.9391H28.9212H28.9033H28.8854H28.8675H28.8496H28.8317H28.8138H28.7959H28.778H28.7601H28.7422H28.7243H28.7064H28.6885H28.6707H28.6528H28.6349H28.617H28.5991H28.5812H28.5633H28.5454H28.5275H28.5096H28.4917H28.4738H28.4559H28.438H28.4201H28.4022H28.3843H28.3664H28.3485H28.3307H28.3128H28.2949H28.277H28.2591H28.2412H28.2233H28.2054H28.1875H28.1696H28.1517H28.1338H28.1159H28.098H28.0801H28.0622H28.0443H28.0265H28.0086H27.9907H27.9728H27.9549H27.937H27.9191H27.9012H27.8833H27.8654H27.8475H27.8296H27.8117H27.7938H27.776H27.7581H27.7402H27.7223H27.7044H27.6865H27.6686H27.6507H27.6328H27.6149H27.597H27.5791H27.5612H27.5434H27.5255H27.5076H27.4897H27.4718H27.4539H27.436H27.4181H27.4002H27.3823H27.3644H27.3466H27.3287C25.9815 56.9395 25.0603 56.5597 24.4742 55.9733C23.8876 55.3865 23.5037 54.4598 23.4997 53.0985V53.0984C23.4932 50.9366 23.4945 48.7741 23.4957 46.6101C23.4962 45.744 23.4967 44.8777 23.4967 44.0111V44.0094V44.0077V44.006V44.0042V44.0025V44.0008V43.999V43.9973V43.9956V43.9939V43.9921V43.9904V43.9887V43.987V43.9852V43.9835V43.9818V43.9801V43.9783V43.9766V43.9749V43.9732V43.9714V43.9697V43.968V43.9662V43.9645V43.9628V43.9611V43.9593V43.9576V43.9559V43.9541V43.9524V43.9507V43.949V43.9472V43.9455V43.9438V43.942V43.9403V43.9386V43.9368V43.9351V43.9334V43.9316V43.9299V43.9282V43.9264V43.9247V43.923V43.9213V43.9195V43.9178V43.916V43.9143V43.9126V43.9108V43.9091V43.9074V43.9056V43.9039V43.9022V43.9004V43.8987V43.897V43.8952V43.8935V43.8917V43.89V43.8883V43.8865V43.8848V43.8831V43.8813V43.8796V43.8778V43.8761V43.8744V43.8726V43.8709V43.8691V43.8674V43.8656V43.8639V43.8622V43.8604V43.8587V43.8569V43.8552V43.8534V43.8517V43.8499V43.8482V43.8464V43.8447V43.843V43.8412V43.8395V43.8377V43.836V43.8342V43.8325V43.8307V43.829V43.8272V43.8255V43.8237V43.822V43.8202V43.8184V43.8167V43.8149V43.8132V43.8114V43.8097V43.8079V43.8062V43.8044V43.8026V43.8009V43.7991V43.7974V43.7956V43.7938V43.7921V43.7903V43.7886V43.7868V43.785V43.7833V43.7815V43.7797V43.778V43.7762V43.7745V43.7727V43.7709V43.7692V43.7674V43.7656V43.7638V43.7621V43.7603V43.7585V43.7568V43.755V43.7532V43.7515V43.7497V43.7479V43.7461V43.7444V43.7426V43.7408V43.739V43.7372V43.7355V43.7337V43.7319V43.7301V43.7284V43.7266V43.7248V43.723V43.7212V43.7194V43.7177V43.7159V43.7141V43.7123V43.7105V43.7087V43.7069V43.7051V43.7034V43.7016V43.6998V43.698V43.6962V43.6944V43.6926V43.6908V43.689V43.6872V43.6854V43.6836V43.6818V43.68V43.6782V43.6764V43.6746V43.6728V43.671V43.6692V43.6674V43.6656V43.6638V43.662V43.6602V43.6584V43.6566V43.6548V43.653V43.6512V43.6493V43.6475V43.6457V43.6439V43.6421V43.6403V43.6385V43.6366V43.6348V43.633V43.6312V43.6294V43.6276V43.6257V43.6239V43.6221V43.6203V43.6184V43.6166V43.6148V43.613V43.6111V43.6093V43.6075V43.6056V43.6038V43.602V43.6002V43.5983V43.5965V43.5946V43.5928V43.591V43.5891V43.5873V43.5855V43.5836V43.5818V43.5799V43.5781V43.5762V43.5744V43.5726V43.5707V43.5689V43.567V43.5652V43.5633V43.5615V43.5596V43.5577V43.5559V43.554V43.5522V43.5503V43.5485V43.5466V43.5447V43.5429V43.541V43.5392V43.5373V43.5354V43.5336V43.5317V43.5298V43.528V43.5261V43.5242V43.5224V43.5205V43.5186V43.5167V43.5149V43.513V43.5111V43.5092V43.5073V43.5055V43.5036V43.5017V43.4998V43.4979V43.496V43.4941V43.4923V43.4904V43.4885V43.4866V43.4847V43.4828V43.4809V43.479V43.4771V43.4752V43.4733V43.4714V43.4695V43.4676V43.4657V43.4638V43.4619V43.46V43.4581V43.4562V43.4543V43.4524V43.4504V43.4485V43.4466V43.4447V43.4428V43.4409V43.4389V43.437V43.4351V43.4332V43.4313V43.4293V43.4274V43.4255V43.4235V43.4216V43.4197V43.4178V43.4158V43.4139V43.412V43.41V43.4081V43.4061V43.4042V43.4023V43.4003V43.3984V43.3964V43.3945V43.3925V43.3906V43.3886V43.3867V43.3847V43.3828V43.3808V43.3789V43.3769V43.3749V43.373V43.371V43.3691V43.3671V43.3651V43.3632V43.3612V43.3592V43.3573V43.3553V43.3533V43.3513V43.3494V43.3474V43.3454V43.3434V43.3414V43.3395V43.3375V43.3355V43.3335V43.3315V43.3295V43.3275V43.3255V43.3236V43.3216V43.3196V43.3176V43.3156V43.3136V43.3116V43.3096V43.3076V43.3056V43.3036V43.3015V43.2995V43.2975V43.2955V43.2935V43.2915V43.2895V43.2874V43.2854V43.2834V43.2814V43.2794V43.2773V43.2753V43.2733V43.2713V43.2692V43.2672V43.2652V43.2631V43.2611V43.259V43.257V43.255V43.2529V43.2509V43.2488V43.2468V43.2447V43.2427V43.2406V43.2386V43.2365V43.2345V43.2324V43.2304V43.2283V43.2262V43.2242V43.2221V43.22V43.218V43.2159V43.2138V43.2118V43.2097V43.2076V43.2055V43.2035V43.2014V43.1993V43.1972V43.1951V43.193V43.191V43.1889V43.1868V43.1847V43.1826V43.1805V43.1784V43.1763V43.1742V43.1721V43.17V43.1679V43.1658V43.1637V43.1616V43.1594V43.1573V43.1552V43.1531V43.151V43.1489V43.1467V43.1446V43.1425V43.1404V43.1382V43.1361V43.134V43.1318V43.1297V43.1276V43.1254V43.1233V43.1212V43.119V43.1169V43.1147V43.1126V43.1104V43.1083V43.1061V43.104V43.1018V43.0996V43.0975V43.0953V43.0932V43.091V43.0888V43.0867V43.0845V43.0823V43.0801V43.078V43.0758V43.0736V43.0714V43.0692V43.0671V43.0649V43.0627V43.0605V43.0583V43.0561V43.0539V43.0517V43.0495V43.0473V43.0451V43.0429V42.0429H22.4967C22.0155 42.0429 21.5404 42.0411 21.0697 42.0392C20.0611 42.0353 19.0731 42.0315 18.09 42.0461L18.0892 42.0461C17.0084 42.063 16.0343 42.4155 15.3285 43.133C14.6232 43.8498 14.286 44.8288 14.2821 45.9071L15.2821 45.9111C15.2882 44.1659 16.3596 43.0733 18.1048 43.0459C19.0785 43.0315 20.0508 43.0353 21.0541 43.0392C21.5269 43.041 22.0067 43.0429 22.4967 43.0429M37.3933 56.9425L22.4967 43.0429M22.4967 43.0429V44.0111C22.4967 44.0217 22.4967 44.0323 22.4967 44.0429C22.4967 44.8977 22.4962 45.7526 22.4957 46.6077C22.4945 48.7724 22.4932 50.9377 22.4997 53.1014C22.5088 56.1943 24.2601 57.9395 27.3287 57.9395L22.4967 43.0429Z" fill="#263148" stroke="white" stroke-width="2"/>
<path d="M47.3199 47.9099V48.9099C47.3199 49.3854 47.3256 49.8644 47.3313 50.3445C47.3447 51.4785 47.3582 52.6189 47.2972 53.7353L47.3199 47.9099ZM47.3199 47.9099H46.3199M47.3199 47.9099H46.3199M46.3199 47.9099C45.5528 47.9099 44.7836 47.9014 44.0145 47.8928C42.3592 47.8744 40.7041 47.8559 39.0704 47.9229L39.0691 47.923C37.498 47.9895 36.2835 47.9511 35.3426 47.7781C34.411 47.6067 33.8168 47.3158 33.4133 46.9281C32.5927 46.1397 32.1964 44.5934 32.3614 41.2654C32.4369 39.7443 32.4162 38.1991 32.3959 36.6913C32.3873 36.0459 32.3787 35.4074 32.3778 34.7805M46.3199 47.9099L23.2057 36.9624M23.2057 36.9624L23.2057 36.962C23.2075 35.8032 23.5106 34.7543 24.2712 34.0004C25.03 33.2484 26.0829 32.9501 27.2439 32.9466L27.2446 32.9466C28.5356 32.9436 29.8261 32.9497 31.1094 32.9557C31.2887 32.9565 31.434 33.0019 31.4755 33.0149C31.4776 33.0156 31.4795 33.0161 31.4811 33.0166C31.4963 33.0213 31.5083 33.0251 31.5188 33.0284C31.545 33.0366 31.5615 33.0418 31.593 33.0502L32.2867 33.2352L32.3332 33.9516C32.3359 33.9934 32.3397 34.0432 32.344 34.099C32.3583 34.2876 32.3778 34.5436 32.3778 34.7805M23.2057 36.9624C23.1997 42.314 23.1997 47.6625 23.2057 53.0141M23.2057 36.9624L43.5489 57.0759C41.7038 57.0935 39.8545 57.0905 38.0124 57.0874C37.3061 57.0862 36.6008 57.0851 35.8972 57.0851C35.0776 57.0851 34.2573 57.0856 33.4364 57.0861C31.3814 57.0873 29.3235 57.0885 27.2681 57.082C26.0932 57.0785 25.0296 56.7799 24.2663 56.016C23.5026 55.2518 23.2058 54.1884 23.2057 53.0141M32.3778 34.7805C32.3778 34.7807 32.3778 34.781 32.3778 34.7813H31.3778L32.3778 34.7799C32.3778 34.7801 32.3778 34.7803 32.3778 34.7805ZM23.2057 53.0141C23.2057 53.0139 23.2057 53.0137 23.2057 53.0135H24.2049L23.2057 53.0146C23.2057 53.0144 23.2057 53.0142 23.2057 53.0141Z" fill="#263148" stroke="white" stroke-width="2"/>
<path d="M41.4682 24.0902V25.0902V25.0922V25.0943V25.0963V25.0984V25.1005V25.1025V25.1046V25.1066V25.1087V25.1107V25.1128V25.1148V25.1168V25.1189V25.1209V25.1229V25.125V25.127V25.129V25.1311V25.1331V25.1351V25.1371V25.1392V25.1412V25.1432V25.1452V25.1472V25.1492V25.1513V25.1533V25.1553V25.1573V25.1593V25.1613V25.1633V25.1653V25.1673V25.1693V25.1713V25.1733V25.1753V25.1773V25.1792V25.1812V25.1832V25.1852V25.1872V25.1892V25.1911V25.1931V25.1951V25.1971V25.199V25.201V25.203V25.2049V25.2069V25.2089V25.2108V25.2128V25.2147V25.2167V25.2187V25.2206V25.2226V25.2245V25.2265V25.2284V25.2304V25.2323V25.2342V25.2362V25.2381V25.2401V25.242V25.2439V25.2459V25.2478V25.2497V25.2517V25.2536V25.2555V25.2574V25.2594V25.2613V25.2632V25.2651V25.267V25.2689V25.2709V25.2728V25.2747V25.2766V25.2785V25.2804V25.2823V25.2842V25.2861V25.288V25.2899V25.2918V25.2937V25.2956V25.2975V25.2994V25.3013V25.3032V25.3051V25.3069V25.3088V25.3107V25.3126V25.3145V25.3164V25.3182V25.3201V25.322V25.3239V25.3257V25.3276V25.3295V25.3313V25.3332V25.3351V25.3369V25.3388V25.3407V25.3425V25.3444V25.3462V25.3481V25.35V25.3518V25.3537V25.3555V25.3574V25.3592V25.3611V25.3629V25.3647V25.3666V25.3684V25.3703V25.3721V25.3739V25.3758V25.3776V25.3794V25.3813V25.3831V25.3849V25.3868V25.3886V25.3904V25.3922V25.3941V25.3959V25.3977V25.3995V25.4013V25.4032V25.405V25.4068V25.4086V25.4104V25.4122V25.414V25.4159V25.4177V25.4195V25.4213V25.4231V25.4249V25.4267V25.4285V25.4303V25.4321V25.4339V25.4357V25.4375V25.4393V25.441V25.4428V25.4446V25.4464V25.4482V25.45V25.4518V25.4536V25.4553V25.4571V25.4589V25.4607V25.4625V25.4642V25.466V25.4678V25.4696V25.4713V25.4731V25.4749V25.4767V25.4784V25.4802V25.482V25.4837V25.4855V25.4872V25.489V25.4908V25.4925V25.4943V25.496V25.4978V25.4996V25.5013V25.5031V25.5048V25.5066V25.5083V25.5101V25.5118V25.5136V25.5153V25.5171V25.5188V25.5205V25.5223V25.524V25.5258V25.5275V25.5292V25.531V25.5327V25.5345V25.5362V25.5379V25.5397V25.5414V25.5431V25.5448V25.5466V25.5483V25.55V25.5518V25.5535V25.5552V25.5569V25.5587V25.5604V25.5621V25.5638V25.5655V25.5672V25.569V25.5707V25.5724V25.5741V25.5758V25.5775V25.5792V25.581V25.5827V25.5844V25.5861V25.5878V25.5895V25.5912V25.5929V25.5946V25.5963V25.598V25.5997V25.6014V25.6031V25.6048V25.6065V25.6082V25.6099V25.6116V25.6133V25.615V25.6167V25.6184V25.6201V25.6217V25.6234V25.6251V25.6268V25.6285V25.6302V25.6319V25.6336V25.6352V25.6369V25.6386V25.6403V25.642V25.6437V25.6453V25.647V25.6487V25.6504V25.652V25.6537V25.6554V25.6571V25.6587V25.6604V25.6621V25.6638V25.6654V25.6671V25.6688V25.6704V25.6721V25.6738V25.6754V25.6771V25.6788V25.6804V25.6821V25.6838V25.6854V25.6871V25.6887V25.6904V25.6921V25.6937V25.6954V25.697V25.6987V25.7004V25.702V25.7037V25.7053V25.707V25.7086V25.7103V25.7119V25.7136V25.7152V25.7169V25.7185V25.7202V25.7218V25.7235V25.7251V25.7268V25.7284V25.7301V25.7317V25.7334V25.735V25.7367V25.7383V25.7399V25.7416V25.7432V25.7449V25.7465V25.7481V25.7498V25.7514V25.7531V25.7547V25.7563V25.758V25.7596V25.7612V25.7629V25.7645V25.7662V25.7678V25.7694V25.7711V25.7727V25.7743V25.7759V25.7776V25.7792V25.7808V25.7825V25.7841V25.7857V25.7874V25.789V25.7906V25.7922V25.7939V25.7955V25.7971V25.7987V25.8004V25.802V25.8036V25.8052V25.8069V25.8085V25.8101V25.8117V25.8134V25.815V25.8166V25.8182V25.8198V25.8215V25.8231V25.8247V25.8263V25.8279V25.8295V25.8312V25.8328V25.8344V25.836V25.8376V25.8392V25.8409V25.8425V25.8441V25.8457V25.8473V25.8489V25.8506V25.8522V25.8538V25.8554V25.857V25.8586V25.8602V25.8618V25.8635V25.8651V25.8667V25.8683V25.8699V25.8715V25.8731V25.8747V25.8763V25.8779V25.8796V25.8812V25.8828V25.8844V25.886V25.8876V25.8892V25.8908V25.8924V25.894V25.8956V25.8972V25.8988V25.9004V25.9021V25.9037V25.9053V25.9069V25.9085V25.9101V25.9117V25.9133V25.9149V25.9165V25.9181V25.9197V25.9213V25.9229V25.9245V25.9261V25.9277V25.9293V25.9309V25.9325V25.9341V25.9357V25.9373V25.9389V25.9405V25.9421V25.9437V25.9453V25.947V25.9486V25.9502V25.9518V25.9534V25.955V25.9566V25.9582V25.9598V25.9614V25.963V25.9646V25.9662V25.9678V25.9694V25.971V25.9726V25.9742V25.9758V25.9774V25.979V25.9806V25.9822V25.9838V25.9854V25.987V25.9886C41.4682 26.8552 41.4677 27.7212 41.4672 28.587C41.4659 30.7503 41.4647 32.9118 41.4712 35.0759L41.4712 35.0769C41.4739 36.3954 41.8561 37.3205 42.4459 37.9161C43.0348 38.5107 43.9508 38.8982 45.2627 38.9048C47.5779 38.9153 49.8927 38.9127 52.2193 38.9101C53.257 38.909 54.297 38.9078 55.3405 38.9078H56.3405V39.9078C56.3405 40.4179 56.3502 40.9362 56.3601 41.4581C56.3838 42.7143 56.4079 43.9916 56.297 45.2268C56.1367 47.0493 54.5829 48.007 53.0967 48.1623M41.4682 24.0902L52.9912 47.1679M41.4682 24.0902H40.4682M41.4682 24.0902H40.4682M53.0967 48.1623C53.0961 48.1624 53.0954 48.1625 53.0947 48.1626L52.9912 47.1679M53.0967 48.1623C53.0974 48.1623 53.0981 48.1622 53.0987 48.1621L52.9912 47.1679M53.0967 48.1623C52.8368 48.1904 52.5741 48.2043 52.3119 48.2043L52.3114 47.2043M52.9912 47.1679C52.7666 47.1922 52.539 47.2043 52.3114 47.2043M52.3114 47.2043V48.2043M52.3114 47.2043V48.2043M52.3114 48.2043H52.3091C46.9841 48.2074 41.6605 48.2104 36.3337 48.1983M52.3114 48.2043L32.2961 27.7591C32.284 33.3394 32.287 38.9224 32.2961 44.5017L32.2961 44.5025C32.3001 46.1011 33.1503 47.4422 34.6723 47.9624L34.6734 47.9628C35.243 48.1568 35.8393 48.1982 36.3337 48.1983M36.3337 48.1983C36.3339 48.1983 36.3341 48.1983 36.3343 48.1983V47.1983L36.332 48.1983C36.3326 48.1983 36.3331 48.1983 36.3337 48.1983ZM40.4682 24.0902C39.9833 24.0902 39.498 24.0846 39.0137 24.0791M40.4682 24.0902L39.0137 24.0791M32.2961 27.7589L33.2961 27.7611L32.2961 27.7589ZM32.2961 27.7589C32.2981 26.7928 32.6071 25.8981 33.2212 25.224M32.2961 27.7589L33.2212 25.224M33.2212 25.224C33.8391 24.5459 34.7039 24.1598 35.682 24.1097L33.2212 25.224ZM39.0137 24.0791C37.8931 24.0662 36.7775 24.0534 35.6822 24.1097L39.0137 24.0791ZM55.3405 39.9078H54.3405C54.3405 39.9079 54.3405 39.908 54.3405 39.9081C54.6736 39.9079 55.0069 39.9078 55.3405 39.9078Z" fill="#263148" stroke="white" stroke-width="2"/>
<path d="M42.265 35.3036C42.2437 29.7766 42.2437 24.2496 42.265 18.7256M42.265 35.3036L41.265 35.3073C41.2437 29.7777 41.2437 24.2482 41.265 18.7217L41.265 18.7216C41.2732 16.6467 42.8126 15.0904 44.8982 15.082L42.265 18.7256M42.265 35.3036C42.271 36.976 43.3789 38.0201 45.0512 38.0231L41.265 35.3075M42.265 35.3036L41.265 35.3075M42.265 18.7256C42.271 17.1959 43.3698 16.088 44.9025 16.082L42.265 18.7256ZM41.265 35.3075C41.2689 36.3704 41.6286 37.3226 42.3383 38.0084C43.0441 38.6906 44.0043 39.0212 45.049 39.0231C47.0942 39.0277 49.138 39.0271 51.1813 39.0265C51.8625 39.0264 52.5438 39.0262 53.2249 39.0262C54.5874 39.0262 55.9499 39.0269 57.312 39.0277H57.3133C58.6748 39.0284 60.0359 39.0292 61.3956 39.0292L61.3972 39.0292C62.5027 39.0274 63.5062 38.7008 64.2403 37.9788C64.9746 37.2568 65.3193 36.2572 65.3395 35.1458L65.3395 35.1456M41.265 35.3075L65.3395 35.1456M65.3395 35.1456C65.3522 34.4393 65.3489 33.7267 65.3456 33.0271C65.3442 32.7144 65.3427 32.4043 65.3427 32.0985C65.3427 30.8664 65.3432 29.6342 65.3437 28.4019C65.3449 25.3192 65.3462 22.2358 65.3397 19.1514M65.3395 35.1456L65.3397 19.1514M65.3397 19.1514C65.3378 18.0434 65.0369 17.0219 64.3717 16.2618M65.3397 19.1514L64.3717 16.2618M64.3717 16.2618C63.6924 15.4856 62.7274 15.0909 61.6317 15.085L64.3717 16.2618ZM61.6316 15.085C56.0553 15.0546 50.4765 15.0577 44.8986 15.082L61.6316 15.085Z" fill="#263148" stroke="white" stroke-width="2"/>
</svg>
