<svg width="92" height="78" viewBox="0 0 92 78" fill="none" xmlns="http://www.w3.org/2000/svg">
<path d="M62.5 13.5V10" stroke="#263148" stroke-width="2" stroke-linecap="round"/>
<path d="M52.7719 22.0861C53.5566 21.0488 55.6856 19.1339 57.9247 17.2489C59.6963 15.7574 61.4602 14.3473 62.5 13.5257C63.5398 14.3473 65.3037 15.7574 67.0753 17.2489C69.3144 19.1339 71.4434 21.0488 72.2281 22.0861C73.1364 23.2867 74.4115 25.4209 74.8471 27.9385C75.2706 30.3861 74.9095 33.2167 72.5702 36H62.8246H62.1754H52.4298C50.0905 33.2167 49.7294 30.3861 50.1529 27.9385C50.5885 25.4209 51.8636 23.2867 52.7719 22.0861Z" fill="white" stroke="#263148" stroke-width="2"/>
<path d="M18.5 10.5V7" stroke="#263148" stroke-width="2" stroke-linecap="round"/>
<path d="M18.5 41.5V38" stroke="#263148" stroke-width="2" stroke-linecap="round"/>
<path d="M45 34L35 34" stroke="#263148" stroke-width="2" stroke-linecap="round"/>
<mask id="path-6-inside-1_1518_366" fill="white">
<rect y="51" width="79" height="27" rx="1"/>
</mask>
<rect y="51" width="79" height="27" rx="1" stroke="#263148" stroke-width="4" mask="url(#path-6-inside-1_1518_366)"/>
<mask id="path-7-inside-2_1518_366" fill="white">
<path d="M31 66.5C31 61.8056 34.8056 58 39.5 58C44.1944 58 48 61.8056 48 66.5V77C48 77.5523 47.5523 78 47 78H32C31.4477 78 31 77.5523 31 77V66.5Z"/>
</mask>
<path d="M31 66.5C31 61.8056 34.8056 58 39.5 58C44.1944 58 48 61.8056 48 66.5V77C48 77.5523 47.5523 78 47 78H32C31.4477 78 31 77.5523 31 77V66.5Z" stroke="#263148" stroke-width="4" mask="url(#path-7-inside-2_1518_366)"/>
<mask id="path-8-inside-3_1518_366" fill="white">
<path d="M55 66C55 61.5817 58.5817 58 63 58C67.4183 58 71 61.5817 71 66V77C71 77.5523 70.5523 78 70 78H56C55.4477 78 55 77.5523 55 77V66Z"/>
</mask>
<path d="M55 66C55 61.5817 58.5817 58 63 58C67.4183 58 71 61.5817 71 66V77C71 77.5523 70.5523 78 70 78H56C55.4477 78 55 77.5523 55 77V66Z" stroke="#263148" stroke-width="4" mask="url(#path-8-inside-3_1518_366)"/>
<mask id="path-9-inside-4_1518_366" fill="white">
<path d="M8 66C8 61.5817 11.5817 58 16 58C20.4183 58 24 61.5817 24 66V77C24 77.5523 23.5523 78 23 78H9C8.44772 78 8 77.5523 8 77V66Z"/>
</mask>
<path d="M8 66C8 61.5817 11.5817 58 16 58C20.4183 58 24 61.5817 24 66V77C24 77.5523 23.5523 78 23 78H9C8.44772 78 8 77.5523 8 77V66Z" stroke="#263148" stroke-width="4" mask="url(#path-9-inside-4_1518_366)"/>
<mask id="path-10-inside-5_1518_366" fill="white">
<rect y="46" width="79" height="7" rx="1"/>
</mask>
<rect y="46" width="79" height="7" rx="1" stroke="#263148" stroke-width="4" mask="url(#path-10-inside-5_1518_366)"/>
<mask id="path-11-inside-6_1518_366" fill="white">
<rect x="26" y="23" width="27" height="25" rx="1"/>
</mask>
<rect x="26" y="23" width="27" height="25" rx="1" stroke="#263148" stroke-width="4" mask="url(#path-11-inside-6_1518_366)"/>
<mask id="path-12-inside-7_1518_366" fill="white">
<rect x="9" y="32" width="19" height="16" rx="1"/>
</mask>
<rect x="9" y="32" width="19" height="16" rx="1" stroke="#263148" stroke-width="4" mask="url(#path-12-inside-7_1518_366)"/>
<path d="M39.5 2.1046L51.3235 24L27.6765 24L39.5 2.1046Z" stroke="#263148" stroke-width="2"/>
<circle cx="62.5" cy="39.5" r="16.5" fill="white" stroke="#263148" stroke-width="6"/>
<path d="M75 52L89 65" stroke="#263148" stroke-width="6" stroke-linecap="round" stroke-linejoin="round"/>
<path d="M8.77189 19.0861C9.55661 18.0488 11.6856 16.1339 13.9247 14.2489C15.6963 12.7574 17.4602 11.3473 18.5 10.5257C19.5398 11.3473 21.3037 12.7574 23.0753 14.2489C25.3144 16.1339 27.4434 18.0488 28.2281 19.0861C29.1364 20.2867 30.4115 22.4209 30.8471 24.9385C31.2706 27.3861 30.9095 30.2167 28.5702 33H18.8246H18.1754H8.42983C6.0905 30.2167 5.72941 27.3861 6.15292 24.9385C6.58854 22.4209 7.86359 20.2867 8.77189 19.0861Z" fill="white" stroke="#263148" stroke-width="2"/>
<path d="M12.2651 15.0889C13.6574 18.3331 19.0437 24.149 29.4505 21.4584" stroke="#263148" stroke-width="2"/>
<path d="M9 19.3086C10.7756 23.4194 17.6518 30.7867 30.9514 27.3695" stroke="#263148" stroke-width="2"/>
</svg>
