<svg width="33" height="42" viewBox="0 0 33 42" fill="none" xmlns="http://www.w3.org/2000/svg">
<path d="M16.5034 13.0929V40.9999" stroke="#1F2147" stroke-width="2" stroke-linecap="round"/>
<path d="M11.543 16.5037C13.1967 18.4675 17.4965 21.2168 21.4655 16.5037" stroke="#1F2147" stroke-width="2" stroke-linecap="round"/>
<path d="M9.06201 25.1859C11.5426 27.9938 17.9923 31.9249 23.9458 25.1859" stroke="#1F2147" stroke-width="2" stroke-linecap="round"/>
<path d="M16.5039 35.4186C4.10078 35.4186 1 25.0826 1 19.9147H6.58141C5.54781 18.3643 3.7907 14.2713 5.03102 10.3023C6.68476 9.88882 10.3023 9.99227 12.1628 10.6124C12.6796 8.4419 14.0233 3.72869 16.5039 1" stroke="#1F2147" stroke-width="2" stroke-linecap="round"/>
<path d="M16.5039 35.4185C28.907 35.4185 32.0078 25.0825 32.0078 19.9146H26.4264C27.46 18.3642 29.2171 14.2711 27.9768 10.3021C26.323 9.8887 22.7055 9.99214 20.845 10.6123C20.3282 8.44178 18.9845 3.72857 16.5039 0.999878" stroke="#1F2147" stroke-width="2" stroke-linecap="round"/>
</svg>
