<svg width="80" height="81" viewBox="0 0 80 81" fill="none" xmlns="http://www.w3.org/2000/svg">
<path d="M43.9575 46.8965C44.4905 47.4013 44.3113 48.2935 43.6805 48.6691C40.8375 50.3623 40.0919 53.1175 40.4793 55.3695C40.9814 58.2738 43.756 60.855 46.8995 61.2636C49.4887 61.6001 52.2779 60.3767 53.7672 57.3001C53.8984 57.0291 54.2641 56.9263 54.48 57.1364V57.1364C55.263 57.9011 56.046 58.6658 56.8233 59.4388C58.3979 61.0096 58.395 62.9173 56.7978 64.4909C55.5211 65.7498 54.2246 66.9894 52.9451 68.2455C52.6983 68.4884 52.4487 68.7424 52.2614 69.0295C51.3706 70.3933 52.1196 71.8951 53.7735 72.058C54.7296 72.1519 55.6431 72.3424 56.3864 72.9801C58.2589 74.5868 57.8673 77.008 56.1793 78.5512C55.1098 79.5313 53.7906 79.9868 52.3295 79.4871C50.8486 78.9819 50.111 77.8611 49.9237 76.3703C49.7989 75.3792 49.5634 74.4074 48.4371 74.0816C47.3619 73.7697 46.6072 74.4102 45.9037 75.0976C44.6384 76.3371 43.3702 77.5684 42.0936 78.7969C40.414 80.4147 38.5643 80.3982 36.882 78.7638C35.645 77.5629 34.4109 76.3592 33.1655 75.1666C32.8818 74.8933 32.5811 74.6255 32.2463 74.4184C30.8647 73.5543 29.361 74.3053 29.1256 75.8927C29.0121 76.6491 28.8475 77.4608 28.4532 78.1012C27.2503 80.0613 24.6346 80.2656 22.7735 78.5926C21.616 77.5546 21.077 76.2626 21.5394 74.7415C22.0047 73.2093 23.2019 72.4501 24.7651 72.2264C25.7609 72.0829 26.7169 71.9062 27.0801 70.8433C27.4461 69.7694 26.8276 68.9881 26.1155 68.2814C24.8417 67.0197 23.5423 65.7802 22.26 64.5268C20.5748 62.8786 20.5805 61.0538 22.2742 59.4029C23.4913 58.2158 24.714 57.0342 25.9311 55.8471C26.1637 55.6207 26.4049 55.3916 26.595 55.1348C27.6759 53.6827 27.0063 52.1698 25.185 51.902C24.697 51.8303 24.1948 51.775 23.7352 51.6122C22.4047 51.1456 21.5706 50.207 21.3975 48.8376C21.2131 47.3496 21.8571 46.1183 23.0373 45.2239C25.4687 43.3825 28.4731 44.553 29.0405 47.5125C29.1312 47.9818 29.1908 48.4732 29.3752 48.9094C29.8121 49.9309 30.9668 50.3284 31.9626 49.8011C32.391 49.5747 32.7825 49.26 33.1343 48.926C34.4677 47.656 35.7699 46.3585 37.0919 45.0775C38.5955 43.6199 40.5984 43.6475 42.1049 45.1217C42.7116 45.7155 43.3261 46.2985 43.9575 46.8965Z" stroke="#263148" stroke-width="2" stroke-linecap="round"/>
<path d="M32.0261 46.0319C29.9252 42.2283 27.5953 40.8158 24.5779 41.4596C21.5826 42.0978 19.0539 44.8491 18.764 47.7848C18.4383 51.0977 19.9345 53.5569 23.2059 54.995C23.0899 55.1453 22.9933 55.2956 22.8746 55.4204C22.0851 56.243 21.2928 57.0684 20.4922 57.8796C19.0208 59.3687 17.0745 59.3772 15.5948 57.8825C14.3498 56.6231 13.1406 55.3297 11.9039 54.0675C11.5974 53.7526 11.2662 53.4491 10.9018 53.2137C9.69261 52.4337 8.35647 52.9925 8.00311 54.4135C7.90649 54.7993 7.91201 55.2077 7.82643 55.5963C7.50896 57.0173 6.70285 58.0384 5.31702 58.4129C3.79315 58.8241 2.49014 58.2455 1.46871 57.1024C0.438993 55.9509 0.0276596 54.5582 0.615673 53.0492C1.19817 51.5601 2.40732 50.9219 3.91462 50.7801C4.75937 50.7006 5.4799 50.366 5.82498 49.5008C6.18386 48.596 5.8581 47.8189 5.25352 47.1778C3.94499 45.788 2.5978 44.4322 1.26718 43.0622C-0.433365 41.3093 -0.422322 39.4259 1.30031 37.6985C2.51774 36.4789 3.73242 35.2592 4.9471 34.0367C5.1431 33.8382 5.34186 33.6368 5.50474 33.4127C6.58967 31.8924 5.96025 30.3295 4.14927 30.0204C3.69929 29.9438 3.22999 29.9183 2.80209 29.7651C1.54048 29.3141 0.687449 28.4235 0.455557 27.0506C0.198818 25.5275 0.761986 24.2511 1.88004 23.2754C2.96497 22.3308 4.24038 21.9876 5.60412 22.5294C7.001 23.0825 7.66079 24.2511 7.87888 25.7317C7.94237 26.1713 8.00863 26.628 8.17979 27.0251C8.60769 28.015 9.665 28.4093 10.6009 27.9157C11.0398 27.6832 11.4456 27.3456 11.8017 26.9882C13.1185 25.6721 14.405 24.3248 15.708 22.9917C16.9917 21.6813 18.9904 21.6643 20.2796 22.9719C21.5882 24.2965 22.8774 25.6438 24.1859 26.9684C24.462 27.2492 24.7573 27.5215 25.0831 27.7342C26.3116 28.5312 27.6008 28.0207 27.9983 26.5911C28.0618 26.3671 28.106 26.1316 28.1226 25.8962C28.2302 24.2511 29.0087 23.057 30.5105 22.5067C32.0454 21.9451 33.3788 22.5492 34.4444 23.681C35.5183 24.8241 35.9738 26.2281 35.3968 27.7768C34.8281 29.3056 33.5941 29.9636 32.0675 30.1055C31.1592 30.1905 30.4083 30.5196 30.066 31.4528C29.7182 32.4001 30.1295 33.1659 30.7479 33.8155C32.0979 35.2309 33.4782 36.6179 34.8419 38.019C36.3879 39.6074 36.3851 41.5305 34.8392 43.1274C33.9171 44.072 32.9978 45.0278 32.0261 46.0319Z" fill="#263148"/>
<path d="M34.1822 33.1758C34.0852 33.081 34.1572 32.9087 34.283 32.8582C37.6908 31.4894 38.8464 28.4889 38.6197 26.1953C38.311 23.0883 35.8841 20.4792 32.687 19.7682C29.9398 19.1557 27.7567 20.1811 25.7023 23.0947C25.3341 23.6169 24.5822 23.7202 24.1121 23.2873C23.2552 22.4983 22.3921 21.7141 21.6259 20.8472C20.6064 19.6962 20.8811 17.8204 22.096 16.6473C23.4354 15.3525 24.8089 14.0908 26.1597 12.8071C26.4258 12.5525 26.6892 12.2758 26.8818 11.966C27.7511 10.5826 26.9922 9.1107 25.3328 8.95299C24.302 8.85339 23.3335 8.61822 22.5717 7.8795C20.8188 6.17242 21.3399 3.28394 23.6365 1.92824C26.069 0.49507 28.7706 1.75117 29.1869 4.50961C29.2209 4.73648 29.2605 4.96335 29.3086 5.19023C29.4672 5.94555 29.7985 6.58466 30.5886 6.87794C31.4155 7.18505 32.1405 6.91114 32.7267 6.36056C34.2219 4.95782 35.6774 3.51635 37.1471 2.08595C38.6338 0.638941 40.5935 0.636174 42.083 2.08871C43.3347 3.30608 44.5835 4.52898 45.838 5.74357C46.0872 5.98705 46.3421 6.23329 46.6224 6.43803C47.2539 6.8973 47.9364 7.17121 48.7265 6.82537C49.5477 6.46569 49.8904 5.79614 49.9611 4.96335C50.1396 2.9215 51.2978 1.56303 53.079 1.31402C54.7271 1.08439 56.4942 2.09701 57.2984 3.73492C58.012 5.19299 57.7373 6.74513 56.5423 7.84076C55.8853 8.44115 55.0896 8.77592 54.1862 8.80912C53.2206 8.84509 52.3937 9.14943 52.0199 10.0652C51.6319 11.0142 52.051 11.8055 52.7477 12.4861C54.1098 13.8225 55.469 15.1671 56.8255 16.5117C58.3943 18.0666 58.3915 19.8788 56.817 21.431C55.5568 22.6733 54.2825 23.9045 53.0195 25.1412C52.8043 25.3515 52.5834 25.5673 52.405 25.8052C51.3431 27.2273 51.9632 28.7296 53.7416 29.0506C54.0645 29.1087 54.4014 29.1059 54.7186 29.1806C56.126 29.5182 57.1398 30.3012 57.4938 31.7233C57.8619 33.2062 57.3239 34.4596 56.2506 35.475C55.1406 36.5263 53.7813 36.9164 52.2861 36.3797C50.8107 35.8512 50.1027 34.7113 49.9328 33.2201C49.9045 32.9683 49.8592 32.7165 49.7997 32.473C49.4684 31.1671 48.129 30.5834 46.9368 31.2474C46.5743 31.4493 46.243 31.7233 45.9428 32.011C44.6147 33.2837 43.3064 34.5785 41.9811 35.8568C40.4264 37.3563 38.5517 37.3868 36.9801 35.9121C36.0286 35.0212 35.1111 34.0916 34.1822 33.1758V33.1758Z" stroke="#263148" stroke-width="2" stroke-linecap="round"/>
<path d="M45.9524 36.02C46.46 35.4997 47.3403 35.6788 47.714 36.3024C49.4143 39.1395 52.1559 39.8783 54.3785 39.4648C57.5067 38.8853 60.0845 35.9964 60.3611 32.8062C60.5508 30.6223 59.5346 28.0586 57.191 26.6453C56.5426 26.2543 56.3181 25.3135 56.8493 24.774C57.6363 23.9747 58.4109 23.1954 59.2686 22.5257C60.4302 21.6196 62.1949 21.9491 63.257 23.0229C64.5514 24.3324 65.8265 25.6647 67.1237 26.9743C67.45 27.3038 67.7985 27.6248 68.1885 27.8634C69.2755 28.5253 70.4261 28.1049 70.8908 26.8947C71.0069 26.5908 71.0816 26.2584 71.1065 25.9346C71.2337 24.2529 72.0525 23.0939 73.593 22.5399C74.929 22.0627 76.63 22.6962 77.6561 23.9688C78.6048 25.1449 78.9893 26.4686 78.4029 27.9174C77.8165 29.3718 76.6217 30.011 75.1475 30.1616C74.2486 30.2525 73.4603 30.5877 73.1201 31.5052C72.7771 32.4341 73.1809 33.2125 73.8171 33.8687C75.1143 35.2095 76.4253 36.5389 77.7225 37.8769C79.4291 39.6381 79.4263 41.4846 77.7114 43.2543C76.5276 44.4758 75.3328 45.6917 74.149 46.916C73.8918 47.183 73.6318 47.4614 73.4299 47.7739C72.5614 49.1261 73.1422 50.5635 74.6856 50.9072C75.0894 50.9953 75.507 51.0151 75.9053 51.1146C77.3104 51.4725 78.2867 52.3162 78.6076 53.8132C78.9395 55.3557 78.3504 56.617 77.2883 57.6226C76.2013 58.6538 74.8875 59.0174 73.4575 58.4578C72.0469 57.9067 71.3914 56.7335 71.184 55.2535C71.1452 54.9751 71.1342 54.6853 71.0623 54.4155C70.6778 52.9866 69.3723 52.4554 68.1526 53.2394C67.8068 53.4638 67.4888 53.7479 67.1956 54.0433C65.9482 55.3018 64.7201 56.5829 63.4782 57.8442C61.9625 59.3839 60.1288 59.3867 58.6048 57.8442C57.3739 56.6 56.1652 55.3359 54.9344 54.0916C54.6247 53.7791 54.2927 53.4752 53.9277 53.2394C52.6305 52.3986 51.1756 53.1201 50.9599 54.6853C50.9018 55.1058 50.8714 55.5347 50.7607 55.9409C50.0112 58.668 47.06 59.4946 44.8666 57.6056C43.6303 56.5403 43.0965 54.8501 43.539 53.4127C43.9816 51.9781 45.2649 51.0265 46.9521 50.8674C47.8261 50.785 48.5729 50.4612 48.9186 49.5635C49.2671 48.6574 48.9325 47.8818 48.3267 47.2398C46.9798 45.8167 45.5968 44.4304 44.2305 43.0242C42.5848 41.3312 42.5903 39.4478 44.2443 37.7547C44.8146 37.1831 45.3785 36.6082 45.9524 36.02Z" stroke="#263148" stroke-width="2" stroke-linecap="round"/>
</svg>
