<svg width="76" height="76" viewBox="0 0 76 76" fill="none" xmlns="http://www.w3.org/2000/svg">
<path d="M68.162 28.8325C68.6339 29.1194 69.249 28.9695 69.536 28.4976L74.212 20.8077C74.4989 20.3358 74.349 19.7206 73.8771 19.4337C73.4052 19.1467 72.7901 19.2967 72.5031 19.7686L68.3467 26.6041L61.5112 22.4476C61.0393 22.1607 60.4241 22.3106 60.1372 22.7825C59.8502 23.2544 60.0002 23.8695 60.4721 24.1565L68.162 28.8325ZM49.3705 8.63698C58.5397 11.5944 65.4836 19.0801 67.71 28.2148L69.6531 27.7413C67.2604 17.924 59.8078 9.90191 49.9844 6.73354L49.3705 8.63698Z" fill="#263148"/>
<path d="M8.35462 48.0215C7.88273 47.7346 7.26757 47.8845 6.98062 48.3564L2.30461 56.0463C2.01766 56.5182 2.16759 57.1334 2.63949 57.4203C3.11138 57.7073 3.72654 57.5573 4.01348 57.0854L8.16994 50.2499L15.0054 54.4064C15.4773 54.6934 16.0925 54.5434 16.3794 54.0715C16.6664 53.5996 16.5164 52.9845 16.0445 52.6975L8.35462 48.0215ZM27.1461 68.217C17.9769 65.2596 11.033 57.7739 8.80662 48.6392L6.8635 49.1128C9.25623 58.93 16.7088 66.9521 26.5322 70.1205L27.1461 68.217Z" fill="#263148"/>
<path d="M43 6C43 8.40516 40.8451 10.5 38 10.5C35.1549 10.5 33 8.40516 33 6C33 3.59484 35.1549 1.5 38 1.5C40.8451 1.5 43 3.59484 43 6Z" fill="white" stroke="#263148" stroke-width="2" stroke-linejoin="round"/>
<path d="M26.8864 7.96284C27.1421 7.47327 26.9524 6.86918 26.4628 6.61356L18.4849 2.44801C17.9953 2.19239 17.3912 2.38204 17.1356 2.87161C16.88 3.36118 17.0696 3.96527 17.5592 4.22089L24.6507 7.9236L20.948 15.0151C20.6924 15.5047 20.882 16.1088 21.3716 16.3644C21.8612 16.62 22.4653 16.4304 22.7209 15.9408L26.8864 7.96284ZM6.97024 28.7422C9.36475 19.1484 16.7505 11.452 26.2995 8.45409L25.7005 6.54591C15.5063 9.74634 7.59784 17.9688 5.02976 28.2578L6.97024 28.7422Z" fill="#263148"/>
<path d="M49.1136 69.0372C48.8579 69.5267 49.0476 70.1308 49.5372 70.3864L57.5151 74.552C58.0047 74.8076 58.6088 74.618 58.8644 74.1284C59.12 73.6388 58.9304 73.0347 58.4408 72.7791L51.3493 69.0764L55.052 61.9849C55.3076 61.4953 55.118 60.8912 54.6284 60.6356C54.1388 60.38 53.5347 60.5696 53.2791 61.0592L49.1136 69.0372ZM69.0298 48.2578C66.6352 57.8516 59.2495 65.548 49.7005 68.5459L50.2995 70.4541C60.4937 67.2537 68.4022 59.0312 70.9702 48.7422L69.0298 48.2578Z" fill="#263148"/>
<circle cx="38" cy="5.97753" r="4.97753" fill="white" stroke="#263148" stroke-width="2" stroke-linejoin="round"/>
<circle cx="38" cy="70.0225" r="4.97753" fill="white" stroke="#263148" stroke-width="2" stroke-linejoin="round"/>
<circle cx="5.97753" cy="38" r="4.97753" transform="rotate(-90 5.97753 38)" fill="white" stroke="#263148" stroke-width="2" stroke-linejoin="round"/>
<circle cx="70.0225" cy="38" r="4.97753" transform="rotate(-90 70.0225 38)" fill="white" stroke="#263148" stroke-width="2" stroke-linejoin="round"/>
<path fill-rule="evenodd" clip-rule="evenodd" d="M35.9827 22.5C35.4851 22.5 35.0632 22.8659 34.9928 23.3586L34.6405 25.8249C34.5852 26.2118 34.3082 26.5276 33.94 26.6585C33.6754 26.7526 33.415 26.8557 33.1592 26.9673C32.8124 27.1186 32.4088 27.0852 32.1061 26.8581L30.1273 25.374C29.7292 25.0754 29.1721 25.115 28.8202 25.4669L25.9672 28.3199C25.6154 28.6717 25.5758 29.2288 25.8744 29.627L27.1755 31.3618C27.4185 31.6858 27.4386 32.1226 27.2512 32.4817C27.0725 32.8243 26.9097 33.1765 26.7638 33.5374C26.6234 33.8846 26.3166 34.1416 25.9458 34.1946L23.8586 34.4928C23.3659 34.5632 23 34.9851 23 35.4827V39.5174C23 40.015 23.3659 40.437 23.8586 40.5073L25.5248 40.7454C25.9329 40.8037 26.2596 41.1077 26.376 41.5032C26.5302 42.0271 26.7188 42.5362 26.9392 43.0279C27.0956 43.3767 27.0639 43.785 26.8346 44.0908L25.8729 45.3731C25.5743 45.7712 25.6139 46.3283 25.9658 46.6802L28.8187 49.5331C29.1706 49.885 29.7277 49.9246 30.1258 49.626L31.1718 48.8415C31.4988 48.5963 31.9404 48.5782 32.301 48.7708C32.8742 49.0769 33.4749 49.3383 34.0985 49.5503C34.4736 49.6778 34.7573 49.9964 34.8133 50.3887L34.9923 51.6414C35.0627 52.1341 35.4846 52.5 35.9822 52.5H40.0169C40.5145 52.5 40.9364 52.1341 41.0068 51.6414L41.1857 50.389C41.2418 49.9968 41.5255 49.6782 41.9006 49.5507C42.5245 49.3386 43.1255 49.0772 43.6989 48.771C44.0595 48.5784 44.5011 48.5964 44.8281 48.8417L45.8738 49.626C46.2719 49.9245 46.829 49.885 47.1809 49.5331L50.0338 46.6801C50.3857 46.3282 50.4253 45.7712 50.1267 45.373L49.1653 44.0912C48.936 43.7854 48.9044 43.3771 49.0607 43.0283C49.2813 42.5364 49.47 42.0271 49.6242 41.503C49.7406 41.1075 50.0673 40.8035 50.4755 40.7451L52.1414 40.5072C52.6341 40.4368 53 40.0149 53 39.5172V35.4826C53 34.9849 52.6341 34.563 52.1414 34.4926L50.0543 34.1945C49.6835 34.1415 49.3767 33.8844 49.2363 33.5373C49.0902 33.176 48.9271 32.8233 48.7482 32.4803C48.5608 32.1212 48.5809 31.6843 48.8239 31.3602L50.1238 29.627C50.4224 29.2289 50.3828 28.6718 50.0309 28.3199L47.178 25.467C46.8261 25.1151 46.269 25.0755 45.8709 25.3741L43.8929 26.8576C43.5902 27.0846 43.1867 27.1181 42.8398 26.9668C42.5844 26.8554 42.3244 26.7525 42.0601 26.6585C41.6919 26.5276 41.4149 26.2118 41.3597 25.8249L41.0073 23.3586C40.9369 22.8659 40.515 22.5 40.0174 22.5H35.9827ZM38 43.9286C41.5504 43.9286 44.4286 41.0504 44.4286 37.5C44.4286 33.9496 41.5504 31.0714 38 31.0714C34.4496 31.0714 31.5714 33.9496 31.5714 37.5C31.5714 41.0504 34.4496 43.9286 38 43.9286Z" fill="#263148"/>
<path d="M34.9928 23.3586L35.9827 23.5V23.5L34.9928 23.3586ZM34.6405 25.8249L33.6505 25.6835V25.6835L34.6405 25.8249ZM33.94 26.6585L33.6049 25.7163H33.6049L33.94 26.6585ZM33.1592 26.9673L32.7593 26.0507L32.7593 26.0507L33.1592 26.9673ZM32.1061 26.8581L31.5061 27.6581L32.1061 26.8581ZM30.1273 25.374L30.7273 24.574V24.574L30.1273 25.374ZM28.8202 25.4669L28.1131 24.7598V24.7598L28.8202 25.4669ZM25.8744 29.627L25.0744 30.227H25.0744L25.8744 29.627ZM27.1755 31.3618L27.9755 30.7618H27.9755L27.1755 31.3618ZM27.2512 32.4817L26.3646 32.0193H26.3646L27.2512 32.4817ZM26.7638 33.5374L27.6909 33.9123L26.7638 33.5374ZM25.9458 34.1946L25.8044 33.2047H25.8044L25.9458 34.1946ZM23.8586 34.4928L24 35.4827H24L23.8586 34.4928ZM23.8586 40.5073L24 39.5174H24L23.8586 40.5073ZM25.5248 40.7454L25.3833 41.7353H25.3833L25.5248 40.7454ZM26.376 41.5032L25.4167 41.7855H25.4167L26.376 41.5032ZM26.9392 43.0279L26.0267 43.437H26.0267L26.9392 43.0279ZM26.8346 44.0908L26.0346 43.4908L26.0346 43.4908L26.8346 44.0908ZM25.8729 45.3731L26.6729 45.9731H26.6729L25.8729 45.3731ZM25.9658 46.6802L26.6729 45.9731H26.6729L25.9658 46.6802ZM28.8187 49.5331L29.5258 48.826L29.5258 48.826L28.8187 49.5331ZM30.1258 49.626L30.7258 50.426L30.7258 50.426L30.1258 49.626ZM31.1718 48.8415L30.5718 48.0415H30.5718L31.1718 48.8415ZM32.301 48.7708L32.772 47.8887L32.772 47.8887L32.301 48.7708ZM34.0985 49.5503L33.7766 50.4971L33.7766 50.4971L34.0985 49.5503ZM34.8133 50.3887L35.8033 50.2473V50.2473L34.8133 50.3887ZM34.9923 51.6414L34.0023 51.7828V51.7828L34.9923 51.6414ZM41.0068 51.6414L41.9968 51.7828V51.7828L41.0068 51.6414ZM41.1857 50.389L42.1757 50.5305L41.1857 50.389ZM41.9006 49.5507L41.5789 48.6038H41.5789L41.9006 49.5507ZM43.6989 48.771L44.17 49.6531L44.17 49.6531L43.6989 48.771ZM44.8281 48.8417L45.4281 48.0417L45.4281 48.0417L44.8281 48.8417ZM45.8738 49.626L45.2738 50.426L45.8738 49.626ZM50.1267 45.373L50.9267 44.773L50.9267 44.773L50.1267 45.373ZM49.1653 44.0912L48.3653 44.6912L49.1653 44.0912ZM49.0607 43.0283L48.1483 42.6192L49.0607 43.0283ZM49.6242 41.503L50.5836 41.7853V41.7853L49.6242 41.503ZM50.4755 40.7451L50.6169 41.7351H50.6169L50.4755 40.7451ZM52.1414 40.5072L52 39.5172H52L52.1414 40.5072ZM52.1414 34.4926L52 35.4826H52L52.1414 34.4926ZM50.0543 34.1945L50.1957 33.2045H50.1957L50.0543 34.1945ZM49.2363 33.5373L48.3092 33.9122V33.9122L49.2363 33.5373ZM48.7482 32.4803L47.8616 32.9429L47.8616 32.9429L48.7482 32.4803ZM48.8239 31.3602L49.6239 31.9602L49.6239 31.9602L48.8239 31.3602ZM50.1238 29.627L50.9238 30.227L50.1238 29.627ZM50.0309 28.3199L49.3238 29.027L49.3238 29.027L50.0309 28.3199ZM47.178 25.467L47.8851 24.7599L47.8851 24.7599L47.178 25.467ZM45.8709 25.3741L45.2709 24.5741L45.2709 24.5741L45.8709 25.3741ZM43.8929 26.8576L43.2929 26.0576L43.8929 26.8576ZM42.8398 26.9668L42.44 27.8834L42.44 27.8834L42.8398 26.9668ZM42.0601 26.6585L42.3952 25.7163L42.3952 25.7163L42.0601 26.6585ZM41.3597 25.8249L42.3496 25.6835V25.6835L41.3597 25.8249ZM41.0073 23.3586L40.0174 23.5V23.5L41.0073 23.3586ZM35.9827 23.5V23.5V21.5C34.9874 21.5 34.1436 22.2319 34.0028 23.2172L35.9827 23.5ZM35.6304 25.9663L35.9827 23.5L34.0028 23.2172L33.6505 25.6835L35.6304 25.9663ZM34.275 27.6007C34.9648 27.3555 35.5184 26.7503 35.6304 25.9663L33.6505 25.6835C33.6509 25.6806 33.6519 25.6827 33.6458 25.6899C33.6388 25.6981 33.6253 25.7091 33.6049 25.7163L34.275 27.6007ZM33.5591 27.8838C33.7937 27.7815 34.0324 27.687 34.275 27.6007L33.6049 25.7163C33.3183 25.8183 33.0363 25.9299 32.7593 26.0507L33.5591 27.8838ZM31.5061 27.6581C32.1193 28.118 32.9089 28.1676 33.5591 27.8838L32.7593 26.0507C32.7402 26.059 32.7237 26.0604 32.7135 26.0594C32.7046 26.0585 32.7038 26.0564 32.7061 26.0581L31.5061 27.6581ZM29.5273 26.174L31.5061 27.6581L32.7061 26.0581L30.7273 24.574L29.5273 26.174ZM29.5273 26.174L29.5273 26.174L30.7273 24.574C29.931 23.9769 28.8168 24.056 28.1131 24.7598L29.5273 26.174ZM26.6744 29.027L29.5273 26.174L28.1131 24.7598L25.2601 27.6127L26.6744 29.027ZM26.6744 29.027L26.6744 29.027L25.2601 27.6127C24.5564 28.3165 24.4772 29.4307 25.0744 30.227L26.6744 29.027ZM27.9755 30.7618L26.6744 29.027L25.0744 30.227L26.3755 31.9618L27.9755 30.7618ZM28.1379 32.9442C28.4885 32.272 28.4679 31.4184 27.9755 30.7618L26.3755 31.9618C26.3755 31.9618 26.3755 31.9618 26.3755 31.9618C26.3754 31.9617 26.3754 31.9617 26.3754 31.9617C26.3754 31.9617 26.3754 31.9616 26.3753 31.9616C26.3753 31.9615 26.3752 31.9614 26.3751 31.9612C26.375 31.961 26.375 31.961 26.3752 31.9613C26.3754 31.962 26.3763 31.9648 26.3766 31.9701C26.3773 31.9814 26.375 31.9994 26.3646 32.0193L28.1379 32.9442ZM27.6909 33.9123C27.8247 33.5814 27.974 33.2584 28.1379 32.9442L26.3646 32.0193C26.1711 32.3902 25.9948 32.7717 25.8368 33.1625L27.6909 33.9123ZM26.0873 35.1846C26.8382 35.0773 27.4276 34.5633 27.6909 33.9123L25.8368 33.1625C25.829 33.1816 25.8183 33.194 25.8105 33.2003C25.8036 33.2059 25.8016 33.2051 25.8044 33.2047L26.0873 35.1846ZM24 35.4827L26.0873 35.1846L25.8044 33.2047L23.7172 33.5028L24 35.4827ZM24 35.4827L24 35.4827L23.7172 33.5028C22.7319 33.6436 22 34.4874 22 35.4827H24ZM24 39.5174V35.4827H22V39.5174H24ZM24 39.5174L24 39.5174H22C22 40.5127 22.7319 41.3565 23.7172 41.4973L24 39.5174ZM25.6662 39.7554L24 39.5174L23.7172 41.4973L25.3833 41.7353L25.6662 39.7554ZM27.3353 41.2209C27.1176 40.4812 26.4935 39.8736 25.6662 39.7554L25.3833 41.7353C25.3833 41.7353 25.3833 41.7353 25.3831 41.7353C25.383 41.7352 25.3829 41.7352 25.3828 41.7352C25.3825 41.7351 25.3825 41.7351 25.3828 41.7352C25.3835 41.7355 25.3862 41.7369 25.3902 41.7406C25.399 41.7485 25.4102 41.7635 25.4167 41.7855L27.3353 41.2209ZM27.8517 42.6188C27.6496 42.1679 27.4766 41.7011 27.3353 41.2209L25.4167 41.7855C25.5837 42.353 25.788 42.9044 26.0267 43.437L27.8517 42.6188ZM27.6346 44.6908C28.0992 44.0714 28.1448 43.2726 27.8517 42.6188L26.0267 43.437C26.0353 43.4562 26.0368 43.4729 26.0358 43.4832C26.035 43.4923 26.0329 43.4931 26.0346 43.4908L27.6346 44.6908ZM26.6729 45.9731L27.6346 44.6908L26.0346 43.4908L25.0729 44.7731L26.6729 45.9731ZM26.6729 45.9731L26.6729 45.9731L25.0729 44.7731C24.4757 45.5694 24.5549 46.6835 25.2586 47.3873L26.6729 45.9731ZM29.5258 48.826L26.6729 45.9731L25.2586 47.3873L28.1116 50.2403L29.5258 48.826ZM29.5258 48.826L29.5258 48.826L28.1116 50.2402C28.8154 50.944 29.9295 51.0232 30.7258 50.426L29.5258 48.826ZM30.5718 48.0415L29.5258 48.826L30.7258 50.426L31.7718 49.6415L30.5718 48.0415ZM32.772 47.8887C32.0972 47.5283 31.2345 47.5445 30.5718 48.0415L31.7718 49.6415C31.7718 49.6415 31.7717 49.6416 31.7716 49.6416C31.7715 49.6417 31.7714 49.6418 31.7713 49.6418C31.771 49.642 31.771 49.642 31.7714 49.6418C31.772 49.6416 31.7749 49.6407 31.7802 49.6404C31.7917 49.6397 31.81 49.6423 31.8299 49.6529L32.772 47.8887ZM34.4204 48.6035C33.8487 48.4092 33.2978 48.1695 32.772 47.8887L31.8299 49.6529C32.4506 49.9844 33.1012 50.2675 33.7766 50.4971L34.4204 48.6035ZM35.8033 50.2473C35.6897 49.4524 35.1228 48.8423 34.4204 48.6035L33.7766 50.4971C33.7974 50.5042 33.8113 50.5152 33.8185 50.5236C33.8248 50.5309 33.8238 50.533 33.8234 50.5301L35.8033 50.2473ZM35.9822 51.5L35.8033 50.2473L33.8234 50.5301L34.0023 51.7828L35.9822 51.5ZM35.9822 51.5H35.9822L34.0023 51.7828C34.1431 52.7681 34.9869 53.5 35.9822 53.5V51.5ZM40.0169 51.5H35.9822V53.5H40.0169V51.5ZM40.0169 51.5V51.5V53.5C41.0122 53.5 41.856 52.7681 41.9968 51.7828L40.0169 51.5ZM40.1958 50.2476L40.0169 51.5L41.9968 51.7828L42.1757 50.5305L40.1958 50.2476ZM41.5789 48.6038C40.8764 48.8426 40.3093 49.4527 40.1958 50.2476L42.1757 50.5305C42.1753 50.5334 42.1742 50.5312 42.1805 50.524C42.1877 50.5156 42.2016 50.5045 42.2224 50.4975L41.5789 48.6038ZM43.2279 47.8888C42.7019 48.1697 42.1508 48.4095 41.5789 48.6038L42.2224 50.4975C42.8982 50.2678 43.5491 49.9846 44.17 49.6531L43.2279 47.8888ZM45.4281 48.0417C44.7653 47.5446 43.9027 47.5285 43.2279 47.8889L44.17 49.6531C44.1899 49.6424 44.2081 49.6399 44.2197 49.6405C44.225 49.6409 44.2278 49.6418 44.2285 49.642C44.2288 49.6421 44.2288 49.6421 44.2286 49.642C44.2285 49.6419 44.2284 49.6419 44.2283 49.6418C44.2281 49.6417 44.2281 49.6417 44.2281 49.6417L45.4281 48.0417ZM46.4738 48.826L45.4281 48.0417L44.2281 49.6417L45.2738 50.426L46.4738 48.826ZM46.4738 48.826L46.4738 48.826L45.2738 50.426C46.07 51.0231 47.1842 50.9439 47.888 50.2402L46.4738 48.826ZM49.3267 45.973L46.4738 48.826L47.888 50.2402L50.7409 47.3872L49.3267 45.973ZM49.3267 45.973V45.973L50.7409 47.3872C51.4447 46.6835 51.5239 45.5693 50.9267 44.773L49.3267 45.973ZM48.3653 44.6912L49.3267 45.973L50.9267 44.773L49.9653 43.4912L48.3653 44.6912ZM48.1483 42.6192C47.8551 43.273 47.9008 44.0718 48.3653 44.6912L49.9653 43.4912C49.9671 43.4935 49.965 43.4928 49.9641 43.4837C49.9632 43.4734 49.9646 43.4566 49.9732 43.4374L48.1483 42.6192ZM48.6649 41.2207C48.5235 41.7012 48.3505 42.1681 48.1483 42.6192L49.9732 43.4374C50.2121 42.9047 50.4165 42.353 50.5836 41.7853L48.6649 41.2207ZM50.334 39.7552C49.5067 39.8734 48.8826 40.481 48.6649 41.2207L50.5836 41.7853C50.59 41.7633 50.6012 41.7483 50.61 41.7404C50.6141 41.7367 50.6167 41.7353 50.6174 41.735C50.6177 41.7349 50.6177 41.7349 50.6175 41.735C50.6173 41.735 50.6172 41.735 50.6171 41.7351C50.6169 41.7351 50.6169 41.7351 50.6169 41.7351L50.334 39.7552ZM52 39.5172L50.334 39.7552L50.6169 41.7351L52.2828 41.4971L52 39.5172ZM52 39.5172H52L52.2828 41.4971C53.2681 41.3564 54 40.5125 54 39.5172H52ZM52 35.4826V39.5172H54V35.4826H52ZM52 35.4826H54C54 34.4873 53.2681 33.6434 52.2828 33.5027L52 35.4826ZM49.9128 35.1844L52 35.4826L52.2828 33.5027L50.1957 33.2045L49.9128 35.1844ZM48.3092 33.9122C48.5725 34.5632 49.1619 35.0771 49.9128 35.1844L50.1957 33.2045C50.1985 33.2049 50.1965 33.2058 50.1896 33.2002C50.1818 33.1938 50.1711 33.1814 50.1633 33.1623L48.3092 33.9122ZM47.8616 32.9429C48.0258 33.2575 48.1753 33.5809 48.3092 33.9122L50.1633 33.1623C50.0051 32.771 49.8285 32.3891 49.6348 32.0177L47.8616 32.9429ZM48.0239 30.7602C47.5314 31.4169 47.5108 32.2706 47.8616 32.9429L49.6348 32.0177C49.6244 31.9979 49.622 31.9799 49.6227 31.9685C49.6231 31.9633 49.624 31.9605 49.6242 31.9598C49.6243 31.9595 49.6243 31.9595 49.6242 31.9597C49.6242 31.9598 49.6241 31.9599 49.624 31.9601C49.624 31.9601 49.624 31.9602 49.6239 31.9602C49.6239 31.9602 49.6239 31.9602 49.6239 31.9602C49.6239 31.9602 49.6239 31.9602 49.6239 31.9602L48.0239 30.7602ZM49.3238 29.027L48.0239 30.7602L49.6239 31.9602L50.9238 30.227L49.3238 29.027ZM49.3238 29.027H49.3238L50.9238 30.227C51.521 29.4308 51.4418 28.3166 50.738 27.6128L49.3238 29.027ZM46.4709 26.1741L49.3238 29.027L50.738 27.6128L47.8851 24.7599L46.4709 26.1741ZM46.4709 26.1741H46.4709L47.8851 24.7599C47.1813 24.0561 46.0671 23.9769 45.2709 24.5741L46.4709 26.1741ZM44.4929 27.6576L46.4709 26.1741L45.2709 24.5741L43.2929 26.0576L44.4929 27.6576ZM42.44 27.8834C43.0902 28.167 43.8797 28.1175 44.4929 27.6576L43.2929 26.0576C43.2951 26.0559 43.2944 26.058 43.2855 26.0588C43.2753 26.0598 43.2587 26.0585 43.2397 26.0502L42.44 27.8834ZM41.7251 27.6007C41.9674 27.6869 42.2058 27.7812 42.44 27.8834L43.2397 26.0502C42.963 25.9295 42.6814 25.8181 42.3952 25.7163L41.7251 27.6007ZM40.3697 25.9663C40.4817 26.7503 41.0353 27.3554 41.7251 27.6007L42.3952 25.7163C42.3748 25.7091 42.3613 25.6981 42.3543 25.6899C42.3482 25.6827 42.3492 25.6806 42.3496 25.6835L40.3697 25.9663ZM40.0174 23.5L40.3697 25.9663L42.3496 25.6835L41.9973 23.2172L40.0174 23.5ZM40.0174 23.5V23.5L41.9973 23.2172C41.8565 22.2319 41.0127 21.5 40.0174 21.5V23.5ZM35.9827 23.5H40.0174V21.5H35.9827V23.5ZM43.4286 37.5C43.4286 40.4981 40.9981 42.9286 38 42.9286V44.9286C42.1027 44.9286 45.4286 41.6027 45.4286 37.5H43.4286ZM38 32.0714C40.9981 32.0714 43.4286 34.5019 43.4286 37.5H45.4286C45.4286 33.3973 42.1027 30.0714 38 30.0714V32.0714ZM32.5714 37.5C32.5714 34.5019 35.0019 32.0714 38 32.0714V30.0714C33.8973 30.0714 30.5714 33.3973 30.5714 37.5H32.5714ZM38 42.9286C35.0019 42.9286 32.5714 40.4981 32.5714 37.5H30.5714C30.5714 41.6027 33.8973 44.9286 38 44.9286V42.9286Z" fill="#263148"/>
</svg>
