<svg width="480" height="248" viewBox="0 0 480 248" fill="none" xmlns="http://www.w3.org/2000/svg">
<rect width="480" height="248" fill="#EDEDED"/>
<circle cx="331.714" cy="148.755" r="72" fill="#D9D9D9"/>
<g filter="url(#filter0_d_1518_385)">
<rect x="99.7146" y="47.7551" width="243" height="143" rx="6.53333" fill="white"/>
</g>
<rect x="106.715" y="54.7551" width="71" height="129" rx="3.26667" fill="#6A96C2"/>
<rect x="184.714" y="54.7551" width="151" height="129" rx="3.26667" fill="#EBF2F8"/>
<rect x="271.715" y="54.7551" width="50" height="44" fill="#BADDBF"/>
<rect x="198.714" y="161.755" width="44" height="22" fill="#BADDBF"/>
<path d="M195.714 50.7551V187.755M271.345 51.7813V78.9761M271.345 78.9761V101.04M271.345 78.9761H225.04M271.345 101.04L243.562 128.748M271.345 101.04L337.714 168.257M271.345 101.04H321.765M243.562 128.748L225.04 78.9761M243.562 128.748V161.587M195.714 78.9761H225.04M225.04 78.9761V51.7813M243.562 161.587V187.242M243.562 161.587H195.714M321.765 101.04H337.714M321.765 101.04V51.7813" stroke="white" stroke-width="11.4333"/>
<path fill-rule="evenodd" clip-rule="evenodd" d="M278.215 154.255C278.215 154.255 284.715 146.845 284.715 143.255C284.715 139.665 281.804 136.755 278.215 136.755C274.625 136.755 271.715 139.665 271.715 143.255C271.715 146.845 278.215 154.255 278.215 154.255ZM278.214 145.755C279.595 145.755 280.714 144.636 280.714 143.255C280.714 141.874 279.595 140.755 278.214 140.755C276.834 140.755 275.714 141.874 275.714 143.255C275.714 144.636 276.834 145.755 278.214 145.755Z" fill="#6A96C2"/>
<path fill-rule="evenodd" clip-rule="evenodd" d="M387.715 136.986C387.715 136.986 409.715 111.905 409.715 99.7551C409.715 87.6049 399.865 77.7551 387.715 77.7551C375.564 77.7551 365.715 87.6049 365.715 99.7551C365.715 111.905 387.715 136.986 387.715 136.986ZM387.715 108.217C392.388 108.217 396.176 104.428 396.176 99.7551C396.176 95.0819 392.388 91.2935 387.715 91.2935C383.042 91.2935 379.253 95.0819 379.253 99.7551C379.253 104.428 383.042 108.217 387.715 108.217Z" fill="#6A96C2"/>
<path d="M314.601 176.579C313.551 175.553 311.785 176.324 311.826 177.792L312.395 198.383C312.434 199.792 314.119 200.493 315.146 199.529L316.704 198.066C317.528 197.292 318.87 197.569 319.32 198.606L322.2 205.235C322.563 206.071 323.54 206.448 324.371 206.072L326.725 205.008C327.539 204.64 327.906 203.688 327.55 202.869L324.625 196.135C324.182 195.116 324.865 193.961 325.972 193.858L328.202 193.65C329.588 193.521 330.188 191.83 329.193 190.857L314.601 176.579Z" fill="#6A96C2"/>
<rect x="116.714" y="63.7551" width="51" height="3" rx="1.5" fill="#99BFE6"/>
<rect x="116.714" y="70.7551" width="51" height="3" rx="1.5" fill="#99BFE6"/>
<rect x="116.714" y="77.7551" width="51" height="3" rx="1.5" fill="#99BFE6"/>
<rect x="116.714" y="84.7551" width="51" height="3" rx="1.5" fill="#99BFE6"/>
<rect x="116.714" y="91.7551" width="51" height="3" rx="1.5" fill="#99BFE6"/>
<rect x="116.714" y="98.7551" width="27" height="3" rx="1.5" fill="#99BFE6"/>
<rect x="85.7144" y="133.755" width="37" height="37" rx="3.26667" fill="#BADDBF"/>
<rect x="102.714" y="160.755" width="17" height="3" rx="1.5" transform="rotate(-90 102.714 160.755)" fill="white"/>
<rect x="112.714" y="153.755" width="17" height="3" rx="1.5" transform="rotate(180 112.714 153.755)" fill="white"/>
<defs>
<filter id="filter0_d_1518_385" x="86.6479" y="37.9551" width="269.133" height="169.133" filterUnits="userSpaceOnUse" color-interpolation-filters="sRGB">
<feFlood flood-opacity="0" result="BackgroundImageFix"/>
<feColorMatrix in="SourceAlpha" type="matrix" values="0 0 0 0 0 0 0 0 0 0 0 0 0 0 0 0 0 0 127 0" result="hardAlpha"/>
<feOffset dy="3.26667"/>
<feGaussianBlur stdDeviation="6.53333"/>
<feComposite in2="hardAlpha" operator="out"/>
<feColorMatrix type="matrix" values="0 0 0 0 0 0 0 0 0 0 0 0 0 0 0 0 0 0 0.05 0"/>
<feBlend mode="normal" in2="BackgroundImageFix" result="effect1_dropShadow_1518_385"/>
<feBlend mode="normal" in="SourceGraphic" in2="effect1_dropShadow_1518_385" result="shape"/>
</filter>
</defs>
</svg>
