<svg width="73" height="71" viewBox="0 0 73 71" fill="none" xmlns="http://www.w3.org/2000/svg">
<circle cx="35.5" cy="35.5" r="34.5" stroke="#263148" stroke-width="2"/>
<path d="M11 12C17.3385 15.7141 25.9779 18 35.5 18C45.0221 18 53.6615 15.7141 60 12" stroke="#263148" stroke-width="2"/>
<path d="M11 59C17.3385 55.2859 25.9779 53 35.5 53C45.0221 53 53.6615 55.2859 60 59" stroke="#263148" stroke-width="2"/>
<path d="M51 35.5C51 45.1911 49.1722 53.9161 46.2604 60.1808C43.3103 66.5281 39.4349 70 35.5 70C31.5651 70 27.6897 66.5281 24.7396 60.1808C21.8278 53.9161 20 45.1911 20 35.5C20 25.8089 21.8278 17.0839 24.7396 10.8192C27.6897 4.47191 31.5651 1 35.5 1C39.4349 1 43.3103 4.47191 46.2604 10.8192C49.1722 17.0839 51 25.8089 51 35.5Z" stroke="#263148" stroke-width="2"/>
<path d="M69.5 36H1" stroke="#263148" stroke-width="2"/>
<circle cx="43.5" cy="42.5" r="16.5" fill="white" stroke="#263148" stroke-width="6"/>
<path d="M56 55L70 68" stroke="#263148" stroke-width="6" stroke-linecap="round" stroke-linejoin="round"/>
</svg>
