<svg width="44" height="41" viewBox="0 0 44 41" fill="none" xmlns="http://www.w3.org/2000/svg">
<path d="M-nan -nanL1 2.97937V27.3782C1 27.903 1.20741 28.4063 1.57633 28.7774C1.94525 29.1485 2.44535 29.3569 2.96708 29.3569H6.10667C6.52728 29.3569 6.86826 29.6979 6.86826 30.1185V34.3395C6.86826 35.0526 7.76064 35.3746 8.21598 34.8258L12.5248 29.6322C12.6695 29.4578 12.8843 29.3569 13.1109 29.3569H34.3422C34.8639 29.3569 35.3644 29.1485 35.7334 28.7774C36.1023 28.4063 36.3093 27.903 36.3093 27.3782V2.97937C36.3093 2.45457 36.1023 1.95128 35.7334 1.5802C35.3644 1.20911 34.8639 1.00064 34.3422 1.00064H3.01714C2.75463 0.993924 2.49358 1.04013 2.24911 1.13656C2.00464 1.23299 1.78183 1.37766 1.59383 1.56208C1.40583 1.7465 1.25623 1.9669 1.15426 2.21031C1.05228 2.45372 0.999915 2.71523 1 2.97937L-nan -nanL-nan -nanZ" stroke="#1F2147" stroke-width="2" stroke-linejoin="round"/>
<path d="M36.8986 7.06074H40.1809C40.4253 7.05862 40.668 7.10609 40.8944 7.20039C41.1208 7.29469 41.3268 7.43397 41.5003 7.61017C41.6739 7.78638 41.8116 7.99601 41.9056 8.22701C41.9996 8.45802 42.0481 8.70579 42.0481 8.95605V32.3264C42.0481 32.5766 41.9996 32.8244 41.9056 33.0554C41.8116 33.2864 41.6739 33.4961 41.5003 33.6723C41.3268 33.8485 41.1208 33.9878 40.8944 34.0821C40.668 34.1763 40.4253 34.2238 40.1809 34.2217H37.2716C36.851 34.2217 36.5101 34.5627 36.5101 34.9833V38.8554C36.5101 39.5724 35.6097 39.8921 35.1575 39.3358L31.2163 34.4869C31.0717 34.3089 30.8546 34.2056 30.6253 34.2056H17.339C16.8481 34.2056 16.3771 34.0059 16.0299 33.6505C15.6827 33.2951 15.4875 32.813 15.4875 32.3103V28.5555" stroke="#1F2147" stroke-width="2" stroke-linejoin="round"/>
<path d="M8.52515 8.55493H29.3634" stroke="#1F2147" stroke-width="2" stroke-linejoin="round"/>
<path d="M8.52515 14.9474H29.3634" stroke="#1F2147" stroke-width="2" stroke-linejoin="round"/>
<path d="M8.52515 21.9215H22.4173" stroke="#1F2147" stroke-width="2" stroke-linejoin="round"/>
</svg>
