<svg width="80" height="80" viewBox="0 0 80 80" fill="none" xmlns="http://www.w3.org/2000/svg">
<path d="M79 40C79 61.5391 61.5391 79 40 79C18.4609 79 1 61.5391 1 40C1 18.4609 18.4609 1 40 1C61.5391 1 79 18.4609 79 40Z" stroke="#263148" stroke-width="2"/>
<path d="M72 40C72 57.6731 57.6731 72 40 72C22.3269 72 8 57.6731 8 40C8 22.3269 22.3269 8 40 8C57.6731 8 72 22.3269 72 40Z" stroke="#263148" stroke-width="2"/>
<path d="M40 47C47.732 47 54 40.9558 54 33.5C54 26.0442 47.732 20 40 20C32.268 20 26 26.0442 26 33.5C26 40.9558 32.268 47 40 47Z" stroke="#263148" stroke-width="6" stroke-linejoin="round"/>
<path d="M15 59C17.9974 55.256 21.8007 52.2333 26.1285 50.156C30.4562 48.0786 35.1975 47 40 47C44.8025 47 49.5431 48.0786 53.8709 50.156C58.1987 52.2333 62.0026 55.256 65 59" stroke="#263148" stroke-width="6" stroke-linejoin="round"/>
</svg>
