<svg width="76" height="76" viewBox="0 0 76 76" fill="none" xmlns="http://www.w3.org/2000/svg">
<path d="M68.162 28.8325C68.6339 29.1194 69.249 28.9695 69.536 28.4976L74.212 20.8077C74.4989 20.3358 74.349 19.7206 73.8771 19.4337C73.4052 19.1467 72.7901 19.2967 72.5031 19.7686L68.3467 26.6041L61.5112 22.4476C61.0393 22.1607 60.4241 22.3106 60.1372 22.7825C59.8502 23.2544 60.0002 23.8695 60.4721 24.1565L68.162 28.8325ZM49.3705 8.63698C58.5397 11.5944 65.4836 19.0801 67.71 28.2148L69.6531 27.7413C67.2604 17.924 59.8078 9.90191 49.9844 6.73354L49.3705 8.63698Z" fill="#263148"/>
<path d="M8.35462 48.0215C7.88273 47.7346 7.26757 47.8845 6.98062 48.3564L2.30461 56.0463C2.01766 56.5182 2.16759 57.1334 2.63949 57.4203C3.11138 57.7073 3.72654 57.5573 4.01348 57.0854L8.16994 50.2499L15.0054 54.4064C15.4773 54.6934 16.0925 54.5434 16.3794 54.0715C16.6664 53.5996 16.5164 52.9845 16.0445 52.6975L8.35462 48.0215ZM27.1461 68.217C17.9769 65.2596 11.033 57.7739 8.80662 48.6392L6.8635 49.1128C9.25623 58.93 16.7088 66.9521 26.5322 70.1205L27.1461 68.217Z" fill="#263148"/>
<path d="M43 6C43 8.40516 40.8451 10.5 38 10.5C35.1549 10.5 33 8.40516 33 6C33 3.59484 35.1549 1.5 38 1.5C40.8451 1.5 43 3.59484 43 6Z" fill="white" stroke="#263148" stroke-width="2" stroke-linejoin="round"/>
<path d="M26.8864 7.96284C27.1421 7.47327 26.9524 6.86918 26.4628 6.61356L18.4849 2.44801C17.9953 2.19239 17.3912 2.38204 17.1356 2.87161C16.88 3.36118 17.0696 3.96527 17.5592 4.22089L24.6507 7.9236L20.948 15.0151C20.6924 15.5047 20.882 16.1088 21.3716 16.3644C21.8612 16.62 22.4653 16.4304 22.7209 15.9408L26.8864 7.96284ZM6.97024 28.7422C9.36475 19.1484 16.7505 11.452 26.2995 8.45409L25.7005 6.54591C15.5063 9.74634 7.59784 17.9688 5.02976 28.2578L6.97024 28.7422Z" fill="#263148"/>
<path d="M49.1136 69.0372C48.8579 69.5267 49.0476 70.1308 49.5372 70.3864L57.5151 74.552C58.0047 74.8076 58.6088 74.618 58.8644 74.1284C59.12 73.6388 58.9304 73.0347 58.4408 72.7791L51.3493 69.0764L55.052 61.9849C55.3076 61.4953 55.118 60.8912 54.6284 60.6356C54.1388 60.38 53.5347 60.5696 53.2791 61.0592L49.1136 69.0372ZM69.0298 48.2578C66.6352 57.8516 59.2495 65.548 49.7005 68.5459L50.2995 70.4541C60.4937 67.2537 68.4022 59.0312 70.9702 48.7422L69.0298 48.2578Z" fill="#263148"/>
<circle cx="38" cy="5.97753" r="4.97753" fill="white" stroke="#263148" stroke-width="2" stroke-linejoin="round"/>
<circle cx="38" cy="70.0225" r="4.97753" fill="white" stroke="#263148" stroke-width="2" stroke-linejoin="round"/>
<circle cx="5.97753" cy="38" r="4.97753" transform="rotate(-90 5.97753 38)" fill="white" stroke="#263148" stroke-width="2" stroke-linejoin="round"/>
<circle cx="70.0225" cy="38" r="4.97753" transform="rotate(-90 70.0225 38)" fill="white" stroke="#263148" stroke-width="2" stroke-linejoin="round"/>
<path fill-rule="evenodd" clip-rule="evenodd" d="M35.9821 22.5C35.4844 22.5 35.0625 22.8659 34.9921 23.3586L34.6398 25.8252C34.5845 26.2121 34.3076 26.5278 33.9393 26.6588C33.675 26.7528 33.4148 26.8558 33.1592 26.9673C32.8124 27.1186 32.4088 27.0852 32.1061 26.8582L30.1273 25.3741C29.7292 25.0755 29.1721 25.1151 28.8202 25.467L25.9673 28.3199C25.6154 28.6718 25.5758 29.2289 25.8744 29.627L27.1755 31.3618C27.4185 31.6858 27.4386 32.1227 27.2513 32.4818C27.0726 32.8244 26.9098 33.1766 26.7639 33.5374C26.6235 33.8846 26.3167 34.1417 25.9459 34.1947L23.8586 34.4928C23.3659 34.5632 23 34.9851 23 35.4828V39.5174C23 40.0151 23.3659 40.437 23.8586 40.5074L25.5249 40.7454C25.933 40.8037 26.2597 41.1077 26.3761 41.5033C26.5303 42.0272 26.7189 42.5363 26.9394 43.0281C27.0958 43.3769 27.0641 43.7852 26.8348 44.091L25.8731 45.3732C25.5745 45.7714 25.6141 46.3284 25.966 46.6803L28.8189 49.5333C29.1708 49.8852 29.7279 49.9247 30.126 49.6262L31.1721 48.8416C31.4991 48.5963 31.9407 48.5783 32.3012 48.7709C32.8744 49.077 33.4751 49.3383 34.0986 49.5503C34.4737 49.6778 34.7573 49.9964 34.8134 50.3886L34.9924 51.6414C35.0627 52.1341 35.4847 52.5 35.9823 52.5H40.0169C40.5146 52.5 40.9365 52.1341 41.0069 51.6414L41.1858 50.389C41.2418 49.9967 41.5255 49.6781 41.9007 49.5506C42.5245 49.3386 43.1255 49.0772 43.6989 48.771C44.0595 48.5784 44.501 48.5965 44.8281 48.8417L45.8737 49.626C46.2718 49.9246 46.8289 49.885 47.1808 49.5331L50.0338 46.6802C50.3856 46.3283 50.4252 45.7712 50.1266 45.3731L49.1654 44.0914C48.936 43.7856 48.9044 43.3772 49.0608 43.0284C49.2814 42.5365 49.4701 42.0271 49.6243 41.503C49.7407 41.1075 50.0674 40.8034 50.4756 40.7451L52.1414 40.5072C52.6341 40.4368 53 40.0149 53 39.5172V35.4826C53 34.9849 52.6341 34.563 52.1414 34.4926L50.0544 34.1945C49.6836 34.1415 49.3768 33.8845 49.2364 33.5373C49.0903 33.176 48.9273 32.8235 48.7484 32.4805C48.561 32.1214 48.5811 31.6845 48.8241 31.3605L50.124 29.6273C50.4226 29.2292 50.383 28.6721 50.0311 28.3202L47.1782 25.4673C46.8263 25.1154 46.2692 25.0758 45.8711 25.3744L43.8933 26.8577C43.5906 27.0848 43.1871 27.1182 42.8402 26.9669C42.5845 26.8553 42.3241 26.7523 42.0595 26.6582C41.6912 26.5273 41.4142 26.2115 41.359 25.8246L41.0067 23.3586C40.9363 22.8659 40.5144 22.5 40.0167 22.5H35.9821ZM37.9999 43.9285C41.5503 43.9285 44.4285 41.0503 44.4285 37.4999C44.4285 33.9495 41.5503 31.0713 37.9999 31.0713C34.4495 31.0713 31.5713 33.9495 31.5713 37.4999C31.5713 41.0503 34.4495 43.9285 37.9999 43.9285Z" fill="#263148"/>
<path d="M34.9921 23.3586L35.9821 23.5V23.5L34.9921 23.3586ZM34.6398 25.8252L33.6498 25.6837V25.6837L34.6398 25.8252ZM33.9393 26.6588L33.6042 25.7166L33.6042 25.7166L33.9393 26.6588ZM33.1592 26.9673L32.7593 26.0507V26.0507L33.1592 26.9673ZM32.1061 26.8582L31.5061 27.6582L31.5061 27.6582L32.1061 26.8582ZM30.1273 25.3741L29.5273 26.1741L29.5273 26.1741L30.1273 25.3741ZM28.8202 25.467L28.1131 24.7599V24.7599L28.8202 25.467ZM25.8744 29.627L26.6744 29.027L26.6744 29.027L25.8744 29.627ZM27.1755 31.3618L27.9755 30.7618H27.9755L27.1755 31.3618ZM27.2513 32.4818L28.1379 32.9442V32.9442L27.2513 32.4818ZM26.7639 33.5374L25.8368 33.1625L25.8368 33.1625L26.7639 33.5374ZM25.9459 34.1947L26.0873 35.1846H26.0873L25.9459 34.1947ZM23.8586 34.4928L23.7172 33.5029L23.8586 34.4928ZM23.8586 40.5074L24 39.5174H24L23.8586 40.5074ZM25.5249 40.7454L25.6663 39.7555H25.6663L25.5249 40.7454ZM26.3761 41.5033L25.4168 41.7856L25.4168 41.7856L26.3761 41.5033ZM26.9394 43.0281L27.8519 42.619H27.8519L26.9394 43.0281ZM26.8348 44.091L27.6348 44.691L27.6348 44.691L26.8348 44.091ZM25.8731 45.3732L25.0731 44.7732L25.0731 44.7732L25.8731 45.3732ZM25.966 46.6803L26.6731 45.9732H26.6731L25.966 46.6803ZM28.8189 49.5333L29.526 48.8262L29.526 48.8262L28.8189 49.5333ZM30.126 49.6262L30.726 50.4262L30.726 50.4262L30.126 49.6262ZM31.1721 48.8416L31.7721 49.6416H31.7721L31.1721 48.8416ZM32.3012 48.7709L32.7723 47.8888L32.7723 47.8888L32.3012 48.7709ZM34.0986 49.5503L33.7767 50.4971L34.0986 49.5503ZM34.8134 50.3886L33.8234 50.5301V50.5301L34.8134 50.3886ZM34.9924 51.6414L34.0024 51.7828V51.7828L34.9924 51.6414ZM41.0069 51.6414L40.0169 51.5V51.5L41.0069 51.6414ZM41.1858 50.389L42.1758 50.5304L41.1858 50.389ZM41.9007 49.5506L41.5789 48.6038L41.5789 48.6038L41.9007 49.5506ZM43.6989 48.771L44.17 49.6531H44.17L43.6989 48.771ZM45.8737 49.626L46.4737 48.826L45.8737 49.626ZM50.0338 46.6802L49.3267 45.9731L49.3266 45.9731L50.0338 46.6802ZM50.1266 45.3731L50.9267 44.7731L50.9266 44.7731L50.1266 45.3731ZM49.1654 44.0914L48.3654 44.6914L48.3654 44.6914L49.1654 44.0914ZM49.0608 43.0284L48.1483 42.6193L48.1483 42.6193L49.0608 43.0284ZM49.6243 41.503L50.5836 41.7853V41.7853L49.6243 41.503ZM50.4756 40.7451L50.617 41.7351L50.4756 40.7451ZM52.1414 40.5072L52 39.5172L52.1414 40.5072ZM52.1414 34.4926L52 35.4826H52L52.1414 34.4926ZM50.0544 34.1945L50.1958 33.2045H50.1958L50.0544 34.1945ZM49.2364 33.5373L48.3093 33.9122V33.9122L49.2364 33.5373ZM48.7484 32.4805L47.8618 32.9431L47.8618 32.9431L48.7484 32.4805ZM48.8241 31.3605L48.0241 30.7605L48.0241 30.7605L48.8241 31.3605ZM50.124 29.6273L50.924 30.2273L50.924 30.2273L50.124 29.6273ZM50.0311 28.3202L49.324 29.0273H49.324L50.0311 28.3202ZM47.1782 25.4673L47.8853 24.7602L47.8853 24.7602L47.1782 25.4673ZM45.8711 25.3744L45.2711 24.5744L45.2711 24.5744L45.8711 25.3744ZM43.8933 26.8577L44.4933 27.6577L44.4933 27.6577L43.8933 26.8577ZM42.8402 26.9669L42.4404 27.8835L42.4404 27.8835L42.8402 26.9669ZM42.0595 26.6582L41.7245 27.6005L42.0595 26.6582ZM41.359 25.8246L42.3489 25.6832V25.6832L41.359 25.8246ZM41.0067 23.3586L41.9966 23.2172V23.2172L41.0067 23.3586ZM35.9821 23.5V23.5V21.5C34.9868 21.5 34.1429 22.2319 34.0022 23.2172L35.9821 23.5ZM35.6297 25.9666L35.9821 23.5L34.0022 23.2172L33.6498 25.6837L35.6297 25.9666ZM34.2745 27.6009C34.9642 27.3556 35.5177 26.7505 35.6297 25.9666L33.6498 25.6837C33.6502 25.6809 33.6512 25.683 33.6451 25.6901C33.6381 25.6984 33.6246 25.7093 33.6042 25.7166L34.2745 27.6009ZM33.5592 27.8838C33.7935 27.7816 34.0321 27.6872 34.2745 27.6009L33.6042 25.7166C33.3179 25.8184 33.0361 25.93 32.7593 26.0507L33.5592 27.8838ZM31.5061 27.6582C32.1193 28.1181 32.9089 28.1676 33.5592 27.8838L32.7593 26.0507C32.7402 26.0591 32.7237 26.0604 32.7135 26.0594C32.7046 26.0585 32.7038 26.0564 32.7061 26.0582L31.5061 27.6582ZM29.5273 26.1741L31.5061 27.6582L32.7061 26.0582L30.7273 24.5741L29.5273 26.1741ZM29.5273 26.1741V26.1741L30.7273 24.5741C29.9311 23.9769 28.8169 24.0561 28.1131 24.7599L29.5273 26.1741ZM26.6744 29.027L29.5273 26.1741L28.1131 24.7599L25.2602 27.6128L26.6744 29.027ZM26.6744 29.027L25.2602 27.6128C24.5564 28.3166 24.4772 29.4307 25.0744 30.227L26.6744 29.027ZM27.9755 30.7618L26.6744 29.027L25.0744 30.227L26.3755 31.9618L27.9755 30.7618ZM28.1379 32.9442C28.4886 32.272 28.468 31.4184 27.9755 30.7618L26.3755 31.9618C26.3755 31.9618 26.3755 31.9618 26.3755 31.9618C26.3755 31.9618 26.3755 31.9618 26.3755 31.9618C26.3755 31.9617 26.3754 31.9617 26.3754 31.9616C26.3753 31.9615 26.3752 31.9614 26.3752 31.9613C26.3751 31.9611 26.3751 31.9611 26.3752 31.9614C26.3754 31.9621 26.3763 31.9649 26.3767 31.9701C26.3774 31.9815 26.375 31.9995 26.3647 32.0193L28.1379 32.9442ZM27.691 33.9123C27.8248 33.5815 27.974 33.2585 28.1379 32.9442L26.3647 32.0193C26.1712 32.3903 25.9949 32.7717 25.8368 33.1625L27.691 33.9123ZM26.0873 35.1846C26.8383 35.0773 27.4277 34.5634 27.691 33.9123L25.8368 33.1625C25.8291 33.1816 25.8184 33.194 25.8105 33.2004C25.8036 33.206 25.8017 33.2051 25.8045 33.2047L26.0873 35.1846ZM24 35.4828L26.0873 35.1846L25.8045 33.2047L23.7172 33.5029L24 35.4828ZM24 35.4828L24 35.4828L23.7172 33.5029C22.7319 33.6437 22 34.4875 22 35.4828H24ZM24 39.5174V35.4828H22V39.5174H24ZM24 39.5174L24 39.5174H22C22 40.5127 22.7319 41.3566 23.7172 41.4973L24 39.5174ZM25.6663 39.7555L24 39.5174L23.7172 41.4973L25.3835 41.7354L25.6663 39.7555ZM27.3354 41.2209C27.1177 40.4812 26.4936 39.8737 25.6663 39.7555L25.3835 41.7354C25.3835 41.7354 25.3834 41.7354 25.3833 41.7353C25.3831 41.7353 25.383 41.7353 25.3829 41.7352C25.3826 41.7352 25.3826 41.7351 25.383 41.7353C25.3836 41.7356 25.3863 41.737 25.3903 41.7406C25.3991 41.7486 25.4103 41.7636 25.4168 41.7856L27.3354 41.2209ZM27.8519 42.619C27.6497 42.168 27.4768 41.7012 27.3354 41.2209L25.4168 41.7856C25.5838 42.3531 25.7881 42.9046 26.0269 43.4372L27.8519 42.619ZM27.6348 44.691C28.0994 44.0715 28.145 43.2728 27.8519 42.619L26.0269 43.4372C26.0355 43.4563 26.037 43.4731 26.036 43.4834C26.0352 43.4925 26.0331 43.4933 26.0348 43.491L27.6348 44.691ZM26.6731 45.9732L27.6348 44.691L26.0348 43.491L25.0731 44.7732L26.6731 45.9732ZM26.6731 45.9732H26.6731L25.0731 44.7732C24.4759 45.5695 24.5551 46.6837 25.2589 47.3874L26.6731 45.9732ZM29.526 48.8262L26.6731 45.9732L25.2589 47.3874L28.1118 50.2404L29.526 48.8262ZM29.526 48.8262L29.526 48.8262L28.1118 50.2404C28.8156 50.9442 29.9298 51.0233 30.726 50.4262L29.526 48.8262ZM30.5721 48.0416L29.526 48.8262L30.726 50.4262L31.7721 49.6416L30.5721 48.0416ZM32.7723 47.8888C32.0975 47.5284 31.2348 47.5445 30.5721 48.0416L31.7721 49.6416C31.7721 49.6416 31.772 49.6417 31.7719 49.6417C31.7718 49.6418 31.7717 49.6419 31.7716 49.6419C31.7713 49.642 31.7713 49.642 31.7717 49.6419C31.7723 49.6417 31.7752 49.6408 31.7805 49.6405C31.792 49.6398 31.8103 49.6423 31.8302 49.653L32.7723 47.8888ZM34.4204 48.6035C33.8488 48.4092 33.298 48.1695 32.7723 47.8888L31.8302 49.653C32.4508 49.9844 33.1013 50.2675 33.7767 50.4971L34.4204 48.6035ZM35.8033 50.2472C35.6898 49.4524 35.1228 48.8423 34.4204 48.6035L33.7767 50.4971C33.7975 50.5041 33.8114 50.5152 33.8186 50.5235C33.8249 50.5308 33.8238 50.5329 33.8234 50.5301L35.8033 50.2472ZM35.9823 51.5L35.8033 50.2472L33.8234 50.5301L34.0024 51.7828L35.9823 51.5ZM35.9823 51.5L35.9823 51.5L34.0024 51.7828C34.1432 52.7681 34.987 53.5 35.9823 53.5V51.5ZM40.0169 51.5H35.9823V53.5H40.0169V51.5ZM40.0169 51.5L40.0169 51.5V53.5C41.0122 53.5 41.8561 52.7681 41.9968 51.7828L40.0169 51.5ZM40.1959 50.2476L40.0169 51.5L41.9968 51.7828L42.1758 50.5304L40.1959 50.2476ZM41.5789 48.6038C40.8765 48.8426 40.3094 49.4527 40.1959 50.2476L42.1758 50.5304C42.1753 50.5333 42.1743 50.5312 42.1806 50.5239C42.1878 50.5156 42.2017 50.5045 42.2225 50.4974L41.5789 48.6038ZM43.2279 47.8889C42.7019 48.1697 42.1508 48.4095 41.5789 48.6038L42.2225 50.4975C42.8982 50.2678 43.5491 49.9847 44.17 49.6531L43.2279 47.8889ZM45.4281 48.0417C44.7653 47.5447 43.9027 47.5285 43.2279 47.8889L44.17 49.6531C44.1899 49.6425 44.2081 49.6399 44.2196 49.6406C44.225 49.6409 44.2278 49.6418 44.2285 49.642C44.2288 49.6421 44.2288 49.6422 44.2286 49.642C44.2285 49.642 44.2283 49.6419 44.2282 49.6418C44.2281 49.6418 44.2281 49.6417 44.2281 49.6417L45.4281 48.0417ZM46.4737 48.826L45.4281 48.0417L44.2281 49.6417L45.2737 50.426L46.4737 48.826ZM46.4737 48.826L46.4737 48.826L45.2737 50.426C46.07 51.0232 47.1842 50.944 47.8879 50.2402L46.4737 48.826ZM49.3266 45.9731L46.4737 48.826L47.8879 50.2402L50.7409 47.3873L49.3266 45.9731ZM49.3266 45.9731L49.3267 45.9731L50.7409 47.3873C51.4446 46.6835 51.5238 45.5693 50.9267 44.7731L49.3266 45.9731ZM48.3654 44.6914L49.3267 45.9731L50.9266 44.7731L49.9654 43.4914L48.3654 44.6914ZM48.1483 42.6193C47.8552 43.2731 47.9008 44.0719 48.3654 44.6914L49.9654 43.4914C49.9671 43.4936 49.965 43.4929 49.9642 43.4838C49.9632 43.4735 49.9647 43.4567 49.9733 43.4375L48.1483 42.6193ZM48.665 41.2207C48.5236 41.7012 48.3506 42.1682 48.1483 42.6193L49.9733 43.4376C50.2122 42.9048 50.4166 42.353 50.5836 41.7853L48.665 41.2207ZM50.3341 39.7552C49.5068 39.8734 48.8827 40.481 48.665 41.2207L50.5836 41.7853C50.5901 41.7633 50.6013 41.7483 50.6101 41.7404C50.6142 41.7367 50.6168 41.7353 50.6175 41.735C50.6178 41.7348 50.6178 41.7349 50.6175 41.735C50.6174 41.735 50.6173 41.735 50.6172 41.7351C50.617 41.7351 50.617 41.7351 50.617 41.7351L50.3341 39.7552ZM52 39.5172L50.3341 39.7552L50.617 41.7351L52.2828 41.4971L52 39.5172ZM52 39.5172H52L52.2828 41.4971C53.2681 41.3564 54 40.5125 54 39.5172H52ZM52 35.4826V39.5172H54V35.4826H52ZM52 35.4826H54C54 34.4873 53.2681 33.6434 52.2828 33.5027L52 35.4826ZM49.913 35.1844L52 35.4826L52.2828 33.5027L50.1958 33.2045L49.913 35.1844ZM48.3093 33.9122C48.5726 34.5632 49.162 35.0771 49.913 35.1844L50.1958 33.2045C50.1986 33.2049 50.1966 33.2058 50.1897 33.2002C50.1819 33.1939 50.1712 33.1815 50.1635 33.1624L48.3093 33.9122ZM47.8618 32.9431C48.0259 33.2577 48.1754 33.581 48.3093 33.9122L50.1635 33.1624C50.0052 32.7711 49.8287 32.3893 49.635 32.018L47.8618 32.9431ZM48.0241 30.7605C47.5316 31.4172 47.5111 32.2709 47.8618 32.9431L49.635 32.018C49.6247 31.9982 49.6223 31.9801 49.623 31.9688C49.6233 31.9635 49.6242 31.9607 49.6244 31.9601C49.6246 31.9597 49.6246 31.9597 49.6245 31.96C49.6244 31.9601 49.6243 31.9602 49.6243 31.9603C49.6242 31.9604 49.6242 31.9604 49.6242 31.9604C49.6242 31.9604 49.6242 31.9605 49.6241 31.9605C49.6241 31.9605 49.6241 31.9605 49.6241 31.9605L48.0241 30.7605ZM49.324 29.0273L48.0241 30.7605L49.6241 31.9605L50.924 30.2273L49.324 29.0273ZM49.324 29.0273L49.324 29.0273L50.924 30.2273C51.5212 29.4311 51.442 28.3169 50.7382 27.6131L49.324 29.0273ZM46.4711 26.1744L49.324 29.0273L50.7382 27.6131L47.8853 24.7602L46.4711 26.1744ZM46.4711 26.1744H46.4711L47.8853 24.7602C47.1815 24.0564 46.0673 23.9772 45.2711 24.5744L46.4711 26.1744ZM44.4933 27.6577L46.4711 26.1744L45.2711 24.5744L43.2933 26.0577L44.4933 27.6577ZM42.4404 27.8835C43.0906 28.1671 43.8801 28.1176 44.4933 27.6577L43.2933 26.0577C43.2956 26.056 43.2948 26.0581 43.2859 26.0589C43.2757 26.0599 43.2592 26.0586 43.2401 26.0503L42.4404 27.8835ZM41.7245 27.6005C41.9671 27.6867 42.2058 27.7812 42.4404 27.8835L43.2401 26.0503C42.9631 25.9295 42.6811 25.8179 42.3945 25.716L41.7245 27.6005ZM40.369 25.966C40.481 26.75 41.0347 27.3552 41.7245 27.6005L42.3945 25.716C42.3741 25.7088 42.3606 25.6978 42.3536 25.6896C42.3475 25.6824 42.3485 25.6803 42.3489 25.6832L40.369 25.966ZM40.0167 23.5L40.369 25.966L42.3489 25.6832L41.9966 23.2172L40.0167 23.5ZM40.0167 23.5V23.5L41.9966 23.2172C41.8559 22.2319 41.012 21.5 40.0167 21.5V23.5ZM35.9821 23.5H40.0167V21.5H35.9821V23.5ZM43.4285 37.4999C43.4285 40.498 40.998 42.9285 37.9999 42.9285V44.9285C42.1026 44.9285 45.4285 41.6026 45.4285 37.4999H43.4285ZM37.9999 32.0713C40.998 32.0713 43.4285 34.5018 43.4285 37.4999H45.4285C45.4285 33.3972 42.1026 30.0713 37.9999 30.0713V32.0713ZM32.5713 37.4999C32.5713 34.5018 35.0018 32.0713 37.9999 32.0713V30.0713C33.8972 30.0713 30.5713 33.3972 30.5713 37.4999H32.5713ZM37.9999 42.9285C35.0018 42.9285 32.5713 40.498 32.5713 37.4999H30.5713C30.5713 41.6026 33.8972 44.9285 37.9999 44.9285V42.9285Z" fill="#263148"/>
</svg>
