<svg width="82" height="65" viewBox="0 0 82 65" fill="none" xmlns="http://www.w3.org/2000/svg">
<path d="M79.9999 1.00435C80.5522 1.00435 81 1.45207 81 2.00436C81 2.09253 81 2.17968 81 2.26662C81 18.2278 81 34.189 81 50.1501C81 51.9217 80.9452 52 79.6514 52C57.8827 52 36.1141 52 14.3454 52C13.0678 52 13 51.9129 13 50.2546C13 34.2194 13 18.1843 13 2.15345C13 2.10245 13 2.05145 13 2.0002C13 1.44784 13.4479 1.00009 14.0002 1.00019C36.0075 1.00429 57.9562 1.00435 79.9999 1.00435Z" fill="white" stroke="#263148" stroke-width="2" stroke-linejoin="round"/>
<path d="M73.9999 7.00435C74.5522 7.00435 75 7.45207 75 8.00436C75 8.09253 75 8.17968 75 8.26662C75 24.2278 75 40.189 75 56.1501C75 57.9217 74.9452 58 73.6514 58C51.8827 58 30.1141 58 8.34542 58C7.06775 58 7 57.9129 7 56.2546C7 40.2194 7 24.1843 7 8.15345C7 8.10245 7 8.05145 7 8.0002C7 7.44784 7.44788 7.00009 8.00024 7.00019C30.0075 7.00429 51.9562 7.00435 73.9999 7.00435Z" fill="white" stroke="#263148" stroke-width="2" stroke-linejoin="round"/>
<path d="M67.9999 13.0044C68.5522 13.0044 69 13.4521 69 14.0044C69 14.0925 69 14.1797 69 14.2666C69 30.2278 69 46.189 69 62.1501C69 63.9217 68.9452 64 67.6514 64C45.8827 64 24.1141 64 2.34542 64C1.06775 64 1 63.9129 1 62.2546C1 46.2194 1 30.1843 1 14.1535C1 14.1024 1 14.0514 1 14.0002C1 13.4478 1.44788 13.0001 2.00024 13.0002C24.0075 13.0043 45.9562 13.0044 67.9999 13.0044Z" fill="white" stroke="#263148" stroke-width="2" stroke-linejoin="round"/>
<path d="M6 27.0001C25.3397 27.0029 44.6285 27.0029 64 27.0029V27.0315V27.0938V27.1562V27.2185V27.2809V27.3432V27.4055V27.4679V27.5302V27.5926V27.6549V27.7173V27.7796V27.842V27.9043V27.9667V28.029V28.0914V28.1537V28.2161V28.2784V28.3408V28.4031V28.4655V28.5278V28.5902V28.6525V28.7149V28.7772V28.8396V28.9019V28.9643V29.0266V29.089V29.1513V29.2136V29.276V29.3383V29.4007V29.463V29.5254V29.5877V29.6501V29.7124V29.7748V29.8371V29.8995V29.9618V30.0242V30.0865V30.1489V30.2112V30.2736V30.3359V30.3983V30.4606V30.523V30.5853V30.6477V30.71V30.7724V30.8347V30.8971V30.9594V31.0218V31.0841V31.1464V31.2088V31.2711V31.3335V31.3958V31.4582V31.5205V31.5829V31.6452V31.7076V31.7699V31.8323V31.8946V31.957V32.0193V32.0817V32.144V32.2064V32.2687V32.3311V32.3934V32.4558V32.5181V32.5805V32.6428V32.7052V32.7675V32.8299V32.8922V32.9545V33.0169V33.0792V33.1416V33.2039V33.2663V33.3286V33.391V33.4533V33.5157V33.578V33.6404V33.7027V33.7651V33.8274V33.8898V33.9521V34.0145V34.0768V34.1392V34.2015V34.2639V34.3262V34.3886V34.4509V34.5133V34.5756V34.638V34.7003V34.7626V34.825V34.8873V34.9497V35.012V35.0744V35.1367V35.1991V35.2614V35.3238V35.3861V35.4485V35.5108V35.5732V35.6355V35.6979V35.7602V35.8226V35.8849V35.9473V36.0096V36.072V36.1343V36.1967V36.259V36.3214V36.3837V36.4461V36.5084V36.5708V36.6331V36.6954V36.7578V36.8201V36.8825V36.9448V37.0072V37.0695V37.1319V37.1942V37.2566V37.3189V37.3813V37.4436V37.506V37.5683V37.6307V37.693V37.7554V37.8177V37.8801V37.9424V38.0048V38.0671V38.1295V38.1918V38.2542V38.3165V38.3789V38.4412V38.5035V38.5659V38.6282V38.6906V38.7529V38.8153V38.8776V38.94V39.0023V39.0647V39.127V39.1894V39.2517V39.3141V39.3764V39.4388V39.5011V39.5635V39.6258V39.6882V39.7505V39.8129V39.8752V39.9376V39.9999V40.0623V40.1246V40.187V40.2493V40.3116V40.374V40.4363V40.4987V40.561V40.6234V40.6857V40.7481V40.8104V40.8728V40.9351V40.9975V41.0598V41.1222V41.1845V41.2469V41.3092V41.3716V41.4339V41.4963V41.5586V41.621V41.6833V41.7457V41.808V41.8704V41.9327V41.9951V42.0574V42.1197V42.1821V42.2444V42.3068V42.3691V42.4315V42.4938V42.5562V42.6185V42.6809V42.7432V42.8056V42.8679V42.9303V42.9926V43.055V43.1173V43.1797V43.242V43.3044V43.3667V43.4291V43.4914V43.5538V43.6161V43.6785V43.7408V43.8032V43.8655V43.9279V43.9902V44.0525V44.1149V44.1772V44.2396V44.3019V44.3643V44.4266V44.489V44.5513V44.6137V44.676V44.7384V44.8007V44.8631V44.9254V44.9878V45.0501V45.1125V45.1748V45.2372V45.2995V45.3619V45.4242V45.4866V45.5489V45.6113V45.6736V45.736V45.7983V45.8606V45.923V45.9853V46.0477V46.11V46.1724V46.2347V46.2971V46.3594V46.4218V46.4841V46.5465V46.6088V46.6712V46.7335V46.7959V46.8582V46.9206V46.9829V47.0453V47.1076V47.17V47.2323V47.2947V47.357V47.4194V47.4817V47.5441V47.6064V47.6687V47.7311V47.7934V47.8558V47.9181V47.9805V48.0428V48.1052V48.1675V48.2299V48.2922V48.3546V48.4169V48.4793V48.5416V48.604V48.6663V48.7287V48.791V48.8534V48.9157V48.9781V49.0404V49.1028V49.1651V49.2275V49.2898V49.3522V49.4145V49.4769V49.5392V49.6015V49.6639V49.7262V49.7886V49.8509V49.9133V49.9756V50.038V50.1003V50.1627V50.225V50.2874V50.3497V50.4121V50.4744V50.5368V50.5991V50.6615V50.7238V50.7862V50.8485V50.9109V50.9732V51.0356V51.0979V51.1603V51.2226V51.285V51.3473V51.4096V51.472V51.5343V51.5967V51.659V51.7214V51.7837V51.8461V51.9084V51.9708V52.0331V52.0955V52.1578V52.2202V52.2825V52.3449V52.4072V52.4696V52.5319V52.5943V52.6566V52.719V52.7813V52.8437V52.906V52.9684V53.0307V53.0931V53.1554V53.2177V53.2801V53.3424V53.4048V53.4671V53.5295V53.5918V53.6542V53.7165V53.7789V53.8412V53.9036V53.9659V54.0283V54.0906V54.153V54.2153V54.2777V54.34V54.4024V54.4647V54.5271V54.5894V54.6518V54.7141V54.7765V54.8388V54.9012V54.9635V55.0258V55.0882V55.1505V55.2129V55.2752V55.3376V55.3999V55.4623V55.5246V55.587V55.6493V55.7117V55.774V55.8364V55.8987V55.9611V56.0234V56.0858V56.1481V56.2105V56.2728V56.3352V56.3975V56.4599V56.5222V56.5846V56.6469V56.7093V56.7716V56.834V56.8963V56.9586V57.021V57.0833V57.1457V57.208V57.2704V57.3327V57.3951V57.4574V57.5198V57.5821V57.6445V57.7068V57.7692V57.8315V57.8939V57.9562V58.0186V58.0809V58.1433V58.2056V58.268V58.3303V58.3927V58.455V58.5174V58.5797V58.6421V58.7044V58.7667C64 58.854 63.9997 58.9308 63.9989 58.9992C63.9423 58.9998 63.8798 59 63.81 59H63.6975H63.5849H63.4724H63.3598H63.2473H63.1348H63.0222H62.9097H62.7971H62.6846H62.572H62.4595H62.3469H62.2344H62.1218H62.0093H61.8968H61.7842H61.6717H61.5591H61.4466H61.334H61.2215H61.1089H60.9964H60.8839H60.7713H60.6588H60.5462H60.4337H60.3211H60.2086H60.096H59.9835H59.871H59.7584H59.6459H59.5333H59.4208H59.3082H59.1957H59.0831H58.9706H58.8581H58.7455H58.633H58.5204H58.4079H58.2953H58.1828H58.0702H57.9577H57.8451H57.7326H57.6201H57.5075H57.395H57.2824H57.1699H57.0573H56.9448H56.8322H56.7197H56.6072H56.4946H56.3821H56.2695H56.157H56.0444H55.9319H55.8193H55.7068H55.5943H55.4817H55.3692H55.2566H55.1441H55.0315H54.919H54.8064H54.6939H54.5814H54.4688H54.3563H54.2437H54.1312H54.0186H53.9061H53.7935H53.681H53.5685H53.4559H53.3434H53.2308H53.1183H53.0057H52.8932H52.7806H52.6681H52.5555H52.443H52.3305H52.2179H52.1054H51.9928H51.8803H51.7677H51.6552H51.5426H51.4301H51.3176H51.205H51.0925H50.9799H50.8674H50.7548H50.6423H50.5297H50.4172H50.3047H50.1921H50.0796H49.967H49.8545H49.7419H49.6294H49.5168H49.4043H49.2918H49.1792H49.0667H48.9541H48.8416H48.729H48.6165H48.5039H48.3914H48.2789H48.1663H48.0538H47.9412H47.8287H47.7161H47.6036H47.491H47.3785H47.2659H47.1534H47.0409H46.9283H46.8158H46.7032H46.5907H46.4781H46.3656H46.253H46.1405H46.028H45.9154H45.8029H45.6903H45.5778H45.4652H45.3527H45.2401H45.1276H45.0151H44.9025H44.79H44.6774H44.5649H44.4523H44.3398H44.2272H44.1147H44.0022H43.8896H43.7771H43.6645H43.552H43.4394H43.3269H43.2143H43.1018H42.9893H42.8767H42.7642H42.6516H42.5391H42.4265H42.314H42.2014H42.0889H41.9763H41.8638H41.7513H41.6387H41.5262H41.4136H41.3011H41.1885H41.076H40.9634H40.8509H40.7384H40.6258H40.5133H40.4007H40.2882H40.1756H40.0631H39.9505H39.838H39.7255H39.6129H39.5004H39.3878H39.2753H39.1627H39.0502H38.9376H38.8251H38.7126H38.6H38.4875H38.3749H38.2624H38.1498H38.0373H37.9247H37.8122H37.6996H37.5871H37.4746H37.362H37.2495H37.1369H37.0244H36.9118H36.7993H36.6867H36.5742H36.4617H36.3491H36.2366H36.124H36.0115H35.8989H35.7864H35.6738H35.5613H35.4488H35.3362H35.2237H35.1111H34.9986H34.886H34.7735H34.6609H34.5484H34.4359H34.3233H34.2108H34.0982H33.9857H33.8731H33.7606H33.648H33.5355H33.423H33.3104H33.1979H33.0853H32.9728H32.8602H32.7477H32.6351H32.5226H32.41H32.2975H32.185H32.0724H31.9599H31.8473H31.7348H31.6222H31.5097H31.3971H31.2846H31.1721H31.0595H30.947H30.8344H30.7219H30.6093H30.4968H30.3842H30.2717H30.1592H30.0466H29.9341H29.8215H29.709H29.5964H29.4839H29.3713H29.2588H29.1463H29.0337H28.9212H28.8086H28.6961H28.5835H28.471H28.3584H28.2459H28.1334H28.0208H27.9083H27.7957H27.6832H27.5706H27.4581H27.3455H27.233H27.1204H27.0079H26.8954H26.7828H26.6703H26.5577H26.4452H26.3326H26.2201H26.1075H25.995H25.8825H25.7699H25.6574H25.5448H25.4323H25.3197H25.2072H25.0946H24.9821H24.8696H24.757H24.6445H24.5319H24.4194H24.3068H24.1943H24.0817H23.9692H23.8567H23.7441H23.6316H23.519H23.4065H23.2939H23.1814H23.0688H22.9563H22.8437H22.7312H22.6187H22.5061H22.3936H22.281H22.1685H22.0559H21.9434H21.8308H21.7183H21.6058H21.4932H21.3807H21.2681H21.1556H21.043H20.9305H20.8179H20.7054H20.5929H20.4803H20.3678H20.2552H20.1427H20.0301H19.9176H19.805H19.6925H19.58H19.4674H19.3549H19.2423H19.1298H19.0172H18.9047H18.7921H18.6796H18.567H18.4545H18.342H18.2294H18.1169H18.0043H17.8918H17.7792H17.6667H17.5541H17.4416H17.3291H17.2165H17.104H16.9914H16.8789H16.7663H16.6538H16.5412H16.4287H16.3162H16.2036H16.0911H15.9785H15.866H15.7534H15.6409H15.5283H15.4158H15.3033H15.1907H15.0782H14.9656H14.8531H14.7405H14.628H14.5154H14.4029H14.2904H14.1778H14.0653H13.9527H13.8402H13.7276H13.6151H13.5025H13.39H13.2774H13.1649H13.0524H12.9398H12.8273H12.7147H12.6022H12.4896H12.3771H12.2645H12.152H12.0395H11.9269H11.8144H11.7018H11.5893H11.4767H11.3642H11.2516H11.1391H11.0266H10.914H10.8015H10.6889H10.5764H10.4638H10.3513H10.2387H10.1262H10.0137H9.90111H9.78856H9.67602H9.56347H9.45093H9.33838H9.22584H9.11329H9.00075H8.88821H8.77566H8.66312H8.55057H8.43803H8.32548H8.21294H8.10039H7.98785H7.8753H7.76276H7.65021H7.53767H7.42512H7.31258H7.20003H7.08749H6.97495H6.8624H6.74986H6.63731H6.52477H6.41222H6.29968H6.18713C6.11833 59 6.05659 58.9998 6.00066 58.9992C6.00018 58.9499 6 58.8959 6 58.8364V58.7738V58.7111V58.6485V58.5858V58.5232V58.4606V58.3979V58.3353V58.2727V58.21V58.1474V58.0847V58.0221V57.9595V57.8968V57.8342V57.7716V57.7089V57.6463V57.5836V57.521V57.4584V57.3957V57.3331V57.2705V57.2078V57.1452V57.0825V57.0199V56.9573V56.8946V56.832V56.7694V56.7067V56.6441V56.5814V56.5188V56.4562V56.3935V56.3309V56.2683V56.2056V56.143V56.0804V56.0177V55.9551V55.8924V55.8298V55.7672V55.7045V55.6419V55.5793V55.5166V55.454V55.3913V55.3287V55.2661V55.2034V55.1408V55.0782V55.0155V54.9529V54.8902V54.8276V54.765V54.7023V54.6397V54.5771V54.5144V54.4518V54.3891V54.3265V54.2639V54.2012V54.1386V54.076V54.0133V53.9507V53.8881V53.8254V53.7628V53.7001V53.6375V53.5749V53.5122V53.4496V53.387V53.3243V53.2617V53.199V53.1364V53.0738V53.0111V52.9485V52.8859V52.8232V52.7606V52.698V52.6353V52.5727V52.51V52.4474V52.3848V52.3221V52.2595V52.1969V52.1342V52.0716V52.0089V51.9463V51.8837V51.821V51.7584V51.6958V51.6331V51.5705V51.5079V51.4452V51.3826V51.3199V51.2573V51.1947V51.132V51.0694V51.0068V50.9441V50.8815V50.8189V50.7562V50.6936V50.6309V50.5683V50.5057V50.443V50.3804V50.3178V50.2551V50.1925V50.1299V50.0672V50.0046V49.9419V49.8793V49.8167V49.754V49.6914V49.6288V49.5661V49.5035V49.4409V49.3782V49.3156V49.253V49.1903V49.1277V49.065V49.0024V48.9398V48.8771V48.8145V48.7519V48.6892V48.6266V48.564V48.5013V48.4387V48.3761V48.3134V48.2508V48.1881V48.1255V48.0629V48.0002V47.9376V47.875V47.8123V47.7497V47.6871V47.6244V47.5618V47.4992V47.4365V47.3739V47.3113V47.2486V47.186V47.1233V47.0607V46.9981V46.9354V46.8728V46.8102V46.7475V46.6849V46.6223V46.5596V46.497V46.4344V46.3717V46.3091V46.2465V46.1838V46.1212V46.0586V45.9959V45.9333V45.8707V45.808V45.7454V45.6827V45.6201V45.5575V45.4948V45.4322V45.3696V45.3069V45.2443V45.1817V45.119V45.0564V44.9938V44.9311V44.8685V44.8059V44.7432V44.6806V44.618V44.5553V44.4927V44.4301V44.3674V44.3048V44.2422V44.1795V44.1169V44.0543V43.9916V43.929V43.8664V43.8037V43.7411V43.6785V43.6158V43.5532V43.4906V43.4279V43.3653V43.3027V43.24V43.1774V43.1148V43.0521V42.9895V42.9269V42.8642V42.8016V42.739V42.6763V42.6137V42.5511V42.4884V42.4258V42.3632V42.3005V42.2379V42.1753V42.1126V42.05V41.9874V41.9247V41.8621V41.7995V41.7368V41.6742V41.6116V41.5489V41.4863V41.4237V41.361V41.2984V41.2358V41.1731V41.1105V41.0479V40.9852V40.9226V40.86V40.7974V40.7347V40.6721V40.6095V40.5468V40.4842V40.4216V40.3589V40.2963V40.2337V40.171V40.1084V40.0458V39.9831V39.9205V39.8579V39.7952V39.7326V39.67V39.6074V39.5447V39.4821V39.4195V39.3568V39.2942V39.2316V39.1689V39.1063V39.0437V38.981V38.9184V38.8558V38.7931V38.7305V38.6679V38.6053V38.5426V38.48V38.4174V38.3547V38.2921V38.2295V38.1668V38.1042V38.0416V37.979V37.9163V37.8537V37.7911V37.7284V37.6658V37.6032V37.5405V37.4779V37.4153V37.3527V37.29V37.2274V37.1648V37.1021V37.0395V36.9769V36.9142V36.8516V36.789V36.7264V36.6637V36.6011V36.5385V36.4758V36.4132V36.3506V36.288V36.2253V36.1627V36.1001V36.0374V35.9748V35.9122V35.8496V35.7869V35.7243V35.6617V35.599V35.5364V35.4738V35.4112V35.3485V35.2859V35.2233V35.1606V35.098V35.0354V34.9728V34.9101V34.8475V34.7849V34.7222V34.6596V34.597V34.5344V34.4717V34.4091V34.3465V34.2839V34.2212V34.1586V34.096V34.0333V33.9707V33.9081V33.8455V33.7828V33.7202V33.6576V33.595V33.5323V33.4697V33.4071V33.3444V33.2818V33.2192V33.1566V33.0939V33.0313V32.9687V32.9061V32.8434V32.7808V32.7182V32.6556V32.5929V32.5303V32.4677V32.4051V32.3424V32.2798V32.2172V32.1546V32.0919V32.0293V31.9667V31.904V31.8414V31.7788V31.7162V31.6535V31.5909V31.5283V31.4657V31.403V31.3404V31.2778V31.2152V31.1525V31.0899V31.0273V30.9647V30.9021V30.8394V30.7768V30.7142V30.6516V30.5889V30.5263V30.4637V30.4011V30.3384V30.2758V30.2132V30.1506V30.0879V30.0253V29.9627V29.9001V29.8374V29.7748V29.7122V29.6496V29.5869V29.5243V29.4617V29.3991V29.3365V29.2738V29.2112V29.1486V29.086V29.0233V28.9607V28.8981V28.8355V28.7729V28.7102V28.6476V28.585V28.5224V28.4597V28.3971V28.3345V28.2719V28.2093V28.1466V28.084V28.0214V27.9588V27.8961V27.8335V27.7709V27.7083V27.6457V27.583V27.5204V27.4578V27.3952V27.3326V27.2699V27.2073V27.1447V27.0821V27.0195V27.0001Z" stroke="#263148" stroke-width="2" stroke-linejoin="round"/>
<path d="M27.3324 17.7911C27.1738 17.4152 27.4501 17 27.858 17C39.8111 17 51.7641 17 63.7144 17C64.9634 17 65 17.0364 65 18.2088C65 19.5139 65 20.819 65 22.1597C65 22.618 64.6284 22.9896 64.1701 22.9896C52.8725 22.9896 41.5749 22.987 30.2773 23C29.7062 23 29.4249 22.87 29.2196 22.3449C28.6318 20.84 27.9904 19.3504 27.3324 17.7911Z" fill="#263148"/>
<path d="M25.4603 21.633C25.7195 22.2891 25.2358 23 24.5303 23C18.1648 23 11.8866 23 5.5676 23C5.28186 23 5.00509 22.7925 5.00509 22.5067C4.99971 20.9669 4.99703 19.4271 5.00509 17.8873C5.00777 17.1383 5.13671 17.0052 5.89689 17.0052C11.3901 17 16.8805 17.0052 22.3737 17C23.2091 17 23.7705 17.3549 24.0687 18.1118C24.5298 19.2782 24.991 20.4447 25.4603 21.633Z" fill="#263148"/>
</svg>
