<svg width="38" height="42" viewBox="0 0 38 42" fill="none" xmlns="http://www.w3.org/2000/svg">
<path d="M1 23.1268V8.67233C1 8.31922 1.28625 8.03297 1.63936 8.03297C5.17045 8.03297 8.03297 5.17045 8.03297 1.63936C8.03297 1.28625 8.31922 1 8.67233 1H28.4925C28.8456 1 29.1319 1.28625 29.1319 1.63936C29.1319 5.17045 31.9944 8.03297 35.5255 8.03297C35.8786 8.03297 36.1648 8.31922 36.1648 8.67233V23.1268C36.1648 30.9759 30.0066 37.0789 22.3912 38.9797C20.1701 39.534 18.5824 41 18.5824 41C18.5824 41 16.9948 39.534 14.7737 38.9797C7.15821 37.0789 1 30.9759 1 23.1268Z" stroke="#1F2147" stroke-width="2" stroke-linecap="square" stroke-linejoin="round"/>
<path d="M21.5155 16.4845H27V22.5155H21.5155V28H15.4845V22.5155H10V16.4845H15.4845V11H21.5155V16.4845Z" fill="#1F2147"/>
</svg>
