<svg width="295" height="31" viewBox="0 0 295 31" fill="none" xmlns="http://www.w3.org/2000/svg">
<path d="M54.8424 24.4795H59.3245V6.72353H68.0014V24.4795H72.4834V3.03442H54.8424V24.4795Z" fill="#1F2147"/>
<path d="M88.5615 9.10251C87.5731 8.4934 86.4928 8.18311 85.3091 8.18311C84.4127 8.18311 83.6542 8.33251 83.0566 8.64281C82.4475 8.94161 81.9648 9.32087 81.5855 9.76908C81.2063 10.2173 80.9304 10.6655 80.7351 11.0907H80.5397V8.40146H76.1381V30.5246H80.5972V21.9167H80.7351C80.9419 22.3649 81.2293 22.8016 81.62 23.2383C81.9993 23.675 82.4934 24.0313 83.1025 24.3186C83.7116 24.6059 84.4357 24.7439 85.3091 24.7439C86.5273 24.7439 87.6306 24.4336 88.619 23.79C89.6073 23.1579 90.3888 22.227 90.9634 20.9973C91.5381 19.7676 91.8254 18.2506 91.8254 16.4577C91.8254 14.6189 91.5266 13.0789 90.9404 11.8492C90.3543 10.6195 89.5498 9.71161 88.5615 9.10251ZM86.8721 18.9171C86.6078 19.6297 86.2285 20.1928 85.7228 20.595C85.2172 20.9973 84.6081 21.1927 83.884 21.1927C83.16 21.1927 82.5509 20.9973 82.0452 20.6065C81.5396 20.2158 81.1603 19.6642 80.896 18.9516C80.6316 18.2391 80.4937 17.4001 80.4937 16.4462C80.4937 15.4924 80.6316 14.6534 80.896 13.9524C81.1603 13.2513 81.5396 12.6997 82.0452 12.3204C82.5509 11.9412 83.16 11.7458 83.884 11.7458C84.6196 11.7458 85.2401 11.9412 85.7343 12.3434C86.24 12.7456 86.6193 13.2973 86.8721 13.9983C87.1249 14.6994 87.2628 15.5153 87.2628 16.4462C87.2743 17.3771 87.1364 18.2046 86.8721 18.9171Z" fill="#1F2147"/>
<path d="M105.685 9.22893C104.502 8.53937 103.1 8.18311 101.468 8.18311C99.8357 8.18311 98.4336 8.52788 97.2499 9.22893C96.0661 9.92997 95.1582 10.8953 94.5146 12.1365C93.871 13.3777 93.5493 14.8373 93.5493 16.5037C93.5493 18.1471 93.871 19.5952 94.5146 20.8479C95.1582 22.1006 96.0661 23.0659 97.2499 23.7555C98.4336 24.445 99.8357 24.8013 101.468 24.8013C103.1 24.8013 104.502 24.4565 105.685 23.7555C106.869 23.0545 107.777 22.0891 108.421 20.8479C109.064 19.6067 109.386 18.1586 109.386 16.5037C109.386 14.8373 109.064 13.3892 108.421 12.1365C107.777 10.8953 106.869 9.91848 105.685 9.22893ZM104.467 18.9746C104.214 19.7101 103.835 20.2847 103.341 20.71C102.847 21.1352 102.226 21.3421 101.491 21.3421C100.744 21.3421 100.111 21.1352 99.6058 20.71C99.1001 20.2847 98.7209 19.7101 98.4681 18.9746C98.2152 18.2391 98.0888 17.4116 98.0888 16.4692C98.0888 15.5383 98.2152 14.6994 98.4681 13.9639C98.7209 13.2283 99.1001 12.6537 99.6058 12.2285C100.111 11.8033 100.744 11.5849 101.491 11.5849C102.226 11.5849 102.847 11.8033 103.341 12.2285C103.835 12.6537 104.214 13.2398 104.467 13.9639C104.72 14.6994 104.846 15.5268 104.846 16.4692C104.846 17.4116 104.72 18.2391 104.467 18.9746Z" fill="#1F2147"/>
<path d="M116.5 16.5267H116.316V3.03442H111.788V24.4795H115.718L125.039 10.9873H125.2V24.4795H129.728V3.03442H125.763L116.5 16.5267Z" fill="#1F2147"/>
<path d="M142.565 14.6648H137.06V8.40137H132.796V24.4794H137.06V18.17H142.565V24.4794H146.794V8.40137H142.565V14.6648Z" fill="#1F2147"/>
<path d="M167.826 10.4931C167.09 9.75756 166.205 9.18293 165.182 8.78069C164.159 8.37845 163.033 8.18308 161.803 8.18308V3.03442H157.356V8.18308C156.115 8.18308 154.988 8.37845 153.977 8.78069C152.954 9.18293 152.081 9.74607 151.334 10.4931C150.598 11.2286 150.024 12.102 149.621 13.1249C149.219 14.1362 149.012 15.2625 149.012 16.5037C149.012 17.7219 149.219 18.8482 149.621 19.8595C150.024 20.8708 150.598 21.7558 151.334 22.4913C152.069 23.2268 152.954 23.8014 153.977 24.2037C155 24.6059 156.126 24.8013 157.356 24.8013V29.9499H161.803V24.8013C163.045 24.8013 164.171 24.6059 165.182 24.2037C166.205 23.8014 167.079 23.2383 167.826 22.4913C168.561 21.7558 169.136 20.8823 169.538 19.8595C169.94 18.8482 170.147 17.7219 170.147 16.5037C170.147 15.2625 169.94 14.1362 169.538 13.1249C169.147 12.1135 168.573 11.2286 167.826 10.4931ZM155.322 20.6755C154.759 20.2502 154.322 19.6641 154.035 18.9401C153.736 18.2161 153.598 17.4001 153.598 16.5037C153.598 15.8256 153.678 15.1935 153.839 14.6074C154 14.0213 154.241 13.5041 154.563 13.0789C154.885 12.6422 155.276 12.2974 155.747 12.0446C156.218 11.7917 156.747 11.6653 157.344 11.6653V21.319C156.563 21.319 155.885 21.1122 155.322 20.6755ZM165.332 18.3885C165.159 18.9746 164.918 19.4802 164.596 19.917C164.274 20.3537 163.884 20.6985 163.412 20.9513C162.941 21.2041 162.413 21.319 161.815 21.319V11.6653C162.619 11.6653 163.297 11.8837 163.861 12.3089C164.424 12.7456 164.849 13.3202 165.148 14.0558C165.447 14.7913 165.596 15.5958 165.596 16.5037C165.573 17.1702 165.493 17.8023 165.332 18.3885Z" fill="#1F2147"/>
<path d="M183.961 9.22893C182.777 8.53937 181.375 8.18311 179.743 8.18311C178.111 8.18311 176.709 8.52788 175.526 9.22893C174.342 9.92997 173.434 10.8953 172.79 12.1365C172.147 13.3777 171.825 14.8373 171.825 16.5037C171.825 18.1471 172.147 19.5952 172.79 20.8479C173.434 22.1006 174.342 23.0659 175.526 23.7555C176.709 24.445 178.111 24.8013 179.743 24.8013C181.375 24.8013 182.777 24.4565 183.961 23.7555C185.145 23.0545 186.053 22.0891 186.696 20.8479C187.34 19.6067 187.662 18.1586 187.662 16.5037C187.662 14.8373 187.34 13.3892 186.696 12.1365C186.053 10.8953 185.145 9.91848 183.961 9.22893ZM182.743 18.9746C182.49 19.7101 182.111 20.2847 181.617 20.71C181.122 21.1352 180.502 21.3421 179.766 21.3421C179.019 21.3421 178.387 21.1352 177.882 20.71C177.376 20.2847 176.997 19.7101 176.744 18.9746C176.491 18.2391 176.365 17.4116 176.365 16.4692C176.365 15.5383 176.491 14.6994 176.744 13.9639C176.997 13.2283 177.376 12.6537 177.882 12.2285C178.387 11.8033 179.019 11.5849 179.766 11.5849C180.502 11.5849 181.122 11.8033 181.617 12.2285C182.111 12.6537 182.49 13.2398 182.743 13.9639C182.996 14.6994 183.122 15.5268 183.122 16.4692C183.134 17.4116 182.996 18.2391 182.743 18.9746Z" fill="#1F2147"/>
<path d="M196.89 7.57397C197.718 7.02233 198.683 6.74651 199.786 6.74651C200.395 6.74651 200.97 6.83845 201.499 7.01084C202.027 7.18323 202.487 7.43606 202.901 7.76935C203.303 8.10263 203.636 8.49337 203.901 8.95308C204.153 9.41278 204.326 9.94143 204.418 10.539H209.003C208.854 9.29785 208.521 8.19457 208.003 7.2292C207.486 6.26382 206.808 5.44785 205.992 4.78129C205.165 4.11472 204.222 3.60905 203.154 3.25278C202.085 2.908 200.936 2.72412 199.694 2.72412C197.81 2.72412 196.109 3.16084 194.603 4.02278C193.098 4.88472 191.902 6.1374 191.017 7.78084C190.133 9.42427 189.696 11.4125 189.696 13.7455C189.696 16.0784 190.133 18.0667 190.994 19.7101C191.856 21.3535 193.052 22.6062 194.557 23.4681C196.063 24.3301 197.775 24.7668 199.683 24.7668C201.062 24.7668 202.292 24.5599 203.383 24.1462C204.475 23.7325 205.418 23.1693 206.211 22.4453C207.004 21.7328 207.636 20.9168 208.107 20.0089C208.578 19.101 208.877 18.1471 208.992 17.1702L204.406 17.1473C204.303 17.7219 204.119 18.2276 203.843 18.6758C203.579 19.124 203.234 19.5032 202.832 19.8135C202.43 20.1238 201.97 20.3652 201.441 20.5261C200.913 20.687 200.361 20.7674 199.752 20.7674C198.672 20.7674 197.718 20.5031 196.89 19.9744C196.063 19.4458 195.431 18.6528 194.971 17.6184C194.511 16.5726 194.281 15.297 194.281 13.7684C194.281 12.2859 194.511 11.0102 194.959 9.97591C195.419 8.9186 196.063 8.12561 196.89 7.57397Z" fill="#1F2147"/>
<path d="M224.116 10.2173C223.426 9.53923 222.622 9.03355 221.703 8.68878C220.783 8.35549 219.795 8.18311 218.737 8.18311C217.163 8.18311 215.784 8.52788 214.612 9.22893C213.439 9.92997 212.531 10.9068 211.899 12.148C211.267 13.3892 210.934 14.8488 210.934 16.5037C210.934 18.2046 211.256 19.6642 211.899 20.9053C212.543 22.1465 213.462 23.1004 214.646 23.7785C215.841 24.4565 217.255 24.7898 218.91 24.7898C220.231 24.7898 221.404 24.583 222.427 24.1807C223.438 23.767 224.277 23.2039 224.92 22.4683C225.564 21.7328 225.989 20.8709 226.208 19.871L222.082 19.5952C221.932 19.9974 221.703 20.3422 221.415 20.618C221.128 20.8939 220.772 21.1122 220.358 21.2501C219.944 21.388 219.496 21.457 219.002 21.457C218.255 21.457 217.611 21.2961 217.06 20.9858C216.519 20.6755 216.094 20.2273 215.795 19.6412C215.497 19.055 215.347 18.377 215.347 17.5725V17.584H226.3V16.3543C226.3 14.9867 226.104 13.7915 225.725 12.7686C225.346 11.7458 224.794 10.8953 224.116 10.2173ZM215.359 14.8143C215.382 14.2397 215.52 13.711 215.795 13.2283C216.094 12.7112 216.496 12.2974 217.014 11.9871C217.531 11.6768 218.128 11.5159 218.806 11.5159C219.45 11.5159 220.025 11.6539 220.519 11.9412C221.013 12.2285 221.392 12.6077 221.68 13.1134C221.955 13.6076 222.093 14.1822 222.093 14.8258H215.359V14.8143Z" fill="#1F2147"/>
<path d="M241.033 9.10251C240.045 8.4934 238.964 8.18311 237.781 8.18311C236.884 8.18311 236.126 8.33251 235.528 8.64281C234.919 8.94161 234.436 9.32087 234.057 9.76908C233.678 10.2173 233.402 10.6655 233.207 11.0907H233.011V8.40146H228.61V30.5246H233.069V21.9167H233.207C233.413 22.3649 233.701 22.8016 234.092 23.2383C234.471 23.675 234.965 24.0313 235.574 24.3186C236.183 24.6059 236.907 24.7439 237.781 24.7439C238.999 24.7439 240.102 24.4336 241.09 23.79C242.079 23.1579 242.86 22.227 243.435 20.9973C244.01 19.7676 244.297 18.2506 244.297 16.4577C244.297 14.6189 243.998 13.0789 243.412 11.8492C242.826 10.6195 242.033 9.71161 241.033 9.10251ZM239.355 18.9171C239.091 19.6297 238.712 20.1928 238.206 20.595C237.7 20.9973 237.091 21.1927 236.367 21.1927C235.643 21.1927 235.034 20.9973 234.528 20.6065C234.023 20.2158 233.643 19.6642 233.379 18.9516C233.115 18.2391 232.977 17.4001 232.977 16.4462C232.977 15.4924 233.115 14.6534 233.379 13.9524C233.643 13.2513 234.023 12.6997 234.528 12.3204C235.034 11.9412 235.643 11.7458 236.367 11.7458C237.103 11.7458 237.723 11.9412 238.217 12.3434C238.723 12.7456 239.102 13.2973 239.355 13.9983C239.608 14.6994 239.746 15.5153 239.746 16.4462C239.746 17.3771 239.619 18.2046 239.355 18.9171Z" fill="#1F2147"/>
<path d="M258.766 16.7452C258.088 16.3775 257.26 16.1591 256.295 16.0901C257.444 15.8833 258.352 15.4925 258.996 14.9179C259.639 14.3433 259.973 13.6077 259.973 12.7343C259.973 11.3437 259.398 10.2749 258.249 9.5164C257.1 8.7579 255.525 8.39014 253.548 8.39014H246.687V24.4797H254.606C255.95 24.4797 257.088 24.3073 258.019 23.951C258.95 23.5948 259.662 23.1006 260.145 22.4455C260.628 21.7904 260.869 21.0089 260.869 20.0895C260.869 19.3885 260.685 18.7449 260.329 18.1588C259.961 17.5842 259.444 17.113 258.766 16.7452ZM250.836 11.8149H253.537C254.226 11.8149 254.778 11.9528 255.169 12.2286C255.571 12.5045 255.766 12.8952 255.766 13.3894C255.766 13.7227 255.686 14.01 255.514 14.2628C255.341 14.5042 255.1 14.6995 254.778 14.826C254.456 14.9524 254.077 15.0213 253.629 15.0213H250.836V11.8149ZM256.054 20.6986C255.697 20.9975 255.215 21.1469 254.594 21.1469H250.836V17.6416H254.594C255.215 17.6416 255.697 17.8025 256.054 18.1358C256.41 18.4691 256.582 18.9173 256.582 19.4919C256.594 19.9976 256.41 20.3998 256.054 20.6986Z" fill="#1F2147"/>
<path d="M267.351 18.5952V8.40137H263.087V24.4794H267.523L273.293 14.2511V24.4794H277.545V8.40137H273.143L267.351 18.5952Z" fill="#1F2147"/>
<path d="M290.233 20.0437C289.968 20.4459 289.623 20.7562 289.221 20.9631C288.819 21.1699 288.359 21.2734 287.842 21.2734C287.153 21.2734 286.543 21.0895 286.026 20.7102C285.509 20.331 285.107 19.7793 284.831 19.0668C284.544 18.3428 284.406 17.4693 284.406 16.4465C284.406 15.4352 284.544 14.5732 284.831 13.8607C285.118 13.1481 285.521 12.608 286.026 12.2287C286.543 11.861 287.141 11.6656 287.831 11.6656C288.647 11.6656 289.313 11.9069 289.819 12.4011C290.324 12.8953 290.635 13.5389 290.761 14.3434H294.967C294.91 13.1022 294.565 12.0219 293.956 11.091C293.336 10.1716 292.508 9.45904 291.451 8.94188C290.393 8.4362 289.164 8.17188 287.762 8.17188C286.13 8.17188 284.728 8.52814 283.555 9.22919C282.372 9.93023 281.464 10.9071 280.832 12.1483C280.188 13.3895 279.878 14.8375 279.878 16.4925C279.878 18.1244 280.188 19.561 280.82 20.8022C281.452 22.0549 282.36 23.0317 283.544 23.7328C284.728 24.4338 286.141 24.7901 287.796 24.7901C289.233 24.7901 290.462 24.5258 291.52 24.0086C292.577 23.4914 293.393 22.7559 293.991 21.825C294.588 20.8941 294.922 19.8138 294.99 18.5841H290.761C290.681 19.1587 290.508 19.6414 290.233 20.0437Z" fill="#1F2147"/>
<path d="M35.2706 5.03373L30.2369 0L24.8929 5.34403L29.9266 10.1939L35.2706 5.03373Z" fill="#1F2147"/>
<path d="M40.4193 10.1823L24.8929 25.4558L30.2369 30.7999L45.6369 15.3999L40.4193 10.1823Z" fill="#004F9F"/>
<path d="M15.4 30.8L0 15.4L15.4 0L20.744 5.34403L10.3088 15.4L20.744 25.456L15.4 30.8Z" fill="#004F9F"/>
</svg>
